<svg viewBox="0 0 330 330" fill="none" xmlns="http://www.w3.org/2000/svg" preserveAspectRatio="none">

<g opacity="0.8">
<mask id="mask0" mask-type="alpha" maskUnits="userSpaceOnUse" x="0" y="0" width="330" height="330">
<path d="M0 5.99999C0 2.68629 2.68629 0 6 0H324C327.314 0 330 2.68629 330 6V324C330 327.314 327.314 330 324 330H5.99999C2.68629 330 0 327.314 0 324V5.99999Z" fill="#3C444C"/>
</mask>
<g mask="url(#mask0)">
<path d="M-3.39011 -14.6927H345.918V339.731H-3.39011" fill="#3C444C"/>
<path d="M205.597 186.195L188.753 212.622L179.04 226.413L159.887 215.204L133.059 203.451L113.023 184.293L116.215 147.675L156.288 143.055L175.577 145.229L185.493 163.776L205.597 186.195Z" fill="#4C5761"/>
<path d="M183.115 -15.6439L172.656 12.4818L84.2253 -14.3531C84.2253 -14.3531 88.64 -19.1766 89.9305 -19.1766C91.2209 -19.1766 183.115 -15.6439 183.115 -15.6439Z" fill="#4C5761"/>
<path d="M80.7615 -8.78227L77.8409 -1.24134L87.9609 2.08754L90.5418 -5.52133L80.7615 -8.78227Z" fill="#4C5761"/>
<path d="M109.288 -0.154398C109.288 0.524965 105.552 11.4627 105.552 11.4627L129.595 17.7129L133.603 7.11479L109.288 -0.154398Z" fill="#4C5761"/>
<path d="M228.825 -16.3232C228.825 -16.3232 218.026 25.7973 218.433 25.9332C218.773 26.069 351.147 68.1895 351.147 68.1895L346.461 -13.8096L228.825 -16.3232Z" fill="#4C5761"/>
<path d="M350.672 264.933L264.075 223.084L255.381 197.54C255.381 197.54 256.264 192.309 256.128 191.086C255.993 189.795 256.4 179.741 256.4 179.741L266.384 166.969L266.86 121.112C266.86 121.112 295.114 86.0568 343.676 94.4129L350.672 264.933Z" fill="#4C5761"/>
<path d="M204.782 132.593C210.446 132.593 215.038 128.031 215.038 122.403C215.038 116.775 210.446 112.212 204.782 112.212C199.118 112.212 194.526 116.775 194.526 122.403C194.526 128.031 199.118 132.593 204.782 132.593Z" fill="#4C5761"/>
<path d="M-5.22412 -14.9645H22.1473C22.1473 -14.9645 2.45073 24.1668 -5.22412 25.05V-14.9645Z" fill="#4C5761"/>
<path d="M25.3395 234.09V238.981L67.4493 292.379L95.0924 243.805L83.682 238.166L25.3395 234.09Z" fill="#4C5761"/>
<path d="M37.2932 145.637L38.4478 134.631L24.9999 93.326L60.2499 102.022L72.3395 131.778L69.6906 150.8L37.2932 145.637Z" fill="#4C5761"/>
<path d="M17.7326 344.351L16.4422 308.616L38.2442 316.7L121.241 336.198L153.163 319.894L191.198 346.66C191.198 346.66 132.04 356.647 101.477 351.552C70.9133 346.457 17.7326 344.351 17.7326 344.351Z" fill="#4C5761"/>
<path d="M87.2139 17.7129L80.8974 45.5667L133.942 55.1458L152.416 31.2322L87.2139 17.7129Z" fill="#586570"/>
<path d="M0.684904 20.4303L23.302 33.7458L51.6921 10.3078L19.1589 -8.17088L0.684904 20.4303Z" fill="#586570"/>
<path d="M245.262 146.656L235.21 202.432L256.876 192.785L252.461 144.55L245.262 146.656Z" fill="#586570"/>
<path d="M267.946 72.7412V115.745L304.147 95.9755L333.488 93.326L344.152 94.2771L349.314 69.7521L328.123 78.9914L267.946 72.7412Z" fill="#586570"/>
<path d="M-22 138.572C-11.3367 140.27 30.7052 144.618 30.7052 144.618L25 240L68.604 293.738L115.061 310.179L125.316 286.944L160.091 279.811L155.948 271.659L170.007 264.593L178.225 254.878L194.526 235.517L228.146 255.082L198.194 330.967L153.163 320.029C153.163 320.029 124.501 335.451 121.241 334.772C117.981 334.092 35.935 315.885 35.935 315.885L12.5708 305.967L16.4422 300.871L-14.7327 256.713L-22 138.572Z" fill="#586570"/>
<path d="M224.41 262.284L260.543 278.656L325.474 343.671L306.253 342.245L245.873 286.061L218.841 273.425L224.41 262.284Z" fill="#586570"/>
<path d="M351.351 268.534L354 263.167L270.052 221.182L258.574 197.676L259.864 193.056L258.642 179.333L269.78 166.969L270.052 145.161L316.033 121.791L334.915 161.67L335.119 162.145L349.789 171.453L351.623 168.599L337.767 159.768L319.022 120.229L321.195 119.074L347.616 126.139L348.499 122.81L320.856 115.405L270.052 141.221L270.256 121.112C298.782 90.2009 343.133 96.1114 343.676 96.1793L346.597 96.5869L347.48 90.6765L344.559 90.2688C344.084 90.2009 332.198 88.5025 316.509 91.0841C297.967 94.0733 281.87 101.75 269.577 113.367L268.558 76.7495L268.762 76.1381L271.478 77.4289L337.564 82.0486L348.906 65.3362L347.412 64.3172L347.819 62.8905L284.179 44.0042L290.36 27.7675L347.548 43.5966L348.431 40.3357L291.515 24.5745L309.445 -21.894L306.253 -23.1168L280.987 43.0531L253.548 34.9008L279.629 -17.0705L276.572 -18.633L250.22 33.8817L221.965 25.4576L233.783 -21.4184L228.01 -22.8451L223.256 -3.89086L184.202 -13.0623L185.289 -15.9835L182.097 -17.2064L176.188 -1.64896H176.052L175.577 -0.0864239L171.569 10.5116L162.129 7.72625L173.539 -22.7771L170.347 -24L158.869 6.77514L148.069 3.58213L154.861 -21.2146L151.601 -22.0978L144.809 2.63103L85.3122 -15.0324L86.331 -15.9835L82.3917 -20.4673L78.5203 -17.0705L73.4264 -18.5651L71.7284 -12.8584L73.2226 -12.3829L50.8773 7.2507L21.4004 -8.85021C22.7588 -11.4318 23.5738 -13.1981 23.7096 -13.4699L24.4568 -15.0324L21.4004 -16.4591L20.6533 -14.8965C20.5174 -14.6248 11.1446 5.07673 0.888834 17.0335C-4.34093 13.7046 -8.34816 11.0551 -9.16319 10.3758L-11.1328 8.26974L-15.4797 12.3459L-13.4421 14.5199C-12.8308 15.1313 -8.89151 17.8488 -3.25423 21.3814C-4.2051 22.2646 -5.15596 23.0119 -6.03891 23.6233L-7.46521 24.5745L-5.49556 27.3598L-4.06926 26.4087C-2.7788 25.5256 -1.48833 24.4386 -0.265791 23.2157C3.87727 25.8652 8.56369 28.8544 13.318 31.8436L-10.5895 34.2214L-9.97822 40.1319L22.2154 36.8709L68.8758 45.7026L89.8628 108.136L84.0218 115.813L73.5622 129.536L64.9365 109.019L64.529 107.457L64.3252 107.525L61.5406 100.595L22.4871 90.9482L31.4524 118.462L31.9279 120.093H31.9958L36.818 134.903L36.2067 142.444L-0.673306 136.601C-10.3178 134.563 -18.0606 132.865 -19.6227 132.186L-20.9811 135.311C-19.7586 135.854 -15.6834 136.873 -10.4537 138.028L-10.9291 141.085L28.7357 147.335L26.3585 188.641L26.0868 188.709L26.2906 190.203L23.7096 233.954L23.5738 235.653L23.3021 240.544L66.6345 295.572L99.0319 306.578L93.87 325.668L39.1273 313.847C34.1692 311.673 26.9018 308.548 19.4307 305.423V301.687L-8.95943 262.759L-13.7817 266.292L12.7067 302.638C1.29635 297.95 -9.16319 293.874 -11.3366 293.874H-14.325V299.852H-11.4045C-9.36695 300.124 0.888834 304.2 13.4539 309.431V337.625H19.4307V311.945C25.2039 314.391 31.2487 316.972 37.0218 319.486L37.2935 319.622L121.581 337.761L152.824 323.358L186.376 346.525L189.772 341.633L166.883 325.872L194.798 331.647C193.779 335.315 192.896 338.78 192.217 341.769L191.538 344.69L197.379 345.981L198.058 343.06C201.59 327.502 210.827 299.716 220.267 277.977L235.481 284.77L210.963 327.163L216.396 335.859L216.26 335.994L217.279 337.285L218.162 338.644L218.298 338.576L218.434 338.712L219.724 337.693L221.082 336.81L221.015 336.674L235.481 325.328L249.744 332.801L250.899 333.753L251.103 333.481L272.158 344.486L273.72 341.497L266.996 337.965L281.327 323.019L304.283 344.351L306.117 345.166L325.338 346.66L327.647 341.565L321.399 335.247L326.357 326.144L343.405 337.829L345.306 335.043L327.987 323.154L328.055 323.019L326.629 322.271L308.698 309.975C316.373 305.695 322.825 302.706 328.123 300.736L343.473 312.556L345.578 309.839L331.994 299.377C335.594 298.222 338.582 297.542 340.892 297.135L342.114 297.475L342.25 296.931C345.714 296.456 347.412 296.659 347.548 296.659L349.246 296.931L349.789 293.534L348.091 293.263C347.819 293.195 345.51 292.855 340.96 293.602C331.791 291.224 325.814 286.944 323.233 280.762C319.293 271.387 324.116 259.974 326.153 255.898L351.351 268.534ZM311.347 248.492L302.789 273.221L285.402 266.903L305.098 245.299L311.347 248.492ZM283.5 269.892L301.634 276.482L295.454 294.214L283.5 269.892ZM293.892 298.765L291.582 305.491L262.717 276.55L261.834 275.939L259.049 274.716L270.46 251.21L293.892 298.765ZM301.838 243.805L281.87 265.68L281.327 265.477L270.052 242.65L275.35 230.489L301.838 243.805ZM272.293 228.995L266.317 242.786L268.558 247.405L255.925 273.357L228.418 260.925C238.538 241.087 248.182 224.647 251.714 218.736L272.293 228.995ZM88.7761 217.785L68.6721 207.323C77.5015 191.222 80.7617 175.869 81.9163 165.135L113.499 164.048L112.208 176.14H112.004V177.771L111.257 184.904L120.766 193.94L88.5724 238.574L84.1576 236.4L80.2862 236.128L88.7761 217.785ZM76.6186 235.924L65.8195 235.177L67.7891 210.788L84.2935 219.348L76.6186 235.924ZM82.3238 152.227C88.844 151.412 94.8888 150.732 100.526 150.121V161.194L82.188 161.806C82.4596 157.39 82.3917 154.061 82.3238 152.227ZM116.963 163.708L118.593 148.286C128.577 147.403 136.795 146.792 143.587 146.452L154.59 164.251C150.447 166.561 147.458 170.705 146.915 175.665L115.672 176.208L116.963 164.048H117.03L116.963 163.708ZM123.279 103.856L122.056 102.973L121.921 103.177C116.08 100.323 111.393 96.9266 108.608 94.6847L136.727 57.7953C142.025 57.3197 155.744 56.5045 170.754 60.1051C173.607 60.7845 176.324 61.5997 178.905 62.4829L166.543 103.652C154.658 109.019 142.296 109.087 132.652 106.913L132.312 106.709L132.244 106.845C128.848 106.03 125.86 105.011 123.279 103.856ZM130.207 109.835L124.841 117.715L118.796 113.231L123.007 107.457C125.113 108.34 127.558 109.155 130.207 109.835ZM141.481 51.4772L154.318 34.629L185.289 41.083L180.603 56.7763C177.818 55.8251 174.898 55.0099 171.909 54.2626C159.752 51.4093 148.613 51.2055 141.481 51.4772ZM185.221 64.9965C191.606 67.8499 197.311 71.3826 202.201 75.7305L194.662 82.8638L198.465 100.935L206.48 105.351L216.668 94.5488C218.23 97.606 219.588 100.799 220.743 104.196L220.947 104.807L246.62 132.865L243.767 148.151L215.038 127.838C215.921 126.207 216.396 124.373 216.396 122.403C216.396 116.017 211.166 110.854 204.782 110.854C198.398 110.854 193.168 116.017 193.168 122.403C193.168 128.789 198.398 133.952 204.782 133.952C207.974 133.952 210.895 132.661 213 130.555L243.088 151.819L233.24 204.062C222.916 199.103 203.084 185.04 179.516 145.841C179.448 145.297 179.244 144.754 178.905 144.278C178.158 143.123 176.595 140.746 162.74 140.202L185.221 64.9965ZM204.714 78.0403C208.721 81.9806 212.117 86.3965 214.97 91.4238L205.801 101.139L201.454 98.7609L198.398 84.0866L204.714 78.0403ZM252.529 177.771L253.752 191.086L240.371 198.491L246.96 163.708L251.103 161.466L252.529 177.295L252.325 177.499L252.529 177.771ZM252.054 198.831L248.726 210.516L241.458 206.915L240.915 206.848C240.847 206.848 240.032 206.712 238.606 206.304L252.054 198.831ZM247.707 159.36L249.812 148.219L250.695 157.73L247.707 159.36ZM242.749 119.821L247.299 120.433L247.707 125.256L242.749 119.821ZM210.691 128.993C209.129 130.419 207.023 131.302 204.714 131.302C199.824 131.302 195.817 127.362 195.817 122.471C195.817 117.579 199.824 113.639 204.714 113.639C209.604 113.639 213.611 117.579 213.611 122.471C213.611 123.829 213.272 125.12 212.728 126.343L212.525 126.207L210.555 128.993H210.691ZM163.215 192.105C166.679 191.766 169.804 190.203 172.181 187.893L192.692 202.364L179.72 224.783L160.499 213.573L163.215 192.105ZM160.227 188.573V188.641C154.59 187.893 150.175 183.07 150.175 177.295C150.175 170.977 155.337 165.814 161.721 165.814C166.068 165.814 169.871 168.26 171.841 171.792L171.909 171.86C172.792 173.491 173.267 175.325 173.267 177.295C173.267 179.469 172.656 181.575 171.569 183.274L170.687 184.564C168.581 187.146 165.389 188.776 161.857 188.776L160.227 188.573ZM174.354 185.244C175.848 182.934 176.663 180.216 176.663 177.295C176.663 175.325 176.256 173.355 175.509 171.657L185.629 166.358C191.334 174.442 196.767 181.1 201.793 186.603L194.39 199.442L174.354 185.244ZM173.471 147.539L173.879 148.219C177.207 153.789 180.467 158.885 183.727 163.572L173.879 168.735C171.162 164.931 166.747 162.485 161.721 162.485C160.363 162.485 159.004 162.689 157.782 163.029L147.458 146.384C166.068 145.569 171.773 146.86 173.471 147.539ZM146.847 179.062C147.662 185.855 153.028 191.222 159.752 192.105L157.239 211.807L147.798 206.304L147.594 206.236L133.874 202.024L114.721 183.749L115.129 179.673L146.847 179.062ZM113.838 160.651L103.922 160.991V149.713C107.861 149.305 111.597 148.898 115.129 148.558L113.838 160.651ZM123.211 196.385L132.176 204.945L134.961 205.828L101.613 245.571C99.6432 244.212 97.7414 243.126 95.7718 242.31L91.5608 240.204L123.211 196.385ZM138.493 206.915L146.236 209.293L177.954 227.772L162.808 253.995L137.814 262.148L131.633 249.172L110.442 253.112C108.405 251.006 106.367 249.172 104.398 247.541L138.493 206.915ZM129.663 252.976L134.554 263.235L121.921 267.379C119 263.099 116.08 259.362 113.159 256.101L129.663 252.976ZM119.679 270.028L123.483 286.741L121.445 291.428L114.11 308.073L103.379 304.268L119.408 269.689C119.543 269.824 119.611 269.96 119.679 270.028ZM123.279 270.504L149.088 262.08L154.25 272.338L155.065 273.969L157.442 278.656L126.539 285.042L123.279 270.504ZM156.627 269.349L152.416 260.993L163.283 257.46L167.494 263.914L156.627 269.349ZM166 255.354L180.942 229.538L191.877 235.924L170.075 261.74L166 255.354ZM182.64 226.549L204.306 189.184C223.188 208.818 236.704 212.147 239.692 212.69L246.416 216.019C243.088 221.59 235.142 235.245 226.38 251.957L195.545 234.022L194.39 233.003L194.187 233.207L182.64 226.549ZM261.291 216.766L254.159 213.234L256.129 206.304L261.291 216.766ZM263.871 164.659L257.895 171.249L253.344 121.18L264.279 122.607L263.871 164.659ZM266.181 116.832L252.801 115.066L248.386 66.627L265.569 74.7114L265.162 76.0702L265.094 76.3419L266.249 116.764C266.181 116.764 266.181 116.764 266.181 116.832ZM340.62 67.0346L334.575 75.9343L273.041 71.6543L270.528 70.4314L277.252 48.2163L340.62 67.0346ZM273.924 47.1972L267.335 68.9369L247.775 59.7655L245.873 38.909L273.924 47.1972ZM246.756 114.318L236.568 112.96L226.244 101.682C219.317 81.9127 205.869 67.4423 186.987 59.222L192.013 42.4417L201.25 44.3439L242.205 63.6378L246.756 114.318ZM239.76 37.0068L241.526 56.7763L203.424 38.8411L203.084 38.7052L193.643 36.7351L197.311 24.4386L214.698 29.6017V29.7376L217.551 30.417L239.76 37.0068ZM182.912 -9.80131L222.373 -0.494043L219.317 11.5986L179.448 -0.629913L182.912 -9.80131ZM178.226 2.56309L218.502 14.8596L216.26 23.7592L174.83 11.4627L178.226 2.56309ZM168.649 15.8786L190.858 22.4684L186.987 35.3084L158.325 29.33L168.649 15.8786ZM79.9466 -10.4807L161.653 13.8405L150.922 27.9033L58.1446 8.60942L79.9466 -10.4807ZM22.8946 30.9605C17.1894 27.3598 9.92207 22.8081 3.80935 18.8678C10.2617 11.2589 16.1706 1.06849 19.8383 -5.86101L48.1605 9.49259L23.7776 30.8925L22.8946 30.9605ZM30.7732 32.6589L52.5073 13.5688L146.915 33.1344L132.652 51.8848L30.7732 32.6589ZM72.4755 46.5858L128.577 57.1839L116.759 72.7413L80.1504 69.4124L72.4755 46.5858ZM81.305 72.8772L114.246 75.8664L92.1041 105.011L81.305 72.8772ZM106.503 97.4022C109.356 99.712 113.974 103.041 119.883 105.962L114.11 113.979L125.724 122.539L133.806 110.582C137.27 111.193 140.938 111.601 144.809 111.601C151.33 111.601 158.325 110.514 165.253 107.864L155.608 140.066C152.213 140.066 148.341 140.202 143.858 140.406L143.655 140.134L143.111 140.474C131.022 141.085 114.721 142.444 92.6475 144.958L88.1648 121.316L106.503 97.4022ZM78.1807 134.495L85.4481 124.916L89.3195 145.297C85.1764 145.773 80.8296 146.316 76.279 146.86C75.5319 146.928 74.7848 146.996 74.0377 147.064L78.1807 134.495ZM27.581 95.7038L59.0276 103.516L61.0651 108.476L34.2371 115.949L27.581 95.7038ZM35.188 119.142L62.2877 111.601L71.253 133.68L66.8383 147.132C65.6157 147.064 64.3932 146.928 63.1706 146.724L39.5348 142.987L40.1461 134.36L35.188 119.142ZM32.1995 147.879L54.1374 151.344L49.1793 185.583L29.8224 188.165L32.1995 147.879ZM29.5507 191.63L52.0998 188.573L57.4654 151.819L62.2198 152.566C67.1099 153.314 72.068 153.45 76.9582 152.838C77.6374 152.77 78.2487 152.702 78.8599 152.634C79.0637 159.02 78.792 182.662 64.7328 207.255L64.529 207.595L62.2877 234.973L27.0377 232.527L29.5507 191.63ZM26.766 239.457L26.9698 235.924L83.2067 239.865L92.7154 244.62L67.7891 291.632L26.766 239.457ZM70.9813 292.787L95.7718 246.047C99.6432 247.949 103.65 251.074 107.793 255.286L87.4177 298.629L70.9813 292.787ZM90.6778 299.784L110.306 258.004C112.548 260.517 114.789 263.371 117.098 266.496L100.119 303.113L90.6778 299.784ZM196.564 325.872L152.824 316.836L120.902 331.511L97.0622 326.347L102.156 307.665L114.45 311.809L115.944 312.353L124.23 293.602L126.471 288.439L162.536 281.034L158.189 272.406L170.754 266.088L171.298 265.68L194.934 237.623L224.818 255.014C223.46 257.596 222.101 260.245 220.743 262.963C211.845 280.626 202.405 306.102 196.564 325.872ZM241.051 324.377L235.006 321.184L219.113 333.685L214.97 327.027L238.673 286.129L244.175 288.575L251.85 295.708L242.341 309.635L241.051 324.377ZM250.22 329.201L244.311 326.076L245.669 310.79L254.363 298.086L266.928 309.771L250.22 329.201ZM263.871 336.266L264.075 336.47L253.344 330.831L269.441 312.081L278.746 320.777L263.871 336.266ZM307.543 339.323L247.91 283.887L247.095 283.344L238.945 279.743L238.606 279.539V279.607L222.78 272.542C223.799 270.368 224.818 268.262 225.769 266.224L258.845 281.17L317.731 340.071L307.543 339.323ZM323.504 324.241L318.818 332.801L300.752 314.73C302.382 313.711 303.876 312.828 305.438 311.877L323.504 324.241ZM334.371 295.097C326.289 297.339 314.335 302.094 298.306 312.217L294.299 308.141L297.491 298.901L297.763 298.765L297.627 298.494L304.895 277.569L320.72 283.276C323.165 288.507 327.783 292.447 334.371 295.097ZM319.973 262.284C318.139 268.466 317.867 274.172 319.09 279.132L305.981 274.376L314.403 250.055L323.097 254.403C322.282 256.101 320.991 258.887 319.973 262.284Z" fill="#444E57"/>
<g opacity="0.3">
<path d="M58.2303 224.008L32.975 222.027L32.444 228.799L57.6993 230.781L58.2303 224.008Z" fill="#586570"/>
<path d="M246.651 235.779L234.796 258.097L240.794 261.285L252.649 238.967L246.651 235.779Z" fill="#586570"/>
<path d="M307.149 282.68L300.886 300.784L307.304 303.006L313.568 284.901L307.149 282.68Z" fill="#586570"/>
<path d="M232.852 74.5545L216.131 55.6104L205.847 64.6924L222.568 83.6365L232.852 74.5545Z" fill="#586570"/>
<path d="M243.087 107.665L230.454 85.7793L224.572 89.1761L237.205 111.062L243.087 107.665Z" fill="#586570"/>
<path d="M309.255 63.9031L284.047 62.1752L283.582 68.9532L308.79 70.6811L309.255 63.9031Z" fill="#586570"/>
<path d="M322.652 64.8281L312.081 64.1034L311.617 70.8814L322.188 71.6061L322.652 64.8281Z" fill="#586570"/>
<path d="M205.531 227.244L191.65 219.228L188.051 225.464L201.932 233.481L205.531 227.244Z" fill="#586570"/>
<path d="M225.94 212.868L203.883 200.13L196.854 212.308L218.91 225.046L225.94 212.868Z" fill="#586570"/>
<path d="M204.406 164.092L191.488 144.538L185.481 148.508L198.399 168.062L204.406 164.092Z" fill="#586570"/>
<path d="M72.0728 181.307L75.3228 158.097L68.1932 157.098L64.9432 180.309L72.0728 181.307Z" fill="#586570"/>
<path d="M-1.51685 130.267L30.0691 137.168L31.6054 130.132L0.0195097 123.232L-1.51685 130.267Z" fill="#586570"/>
<path d="M96.6592 139.667L119.934 136.958L118.741 126.701L95.4658 129.41L96.6592 139.667Z" fill="#586570"/>
<path d="M166.224 90.8589L173.322 68.5225L157.852 63.6043L150.754 85.9408L166.224 90.8589Z" fill="#586570"/>
<path d="M18.8046 66.581L49.1297 73.2064L54.1156 50.3738L23.7905 43.7484L18.8046 66.581Z" fill="#586570"/>
<path d="M29.7776 87.0171L60.1027 93.6425L62.9 80.8324L32.5749 74.207L29.7776 87.0171Z" fill="#586570"/>
<path d="M11.0014 82.9392L23.8083 85.7373L26.6056 72.9271L13.7987 70.1291L11.0014 82.9392Z" fill="#586570"/>
<path d="M131.126 136.315H149.124V125.989H131.126V136.315Z" fill="#586570"/>
<path d="M84.7903 294.1L94.62 272.823L88.0844 269.802L78.2546 291.079L84.7903 294.1Z" fill="#586570"/>
<path d="M95.4157 271.083L102.681 255.356L96.1455 252.335L88.88 268.062L95.4157 271.083Z" fill="#586570"/>
<path d="M145.314 237.757L156.712 224.714L142.803 212.554L131.405 225.597L145.314 237.757Z" fill="#586570"/>
<path d="M105.568 207.893L116.966 194.849L110.114 188.858L98.716 201.902L105.568 207.893Z" fill="#586570"/>
<path d="M128.267 240.09L133.943 233.594L128.523 228.855L122.846 235.351L128.267 240.09Z" fill="#586570"/>
<path d="M128.64 280.825L142.335 277.649L140.709 270.634L127.014 273.811L128.64 280.825Z" fill="#586570"/>
<path d="M145.517 276.935L150.412 275.798L148.785 268.784L143.889 269.92L145.517 276.935Z" fill="#586570"/>
<path d="M85.0553 108.707L77.7562 86.4336L70.9146 88.6768L78.2137 110.95L85.0553 108.707Z" fill="#586570"/>
<path d="M111.89 62.9581L88.512 61.3554L88.0197 68.5401L111.398 70.1428L111.89 62.9581Z" fill="#586570"/>
<path d="M76.2765 81.9916L72.9982 71.9849L66.1566 74.2273L69.4348 84.2341L76.2765 81.9916Z" fill="#586570"/>
<path d="M71.6521 67.7529L66.8722 53.1624L60.0306 55.4049L64.8105 69.9954L71.6521 67.7529Z" fill="#586570"/>
<path d="M233.966 177.349L238.966 154.451L231.932 152.914L226.932 175.813L233.966 177.349Z" fill="#586570"/>
<path d="M221.486 154.116L213.777 140.761L201.366 147.928L209.075 161.283L221.486 154.116Z" fill="#586570"/>
<path d="M211.061 174.169L206.08 166.631L200.074 170.601L205.055 178.14L211.061 174.169Z" fill="#586570"/>
<path d="M179.131 45.123L170.198 43.7776L169.126 50.8989L178.059 52.2443L179.131 45.123Z" fill="#586570"/>
<path d="M165.068 43.0225L156.135 41.6771L155.063 48.7984L163.996 50.1438L165.068 43.0225Z" fill="#586570"/>
<path d="M224.863 237.638L210.982 229.622L207.382 235.858L221.263 243.875L224.863 237.638Z" fill="#586570"/>
<path d="M41.1647 196.725H33.9653V203.926H41.1647V196.725Z" fill="#586570"/>
<path d="M41.1647 209.769H33.9653V216.97H41.1647V209.769Z" fill="#586570"/>
<path d="M233.355 225.013L227.121 221.413L223.521 227.649L229.756 231.249L233.355 225.013Z" fill="#586570"/>
<path d="M259.691 229.472L253.398 225.837L249.764 232.132L256.058 235.767L259.691 229.472Z" fill="#586570"/>
<path d="M246.378 295.299L240.084 291.664L236.45 297.959L242.744 301.594L246.378 295.299Z" fill="#586570"/>
<path d="M239.446 307.326L233.152 303.691L229.518 309.986L235.812 313.621L239.446 307.326Z" fill="#586570"/>
</g>
<path opacity="0.3" d="M327.352 310.171L321.059 306.536L317.425 312.831L323.719 316.466L327.352 310.171Z" fill="#969696"/>
</g>
</g>
</svg>
