<svg width="70" height="41" viewBox="0 0 70 41" fill="none" xmlns="http://www.w3.org/2000/svg">
<path fill-rule="evenodd" clip-rule="evenodd" d="M36 0.666656C40.0496 0.666656 43.3333 3.94961 43.3333 7.99999C43.3333 12.0496 40.0496 15.3333 36 15.3333C31.9496 15.3333 28.6667 12.0496 28.6667 7.99999C28.6667 3.9504 31.9504 0.666656 36 0.666656Z" stroke="#CBCFD4" stroke-width="0.5" stroke-linecap="round" stroke-linejoin="round"/>
<mask id="path-2-outside-1" maskUnits="userSpaceOnUse" x="28.3333" y="0.333313" width="15" height="15" fill="black">
<rect fill="white" x="28.3333" y="0.333313" width="15" height="15"/>
<path fill-rule="evenodd" clip-rule="evenodd" d="M36 1.33331C39.6814 1.33331 42.6666 4.31782 42.6666 7.99998C42.6666 11.6814 39.6814 14.6666 36 14.6666C32.3178 14.6666 29.3333 11.6814 29.3333 7.99998C29.3333 4.31854 32.3185 1.33331 36 1.33331Z"/>
</mask>
<path d="M36 1.08331C35.8173 1.08331 35.6362 1.0904 35.457 1.10433L35.4958 1.60283C35.6621 1.5899 35.8303 1.58331 36 1.58331V1.08331ZM34.3849 1.27302C34.0292 1.35813 33.6843 1.4707 33.3524 1.60837L33.5439 2.07022C33.8517 1.94257 34.1715 1.8382 34.5012 1.75929L34.3849 1.27302ZM32.3855 2.10198C32.0761 2.29205 31.7827 2.50578 31.508 2.74063L31.8329 3.12068C32.0879 2.90271 32.3601 2.70438 32.6472 2.52804L32.3855 2.10198ZM30.7406 3.50798C30.5058 3.7827 30.2921 4.07605 30.102 4.38554L30.528 4.64721C30.7044 4.36008 30.9027 4.08786 31.1207 3.83289L30.7406 3.50798ZM29.6084 5.35236C29.4707 5.68428 29.3581 6.02924 29.273 6.38486L29.7593 6.50123C29.8382 6.17151 29.9426 5.85168 30.0702 5.54392L29.6084 5.35236ZM29.1043 7.45704C29.0904 7.63624 29.0833 7.81731 29.0833 7.99998H29.5833C29.5833 7.83025 29.5899 7.66211 29.6028 7.49578L29.1043 7.45704ZM29.0833 7.99998C29.0833 8.18265 29.0904 8.36372 29.1043 8.54292L29.6028 8.50419C29.5899 8.33786 29.5833 8.16971 29.5833 7.99998H29.0833ZM29.273 9.61512C29.3581 9.97075 29.4706 10.3157 29.6083 10.6476L30.0701 10.4561C29.9425 10.1483 29.8382 9.8285 29.7593 9.49877L29.273 9.61512ZM30.1019 11.6145C30.2919 11.924 30.5056 12.2174 30.7405 12.4921L31.1206 12.1672C30.9026 11.9122 30.7043 11.64 30.5279 11.3529L30.1019 11.6145ZM31.5079 13.2595C31.7826 13.4943 32.0759 13.7081 32.3854 13.8981L32.6471 13.4721C32.36 13.2957 32.0877 13.0974 31.8328 12.8794L31.5079 13.2595ZM33.3523 14.3917C33.6842 14.5293 34.0292 14.6419 34.3848 14.727L34.5012 14.2407C34.1714 14.1618 33.8516 14.0575 33.5438 13.9298L33.3523 14.3917ZM35.457 14.8956C35.6362 14.9096 35.8173 14.9166 36 14.9166V14.4166C35.8302 14.4166 35.6621 14.4101 35.4958 14.3971L35.457 14.8956ZM36 14.9166C36.1827 14.9166 36.3637 14.9096 36.5429 14.8956L36.5042 14.3971C36.3379 14.4101 36.1697 14.4166 36 14.4166V14.9166ZM37.6151 14.7269C37.9707 14.6418 38.3157 14.5293 38.6476 14.3916L38.456 13.9297C38.1483 14.0574 37.8285 14.1618 37.4987 14.2407L37.6151 14.7269ZM39.6144 13.898C39.9239 13.7079 40.2173 13.4942 40.492 13.2593L40.1671 12.8793C39.9121 13.0973 39.6399 13.2956 39.3528 13.4719L39.6144 13.898ZM41.2593 12.492C41.4942 12.2173 41.7079 11.9239 41.898 11.6144L41.4719 11.3528C41.2956 11.6399 41.0973 11.9121 40.8793 12.1671L41.2593 12.492ZM42.3916 10.6476C42.5293 10.3157 42.6418 9.97072 42.7269 9.6151L42.2407 9.49873C42.1618 9.82845 42.0574 10.1483 41.9297 10.456L42.3916 10.6476ZM42.8956 8.54292C42.9096 8.36372 42.9166 8.18265 42.9166 7.99998H42.4166C42.4166 8.16971 42.4101 8.33785 42.3971 8.50418L42.8956 8.54292ZM42.9166 7.99998C42.9166 7.8173 42.9096 7.63624 42.8956 7.45704L42.3971 7.49577C42.4101 7.66209 42.4166 7.83024 42.4166 7.99998H42.9166ZM42.727 6.38484C42.6419 6.0292 42.5293 5.68423 42.3917 5.35231L41.9298 5.54384C42.0575 5.8516 42.1618 6.17144 42.2407 6.50118L42.727 6.38484ZM41.8981 4.38545C41.7081 4.07594 41.4943 3.78258 41.2595 3.50786L40.8794 3.83276C41.0974 4.08773 41.2957 4.35996 41.4721 4.6471L41.8981 4.38545ZM40.4921 2.7405C40.2174 2.50565 39.924 2.29193 39.6145 2.10186L39.3529 2.52793C39.64 2.70426 39.9122 2.90258 40.1672 3.12055L40.4921 2.7405ZM38.6476 1.60829C38.3157 1.47064 37.9708 1.35808 37.6151 1.27299L37.4988 1.75926C37.8285 1.83816 38.1483 1.94252 38.4561 2.07015L38.6476 1.60829ZM36.5429 1.10432C36.3637 1.0904 36.1827 1.08331 36 1.08331V1.58331C36.1697 1.58331 36.3379 1.5899 36.5042 1.60282L36.5429 1.10432ZM36 0.833313C35.8108 0.833313 35.6233 0.840654 35.4377 0.85508L35.5152 1.85207C35.675 1.83965 35.8367 1.83331 36 1.83331V0.833313ZM34.3267 1.02989C33.9581 1.11809 33.6006 1.23477 33.2566 1.37744L33.6397 2.30114C33.9354 2.1785 34.2426 2.07823 34.5594 2.00243L34.3267 1.02989ZM32.2547 1.88895C31.934 2.08589 31.6301 2.30732 31.3455 2.55061L31.9953 3.3107C32.2404 3.10117 32.5021 2.91054 32.778 2.74107L32.2547 1.88895ZM30.5506 3.34553C30.3073 3.63011 30.0859 3.93404 29.8889 4.2547L30.7411 4.77804C30.9105 4.5021 31.1012 4.24044 31.3107 3.99535L30.5506 3.34553ZM29.3774 5.25658C29.2348 5.60057 29.1181 5.9581 29.0299 6.32667L30.0024 6.55942C30.0782 6.24265 30.1785 5.93538 30.3011 5.6397L29.3774 5.25658ZM28.8551 7.43767C28.8407 7.62331 28.8333 7.81084 28.8333 7.99998H29.8333C29.8333 7.83672 29.8396 7.67504 29.8521 7.51515L28.8551 7.43767ZM28.8333 7.99998C28.8333 8.18912 28.8407 8.37665 28.8551 8.56229L29.8521 8.48482C29.8396 8.32493 29.8333 8.16324 29.8333 7.99998H28.8333ZM29.0299 9.6733C29.118 10.0419 29.2347 10.3994 29.3774 10.7434L30.3011 10.3603C30.1785 10.0647 30.0782 9.75738 30.0024 9.44059L29.0299 9.6733ZM29.8888 11.7453C30.0858 12.066 30.3072 12.37 30.5505 12.6545L31.3106 12.0048C31.1011 11.7597 30.9104 11.498 30.741 11.222L29.8888 11.7453ZM31.3454 13.4495C31.63 13.6928 31.9339 13.9142 32.2546 14.1112L32.7779 13.259C32.502 13.0895 32.2403 12.8989 31.9952 12.6894L31.3454 13.4495ZM33.2565 14.6226C33.6005 14.7653 33.9581 14.8819 34.3267 14.9701L34.5594 13.9976C34.2426 13.9218 33.9353 13.8215 33.6396 13.6989L33.2565 14.6226ZM35.4377 15.1449C35.6233 15.1593 35.8108 15.1666 36 15.1666V14.1666C35.8367 14.1666 35.675 14.1603 35.5151 14.1479L35.4377 15.1449ZM36 15.1666C36.1891 15.1666 36.3767 15.1593 36.5623 15.1449L36.4848 14.1479C36.3249 14.1603 36.1632 14.1666 36 14.1666V15.1666ZM37.6733 14.9701C38.0419 14.8819 38.3994 14.7652 38.7434 14.6225L38.3603 13.6988C38.0646 13.8215 37.7573 13.9217 37.4405 13.9975L37.6733 14.9701ZM39.7453 14.111C40.0659 13.9141 40.3698 13.6926 40.6544 13.4493L40.0046 12.6893C39.7595 12.8988 39.4979 13.0894 39.2219 13.2589L39.7453 14.111ZM41.4493 12.6544C41.6926 12.3698 41.9141 12.0659 42.111 11.7453L41.2589 11.2219C41.0894 11.4979 40.8988 11.7595 40.6893 12.0046L41.4493 12.6544ZM42.6225 10.7434C42.7652 10.3994 42.8819 10.0419 42.9701 9.67329L41.9975 9.44054C41.9217 9.75731 41.8215 10.0646 41.6988 10.3603L42.6225 10.7434ZM43.1449 8.56229C43.1593 8.37665 43.1666 8.18912 43.1666 7.99998H42.1666C42.1666 8.16324 42.1603 8.32492 42.1479 8.48481L43.1449 8.56229ZM43.1666 7.99998C43.1666 7.81084 43.1593 7.62331 43.1449 7.43768L42.1479 7.51513C42.1603 7.67502 42.1666 7.83671 42.1666 7.99998H43.1666ZM42.9701 6.32667C42.8819 5.95808 42.7653 5.60054 42.6226 5.25654L41.6989 5.63961C41.8215 5.93529 41.9218 6.24257 41.9976 6.55936L42.9701 6.32667ZM42.1112 4.25462C41.9142 3.93393 41.6928 3.63 41.4495 3.34541L40.6894 3.99522C40.8989 4.24031 41.0895 4.50197 41.259 4.77793L42.1112 4.25462ZM40.6545 2.55047C40.37 2.30718 40.066 2.08576 39.7453 1.88882L39.222 2.74097C39.498 2.91043 39.7597 3.10105 40.0048 3.31058L40.6545 2.55047ZM38.7434 1.37736C38.3994 1.2347 38.0419 1.11804 37.6733 1.02985L37.4406 2.0024C37.7574 2.0782 38.0647 2.17845 38.3603 2.30108L38.7434 1.37736ZM36.5623 0.855076C36.3767 0.840652 36.1891 0.833313 36 0.833313V1.83331C36.1632 1.83331 36.3249 1.83965 36.4848 1.85207L36.5623 0.855076Z" fill="#CBCFD4" mask="url(#path-2-outside-1)"/>
<path fill-rule="evenodd" clip-rule="evenodd" d="M36.0002 1.8334C39.4055 1.8334 42.1668 4.59407 42.1668 8.00007C42.1668 11.4054 39.4055 14.1667 36.0002 14.1667C32.5942 14.1667 29.8335 11.4054 29.8335 8.00007C29.8335 4.59474 32.5948 1.8334 36.0002 1.8334Z" stroke="#CBCFD4" stroke-width="0.5" stroke-linecap="round" stroke-linejoin="round"/>
<path d="M34.459 9.07422C34.4303 9.3776 34.3184 9.61458 34.123 9.78516C33.9277 9.95443 33.668 10.0391 33.3438 10.0391C33.1172 10.0391 32.9173 9.98568 32.7441 9.87891C32.5723 9.77083 32.4395 9.61784 32.3457 9.41992C32.252 9.22201 32.2031 8.99219 32.1992 8.73047V8.46484C32.1992 8.19661 32.2467 7.96029 32.3418 7.75586C32.4368 7.55143 32.5729 7.39388 32.75 7.2832C32.9284 7.17253 33.1341 7.11719 33.3672 7.11719C33.681 7.11719 33.9336 7.20247 34.125 7.37305C34.3164 7.54362 34.4277 7.78451 34.459 8.0957H33.9668C33.9434 7.89128 33.8835 7.74414 33.7871 7.6543C33.6921 7.56315 33.5521 7.51758 33.3672 7.51758C33.1523 7.51758 32.987 7.59635 32.8711 7.75391C32.7565 7.91016 32.6979 8.13997 32.6953 8.44336V8.69531C32.6953 9.0026 32.75 9.23698 32.8594 9.39844C32.9701 9.5599 33.1315 9.64062 33.3438 9.64062C33.5378 9.64062 33.6836 9.59701 33.7812 9.50977C33.8789 9.42253 33.9408 9.27734 33.9668 9.07422H34.459ZM37.1602 10H36.668V8.73633H35.3965V10H34.9023V7.15625H35.3965V8.33984H36.668V7.15625H37.1602V10ZM39.3848 8.79492H38.2402V10H37.7461V7.15625H39.5527V7.55469H38.2402V8.40039H39.3848V8.79492Z" fill="#CBCFD4"/>
<path d="M10.3253 31.46V33H3.10133V31.782L6.99333 28.086C7.432 27.666 7.726 27.302 7.87533 26.994C8.03399 26.6767 8.11333 26.364 8.11333 26.056C8.11333 25.5987 7.95933 25.2487 7.65133 25.006C7.34333 24.7633 6.89066 24.642 6.29333 24.642C5.29466 24.642 4.52933 24.9827 3.99733 25.664L2.72333 24.684C3.10599 24.1707 3.61933 23.774 4.26333 23.494C4.91666 23.2047 5.64466 23.06 6.44733 23.06C7.51133 23.06 8.36066 23.312 8.99533 23.816C9.63 24.32 9.94733 25.006 9.94733 25.874C9.94733 26.406 9.83533 26.9053 9.61133 27.372C9.38733 27.8387 8.95799 28.3707 8.32333 28.968L5.70533 31.46H10.3253ZM24.9469 33L24.9329 26.504L21.7129 31.88H20.9009L17.6809 26.588V33H15.9449V23.2H17.4429L21.3349 29.696L25.1569 23.2H26.6549L26.6689 33H24.9469ZM29.148 25.524H30.898V33H29.148V25.524ZM30.03 24.292C29.7127 24.292 29.4467 24.194 29.232 23.998C29.0173 23.7927 28.91 23.5407 28.91 23.242C28.91 22.9433 29.0173 22.696 29.232 22.5C29.4467 22.2947 29.7127 22.192 30.03 22.192C30.3473 22.192 30.6133 22.29 30.828 22.486C31.0427 22.6727 31.15 22.9107 31.15 23.2C31.15 23.508 31.0427 23.7693 30.828 23.984C30.6227 24.1893 30.3567 24.292 30.03 24.292ZM33.1949 22.612H34.9449V33H33.1949V22.612ZM37.2418 22.612H38.9918V33H37.2418V22.612ZM41.2886 25.524H43.0386V33H41.2886V25.524ZM42.1706 24.292C41.8533 24.292 41.5873 24.194 41.3726 23.998C41.158 23.7927 41.0506 23.5407 41.0506 23.242C41.0506 22.9433 41.158 22.696 41.3726 22.5C41.5873 22.2947 41.8533 22.192 42.1706 22.192C42.488 22.192 42.754 22.29 42.9686 22.486C43.1833 22.6727 43.2906 22.9107 43.2906 23.2C43.2906 23.508 43.1833 23.7693 42.9686 23.984C42.7633 24.1893 42.4973 24.292 42.1706 24.292ZM48.6955 33.098C47.9395 33.098 47.2582 32.9347 46.6515 32.608C46.0448 32.2813 45.5688 31.8287 45.2235 31.25C44.8875 30.662 44.7195 29.9993 44.7195 29.262C44.7195 28.5247 44.8875 27.8667 45.2235 27.288C45.5688 26.7093 46.0448 26.2567 46.6515 25.93C47.2582 25.6033 47.9395 25.44 48.6955 25.44C49.4608 25.44 50.1468 25.6033 50.7535 25.93C51.3602 26.2567 51.8315 26.7093 52.1675 27.288C52.5128 27.8667 52.6855 28.5247 52.6855 29.262C52.6855 29.9993 52.5128 30.662 52.1675 31.25C51.8315 31.8287 51.3602 32.2813 50.7535 32.608C50.1468 32.9347 49.4608 33.098 48.6955 33.098ZM48.6955 31.6C49.3395 31.6 49.8715 31.3853 50.2915 30.956C50.7115 30.5267 50.9215 29.962 50.9215 29.262C50.9215 28.562 50.7115 27.9973 50.2915 27.568C49.8715 27.1387 49.3395 26.924 48.6955 26.924C48.0515 26.924 47.5195 27.1387 47.0995 27.568C46.6888 27.9973 46.4835 28.562 46.4835 29.262C46.4835 29.962 46.6888 30.5267 47.0995 30.956C47.5195 31.3853 48.0515 31.6 48.6955 31.6ZM58.6009 25.44C59.5436 25.44 60.2996 25.7153 60.8689 26.266C61.4383 26.8167 61.7229 27.6333 61.7229 28.716V33H59.9729V28.94C59.9729 28.2867 59.8189 27.7967 59.5109 27.47C59.2029 27.134 58.7643 26.966 58.1949 26.966C57.5509 26.966 57.0423 27.162 56.6689 27.554C56.2956 27.9367 56.1089 28.492 56.1089 29.22V33H54.3589V25.524H56.0249V26.49C56.3143 26.1447 56.6783 25.8833 57.1169 25.706C57.5556 25.5287 58.0503 25.44 58.6009 25.44ZM66.2529 33.098C65.6463 33.098 65.0536 33.0187 64.4749 32.86C63.8963 32.7013 63.4343 32.5007 63.0889 32.258L63.7609 30.928C64.0969 31.152 64.4983 31.334 64.9649 31.474C65.4409 31.6047 65.9076 31.67 66.3649 31.67C67.4103 31.67 67.9329 31.3947 67.9329 30.844C67.9329 30.5827 67.7976 30.4007 67.5269 30.298C67.2656 30.1953 66.8409 30.0973 66.2529 30.004C65.6369 29.9107 65.1329 29.8033 64.7409 29.682C64.3583 29.5607 64.0223 29.3507 63.7329 29.052C63.4529 28.744 63.3129 28.3193 63.3129 27.778C63.3129 27.0687 63.6069 26.504 64.1949 26.084C64.7923 25.6547 65.5949 25.44 66.6029 25.44C67.1163 25.44 67.6296 25.5007 68.1429 25.622C68.6563 25.734 69.0763 25.888 69.4029 26.084L68.7309 27.414C68.0963 27.0407 67.3823 26.854 66.5889 26.854C66.0756 26.854 65.6836 26.9333 65.4129 27.092C65.1516 27.2413 65.0209 27.442 65.0209 27.694C65.0209 27.974 65.1609 28.1747 65.4409 28.296C65.7303 28.408 66.1736 28.5153 66.7709 28.618C67.3683 28.7113 67.8583 28.8187 68.2409 28.94C68.6236 29.0613 68.9503 29.2667 69.2209 29.556C69.5009 29.8453 69.6409 30.256 69.6409 30.788C69.6409 31.488 69.3376 32.048 68.7309 32.468C68.1243 32.888 67.2983 33.098 66.2529 33.098Z" fill="#CBCFD4" fill-opacity="0.8"/>
</svg>
