<svg width="75" height="39" viewBox="0 0 75 39" fill="none" xmlns="http://www.w3.org/2000/svg">
<path fill-rule="evenodd" clip-rule="evenodd" d="M35.3125 0.625C35.6577 0.625 35.9375 0.904822 35.9375 1.25V1.875H39.0625V1.25C39.0625 0.904822 39.3423 0.625 39.6875 0.625C40.0327 0.625 40.3125 0.904822 40.3125 1.25V1.875H43.75C44.0952 1.875 44.375 2.15482 44.375 2.5V13.75C44.375 14.0952 44.0952 14.375 43.75 14.375H31.25C30.9048 14.375 30.625 14.0952 30.625 13.75V2.5C30.625 2.15482 30.9048 1.875 31.25 1.875H34.6875V1.25C34.6875 0.904822 34.9673 0.625 35.3125 0.625ZM34.6875 3.125H31.875V13.125H43.125V3.125H40.3125V3.75C40.3125 4.09518 40.0327 4.375 39.6875 4.375C39.3423 4.375 39.0625 4.09518 39.0625 3.75V3.125H35.9375V3.75C35.9375 4.09518 35.6577 4.375 35.3125 4.375C34.9673 4.375 34.6875 4.09518 34.6875 3.75V3.125ZM33.125 6.25C33.125 5.90482 33.4048 5.625 33.75 5.625H36.25C36.5952 5.625 36.875 5.90482 36.875 6.25V10.625C36.875 10.9702 36.5952 11.25 36.25 11.25H33.75C33.4048 11.25 33.125 10.9702 33.125 10.625C33.125 10.2798 33.4048 10 33.75 10H35.625V9.0625H34.375C34.0298 9.0625 33.75 8.78268 33.75 8.4375C33.75 8.09232 34.0298 7.8125 34.375 7.8125H35.625V6.875H33.75C33.4048 6.875 33.125 6.59518 33.125 6.25ZM38.125 6.25C38.125 5.90482 38.4048 5.625 38.75 5.625H41.25C41.5952 5.625 41.875 5.90482 41.875 6.25V10.625C41.875 10.9702 41.5952 11.25 41.25 11.25H38.75C38.4048 11.25 38.125 10.9702 38.125 10.625V6.25ZM39.375 6.875V10H40.625V6.875H39.375Z" fill="#F2F2F2"/>
<path d="M7.03995 25.246C7.94529 25.358 8.63595 25.666 9.11195 26.17C9.58795 26.674 9.82595 27.304 9.82595 28.06C9.82595 28.6293 9.68129 29.1473 9.39195 29.614C9.10262 30.0807 8.66395 30.454 8.07595 30.734C7.49729 31.0047 6.78795 31.14 5.94795 31.14C5.24795 31.14 4.57129 31.042 3.91795 30.846C3.27395 30.6407 2.72329 30.3607 2.26595 30.006L3.04995 28.592C3.40462 28.8907 3.83395 29.1287 4.33795 29.306C4.85129 29.474 5.37862 29.558 5.91995 29.558C6.56395 29.558 7.06795 29.4273 7.43195 29.166C7.80529 28.8953 7.99195 28.5313 7.99195 28.074C7.99195 27.6167 7.81462 27.262 7.45995 27.01C7.11462 26.7487 6.58262 26.618 5.86395 26.618H4.96795V25.372L7.19395 22.726H2.74195V21.2H9.41995V22.418L7.03995 25.246ZM15.1044 31.14C14.3204 31.14 13.6204 30.944 13.0044 30.552C12.3884 30.1507 11.9031 29.572 11.5484 28.816C11.1937 28.0507 11.0164 27.1453 11.0164 26.1C11.0164 25.0547 11.1937 24.154 11.5484 23.398C11.9031 22.6327 12.3884 22.054 13.0044 21.662C13.6204 21.2607 14.3204 21.06 15.1044 21.06C15.8884 21.06 16.5884 21.2607 17.2044 21.662C17.8297 22.054 18.3197 22.6327 18.6744 23.398C19.0291 24.154 19.2064 25.0547 19.2064 26.1C19.2064 27.1453 19.0291 28.0507 18.6744 28.816C18.3197 29.572 17.8297 30.1507 17.2044 30.552C16.5884 30.944 15.8884 31.14 15.1044 31.14ZM15.1044 29.558C15.8044 29.558 16.3551 29.2687 16.7564 28.69C17.1671 28.1113 17.3724 27.248 17.3724 26.1C17.3724 24.952 17.1671 24.0887 16.7564 23.51C16.3551 22.9313 15.8044 22.642 15.1044 22.642C14.4137 22.642 13.8631 22.9313 13.4524 23.51C13.0511 24.0887 12.8504 24.952 12.8504 26.1C12.8504 27.248 13.0511 28.1113 13.4524 28.69C13.8631 29.2687 14.4137 29.558 15.1044 29.558ZM21.3643 31.098C21.0469 31.098 20.7763 30.9907 20.5523 30.776C20.3283 30.552 20.2163 30.272 20.2163 29.936C20.2163 29.5907 20.3236 29.3107 20.5383 29.096C20.7623 28.8813 21.0376 28.774 21.3643 28.774C21.6909 28.774 21.9616 28.8813 22.1763 29.096C22.4003 29.3107 22.5123 29.5907 22.5123 29.936C22.5123 30.272 22.4003 30.552 22.1763 30.776C21.9523 30.9907 21.6816 31.098 21.3643 31.098ZM27.6142 31.14C26.8302 31.14 26.1302 30.944 25.5142 30.552C24.8982 30.1507 24.4128 29.572 24.0582 28.816C23.7035 28.0507 23.5262 27.1453 23.5262 26.1C23.5262 25.0547 23.7035 24.154 24.0582 23.398C24.4128 22.6327 24.8982 22.054 25.5142 21.662C26.1302 21.2607 26.8302 21.06 27.6142 21.06C28.3982 21.06 29.0982 21.2607 29.7142 21.662C30.3395 22.054 30.8295 22.6327 31.1842 23.398C31.5388 24.154 31.7162 25.0547 31.7162 26.1C31.7162 27.1453 31.5388 28.0507 31.1842 28.816C30.8295 29.572 30.3395 30.1507 29.7142 30.552C29.0982 30.944 28.3982 31.14 27.6142 31.14ZM27.6142 29.558C28.3142 29.558 28.8648 29.2687 29.2662 28.69C29.6768 28.1113 29.8822 27.248 29.8822 26.1C29.8822 24.952 29.6768 24.0887 29.2662 23.51C28.8648 22.9313 28.3142 22.642 27.6142 22.642C26.9235 22.642 26.3728 22.9313 25.9622 23.51C25.5608 24.0887 25.3602 24.952 25.3602 26.1C25.3602 27.248 25.5608 28.1113 25.9622 28.69C26.3728 29.2687 26.9235 29.558 27.6142 29.558ZM36.0121 24.994C37.3934 24.994 38.4154 25.2647 39.0781 25.806C39.7407 26.338 40.0721 27.066 40.0721 27.99C40.0721 28.578 39.9274 29.11 39.6381 29.586C39.3487 30.062 38.9147 30.44 38.3361 30.72C37.7574 31 37.0434 31.14 36.1941 31.14C35.4941 31.14 34.8174 31.042 34.1641 30.846C33.5107 30.6407 32.9601 30.3607 32.5121 30.006L33.2821 28.592C33.6461 28.8907 34.0801 29.1287 34.5841 29.306C35.0974 29.474 35.6247 29.558 36.1661 29.558C36.8101 29.558 37.3141 29.4273 37.6781 29.166C38.0514 28.8953 38.2381 28.5267 38.2381 28.06C38.2381 27.556 38.0374 27.178 37.6361 26.926C37.2441 26.6647 36.5674 26.534 35.6061 26.534H33.2401L33.7441 21.2H39.4981V22.726H35.2841L35.0741 24.994H36.0121ZM42.2139 31.098C41.8965 31.098 41.6259 30.9907 41.4019 30.776C41.1779 30.552 41.0659 30.272 41.0659 29.936C41.0659 29.5907 41.1732 29.3107 41.3879 29.096C41.6119 28.8813 41.8872 28.774 42.2139 28.774C42.5405 28.774 42.8112 28.8813 43.0259 29.096C43.2499 29.3107 43.3619 29.5907 43.3619 29.936C43.3619 30.272 43.2499 30.552 43.0259 30.776C42.8019 30.9907 42.5312 31.098 42.2139 31.098ZM51.7745 29.46V31H44.5505V29.782L48.4425 26.086C48.8812 25.666 49.1752 25.302 49.3245 24.994C49.4832 24.6767 49.5625 24.364 49.5625 24.056C49.5625 23.5987 49.4085 23.2487 49.1005 23.006C48.7925 22.7633 48.3399 22.642 47.7425 22.642C46.7439 22.642 45.9785 22.9827 45.4465 23.664L44.1725 22.684C44.5552 22.1707 45.0685 21.774 45.7125 21.494C46.3659 21.2047 47.0939 21.06 47.8965 21.06C48.9605 21.06 49.8099 21.312 50.4445 21.816C51.0792 22.32 51.3965 23.006 51.3965 23.874C51.3965 24.406 51.2845 24.9053 51.0605 25.372C50.8365 25.8387 50.4072 26.3707 49.7725 26.968L47.1545 29.46H51.7745ZM56.872 31.14C56.088 31.14 55.388 30.944 54.772 30.552C54.156 30.1507 53.6706 29.572 53.316 28.816C52.9613 28.0507 52.784 27.1453 52.784 26.1C52.784 25.0547 52.9613 24.154 53.316 23.398C53.6706 22.6327 54.156 22.054 54.772 21.662C55.388 21.2607 56.088 21.06 56.872 21.06C57.656 21.06 58.356 21.2607 58.972 21.662C59.5973 22.054 60.0873 22.6327 60.442 23.398C60.7966 24.154 60.974 25.0547 60.974 26.1C60.974 27.1453 60.7966 28.0507 60.442 28.816C60.0873 29.572 59.5973 30.1507 58.972 30.552C58.356 30.944 57.656 31.14 56.872 31.14ZM56.872 29.558C57.572 29.558 58.1226 29.2687 58.524 28.69C58.9346 28.1113 59.14 27.248 59.14 26.1C59.14 24.952 58.9346 24.0887 58.524 23.51C58.1226 22.9313 57.572 22.642 56.872 22.642C56.1813 22.642 55.6306 22.9313 55.22 23.51C54.8186 24.0887 54.618 24.952 54.618 26.1C54.618 27.248 54.8186 28.1113 55.22 28.69C55.6306 29.2687 56.1813 29.558 56.872 29.558ZM69.2335 29.46V31H62.0095V29.782L65.9015 26.086C66.3402 25.666 66.6342 25.302 66.7835 24.994C66.9422 24.6767 67.0215 24.364 67.0215 24.056C67.0215 23.5987 66.8675 23.2487 66.5595 23.006C66.2515 22.7633 65.7989 22.642 65.2015 22.642C64.2029 22.642 63.4375 22.9827 62.9055 23.664L61.6315 22.684C62.0142 22.1707 62.5275 21.774 63.1715 21.494C63.8249 21.2047 64.5529 21.06 65.3555 21.06C66.4195 21.06 67.2689 21.312 67.9035 21.816C68.5382 22.32 68.8555 23.006 68.8555 23.874C68.8555 24.406 68.7435 24.9053 68.5195 25.372C68.2955 25.8387 67.8662 26.3707 67.2315 26.968L64.6135 29.46H69.2335ZM73.672 21.2V31H71.852V22.726H69.78V21.2H73.672Z" fill="#CBCFD4" fill-opacity="0.8"/>
</svg>
