<svg width="40" height="30" viewBox="0 0 40 30" fill="none" xmlns="http://www.w3.org/2000/svg">
<path fill-rule="evenodd" clip-rule="evenodd" d="M20.9375 0.25C20.6905 0.25 20.4667 0.395458 20.3664 0.621163L18.3091 5.25006H17.1906C16.1771 5.23546 15.3806 6.05497 15.2557 6.9786C15.2519 7.00637 15.25 7.03435 15.25 7.06237V10.9999C15.25 11.0279 15.2519 11.0559 15.2557 11.0837C15.3862 12.0489 16.2173 12.7641 17.1906 12.7499L25.2207 12.75C26.0916 12.7579 26.836 12.1239 26.9667 11.2625L27.7429 6.20004C27.82 5.69238 27.6702 5.17656 27.3333 4.78912C26.9973 4.40266 26.5088 4.18283 25.9968 4.1875H23.25V2.5625C23.25 1.28534 22.2147 0.25 20.9375 0.25ZM21.3133 1.56837L19.3125 6.07013V11.5L25.2308 11.5C25.4801 11.5029 25.6934 11.3216 25.7308 11.075L25.731 11.074L26.5071 6.01246C26.5291 5.86743 26.4863 5.72006 26.39 5.60932C26.2938 5.49864 26.1538 5.43579 26.0071 5.43746L26 5.4375H22.625C22.2798 5.4375 22 5.15768 22 4.8125V2.5625C22 2.108 21.7146 1.72016 21.3133 1.56837ZM17.1857 11.4999L18.0625 11.4999V6.50006H17.1856L17.1746 6.49996C16.8825 6.4948 16.5663 6.74869 16.5 7.11071V10.951C16.5605 11.2721 16.8444 11.5058 17.1746 11.5L17.1857 11.4999ZM7.81719 26.774H9.55319V25.234H7.81719V23.26H6.10919V25.234H2.90319L7.45319 19.2H5.50718L0.677185 25.514V26.774H6.05318V29H7.81719V26.774ZM12.1004 18.836C11.8858 18.6213 11.6151 18.514 11.2884 18.514C10.9618 18.514 10.6911 18.6213 10.4764 18.836C10.2618 19.0507 10.1544 19.326 10.1544 19.662C10.1544 19.914 10.2104 20.1333 10.3224 20.32C10.4438 20.4973 10.6071 20.6233 10.8124 20.698L10.2524 22.854H11.3864L12.1144 20.866C12.2358 20.5487 12.3151 20.3107 12.3524 20.152C12.3991 19.9933 12.4224 19.83 12.4224 19.662C12.4224 19.326 12.3151 19.0507 12.1004 18.836ZM19.7324 23.806C19.0697 23.2647 18.0477 22.994 16.6664 22.994H15.7284L15.9384 20.726H20.1524V19.2H14.3984L13.8944 24.534H16.2604C17.2217 24.534 17.8984 24.6647 18.2904 24.926C18.6917 25.178 18.8924 25.556 18.8924 26.06C18.8924 26.5267 18.7057 26.8953 18.3324 27.166C17.9684 27.4273 17.4644 27.558 16.8204 27.558C16.2791 27.558 15.7517 27.474 15.2384 27.306C14.7344 27.1287 14.3004 26.8907 13.9364 26.592L13.1664 28.006C13.6144 28.3607 14.1651 28.6407 14.8184 28.846C15.4717 29.042 16.1484 29.14 16.8484 29.14C17.6977 29.14 18.4117 29 18.9904 28.72C19.5691 28.44 20.0031 28.062 20.2924 27.586C20.5817 27.11 20.7264 26.578 20.7264 25.99C20.7264 25.066 20.3951 24.338 19.7324 23.806ZM23.7642 28.552C24.3802 28.944 25.0802 29.14 25.8642 29.14C26.6482 29.14 27.3482 28.944 27.9642 28.552C28.5895 28.1507 29.0795 27.572 29.4342 26.816C29.7888 26.0507 29.9662 25.1453 29.9662 24.1C29.9662 23.0547 29.7888 22.154 29.4342 21.398C29.0795 20.6327 28.5895 20.054 27.9642 19.662C27.3482 19.2607 26.6482 19.06 25.8642 19.06C25.0802 19.06 24.3802 19.2607 23.7642 19.662C23.1482 20.054 22.6628 20.6327 22.3082 21.398C21.9535 22.154 21.7762 23.0547 21.7762 24.1C21.7762 25.1453 21.9535 26.0507 22.3082 26.816C22.6628 27.572 23.1482 28.1507 23.7642 28.552ZM27.5162 26.69C27.1148 27.2687 26.5642 27.558 25.8642 27.558C25.1735 27.558 24.6228 27.2687 24.2122 26.69C23.8108 26.1113 23.6102 25.248 23.6102 24.1C23.6102 22.952 23.8108 22.0887 24.2122 21.51C24.6228 20.9313 25.1735 20.642 25.8642 20.642C26.5642 20.642 27.1148 20.9313 27.5162 21.51C27.9268 22.0887 28.1322 22.952 28.1322 24.1C28.1322 25.248 27.9268 26.1113 27.5162 26.69ZM33.1841 28.552C33.8001 28.944 34.5001 29.14 35.2841 29.14C36.0681 29.14 36.7681 28.944 37.3841 28.552C38.0094 28.1507 38.4994 27.572 38.8541 26.816C39.2088 26.0507 39.3861 25.1453 39.3861 24.1C39.3861 23.0547 39.2088 22.154 38.8541 21.398C38.4994 20.6327 38.0094 20.054 37.3841 19.662C36.7681 19.2607 36.0681 19.06 35.2841 19.06C34.5001 19.06 33.8001 19.2607 33.1841 19.662C32.5681 20.054 32.0828 20.6327 31.7281 21.398C31.3734 22.154 31.1961 23.0547 31.1961 24.1C31.1961 25.1453 31.3734 26.0507 31.7281 26.816C32.0828 27.572 32.5681 28.1507 33.1841 28.552ZM36.9361 26.69C36.5348 27.2687 35.9841 27.558 35.2841 27.558C34.5934 27.558 34.0428 27.2687 33.6321 26.69C33.2308 26.1113 33.0301 25.248 33.0301 24.1C33.0301 22.952 33.2308 22.0887 33.6321 21.51C34.0428 20.9313 34.5934 20.642 35.2841 20.642C35.9841 20.642 36.5348 20.9313 36.9361 21.51C37.3468 22.0887 37.5521 22.952 37.5521 24.1C37.5521 25.248 37.3468 26.1113 36.9361 26.69Z" fill="#F2F2F2"/>
</svg>
