<svg width="263" height="217" viewBox="0 0 263 217" fill="none" xmlns="http://www.w3.org/2000/svg">
<path d="M116.013 213.233H119.382V214H115.07V206.891H116.013V213.233ZM125.598 210.675C125.598 211.371 125.48 211.98 125.246 212.501C125.012 213.019 124.68 213.414 124.25 213.688C123.82 213.961 123.319 214.098 122.746 214.098C122.186 214.098 121.69 213.961 121.257 213.688C120.824 213.411 120.487 213.019 120.246 212.511C120.008 212 119.886 211.409 119.88 210.738V210.226C119.88 209.542 119.999 208.938 120.236 208.414C120.474 207.89 120.809 207.49 121.242 207.213C121.678 206.933 122.176 206.793 122.736 206.793C123.306 206.793 123.807 206.931 124.24 207.208C124.676 207.481 125.012 207.88 125.246 208.404C125.48 208.925 125.598 209.532 125.598 210.226V210.675ZM124.665 210.216C124.665 209.373 124.496 208.727 124.157 208.277C123.819 207.825 123.345 207.599 122.736 207.599C122.144 207.599 121.677 207.825 121.335 208.277C120.996 208.727 120.822 209.352 120.812 210.152V210.675C120.812 211.492 120.983 212.135 121.325 212.604C121.67 213.069 122.144 213.302 122.746 213.302C123.352 213.302 123.82 213.082 124.152 212.643C124.484 212.2 124.655 211.567 124.665 210.743V210.216ZM129.611 211.124H127.941V214H126.999V206.891H129.353C130.153 206.891 130.769 207.073 131.198 207.438C131.631 207.802 131.848 208.333 131.848 209.029C131.848 209.472 131.727 209.858 131.486 210.187C131.249 210.515 130.917 210.761 130.49 210.924L132.16 213.941V214H131.154L129.611 211.124ZM127.941 210.357H129.382C129.847 210.357 130.217 210.237 130.49 209.996C130.767 209.755 130.905 209.433 130.905 209.029C130.905 208.59 130.773 208.253 130.51 208.019C130.249 207.784 129.872 207.665 129.377 207.662H127.941V210.357ZM137.185 210.714H134.104V213.233H137.683V214H133.166V206.891H137.634V207.662H134.104V209.947H137.185V210.714ZM140.061 206.891L142.385 212.691L144.709 206.891H145.925V214H144.987V211.231L145.075 208.243L142.741 214H142.023L139.694 208.258L139.787 211.231V214H138.85V206.891H140.061Z" fill="white" fill-opacity="0.8"/>
<path d="M107.93 5.71387H104.849V8.2334H108.428V9H103.911V1.89062H108.379V2.66211H104.849V4.94727H107.93V5.71387ZM109.595 9V1.89062H111.602C112.22 1.89062 112.767 2.02734 113.242 2.30078C113.717 2.57422 114.084 2.96322 114.341 3.46777C114.601 3.97233 114.733 4.55176 114.736 5.20605V5.66016C114.736 6.33073 114.606 6.91829 114.346 7.42285C114.089 7.92741 113.719 8.31478 113.237 8.58496C112.759 8.85514 112.201 8.99349 111.562 9H109.595ZM110.532 2.66211V8.2334H111.519C112.241 8.2334 112.803 8.00879 113.203 7.55957C113.607 7.11035 113.809 6.4707 113.809 5.64062V5.22559C113.809 4.41829 113.618 3.79167 113.237 3.3457C112.86 2.89648 112.323 2.66862 111.626 2.66211H110.532ZM121.162 1.89062V6.72461C121.159 7.39518 120.947 7.94368 120.527 8.37012C120.111 8.79655 119.544 9.03581 118.828 9.08789L118.579 9.09766C117.801 9.09766 117.181 8.8877 116.719 8.46777C116.257 8.04785 116.022 7.47005 116.016 6.73438V1.89062H116.943V6.70508C116.943 7.2194 117.085 7.61979 117.368 7.90625C117.651 8.18945 118.055 8.33105 118.579 8.33105C119.11 8.33105 119.515 8.18945 119.795 7.90625C120.078 7.62305 120.22 7.22428 120.22 6.70996V1.89062H121.162ZM127.871 6.74414C127.783 7.49609 127.505 8.07715 127.036 8.4873C126.571 8.89421 125.951 9.09766 125.176 9.09766C124.336 9.09766 123.662 8.79655 123.154 8.19434C122.65 7.59212 122.397 6.78646 122.397 5.77734V5.09375C122.397 4.43294 122.515 3.85189 122.749 3.35059C122.987 2.84928 123.322 2.46517 123.755 2.19824C124.188 1.92806 124.689 1.79297 125.259 1.79297C126.014 1.79297 126.619 2.00456 127.075 2.42773C127.531 2.84766 127.796 3.43034 127.871 4.17578H126.929C126.847 3.60938 126.67 3.19922 126.396 2.94531C126.126 2.69141 125.747 2.56445 125.259 2.56445C124.66 2.56445 124.189 2.78581 123.848 3.22852C123.509 3.67122 123.34 4.30111 123.34 5.11816V5.80664C123.34 6.57812 123.501 7.19173 123.823 7.64746C124.146 8.10319 124.596 8.33105 125.176 8.33105C125.697 8.33105 126.095 8.21387 126.372 7.97949C126.652 7.74186 126.838 7.33008 126.929 6.74414H127.871ZM133.081 7.14453H130.103L129.434 9H128.467L131.182 1.89062H132.002L134.722 9H133.76L133.081 7.14453ZM130.386 6.37305H132.803L131.592 3.04785L130.386 6.37305ZM139.956 2.66211H137.671V9H136.738V2.66211H134.458V1.89062H139.956V2.66211ZM142.017 9H141.079V1.89062H142.017V9ZM149.204 5.6748C149.204 6.37142 149.087 6.98014 148.853 7.50098C148.618 8.01855 148.286 8.41406 147.856 8.6875C147.427 8.96094 146.925 9.09766 146.353 9.09766C145.793 9.09766 145.296 8.96094 144.863 8.6875C144.43 8.41081 144.093 8.01855 143.853 7.51074C143.615 6.99967 143.493 6.40885 143.486 5.73828V5.22559C143.486 4.54199 143.605 3.93815 143.843 3.41406C144.08 2.88997 144.416 2.48958 144.849 2.21289C145.285 1.93294 145.783 1.79297 146.343 1.79297C146.912 1.79297 147.414 1.93132 147.847 2.20801C148.283 2.48145 148.618 2.88021 148.853 3.4043C149.087 3.92513 149.204 4.53223 149.204 5.22559V5.6748ZM148.271 5.21582C148.271 4.37272 148.102 3.72656 147.764 3.27734C147.425 2.82487 146.951 2.59863 146.343 2.59863C145.75 2.59863 145.283 2.82487 144.941 3.27734C144.603 3.72656 144.429 4.35156 144.419 5.15234V5.6748C144.419 6.49186 144.59 7.13477 144.932 7.60352C145.277 8.06901 145.75 8.30176 146.353 8.30176C146.958 8.30176 147.427 8.08203 147.759 7.64258C148.091 7.19987 148.262 6.56673 148.271 5.74316V5.21582ZM156.074 9H155.132L151.553 3.52148V9H150.61V1.89062H151.553L155.142 7.39355V1.89062H156.074V9Z" fill="white" fill-opacity="0.8"/>
<path d="M214.763 56.2168V59H213.825V51.8906H216.447C217.225 51.8906 217.834 52.0892 218.273 52.4863C218.716 52.8835 218.938 53.4092 218.938 54.0635C218.938 54.7536 218.721 55.2858 218.288 55.6602C217.858 56.0312 217.242 56.2168 216.438 56.2168H214.763ZM214.763 55.4502H216.447C216.949 55.4502 217.333 55.333 217.6 55.0986C217.867 54.861 218 54.5192 218 54.0732C218 53.6501 217.867 53.3115 217.6 53.0576C217.333 52.8037 216.966 52.6719 216.501 52.6621H214.763V55.4502ZM223.386 57.1445H220.407L219.738 59H218.771L221.486 51.8906H222.307L225.026 59H224.064L223.386 57.1445ZM220.69 56.373H223.107L221.896 53.0479L220.69 56.373ZM228.591 56.124H226.921V59H225.979V51.8906H228.332C229.133 51.8906 229.748 52.0729 230.178 52.4375C230.611 52.8021 230.827 53.3327 230.827 54.0293C230.827 54.472 230.707 54.8577 230.466 55.1865C230.228 55.5153 229.896 55.7611 229.47 55.9238L231.14 58.9414V59H230.134L228.591 56.124ZM226.921 55.3574H228.361C228.827 55.3574 229.196 55.237 229.47 54.9961C229.746 54.7552 229.885 54.4329 229.885 54.0293C229.885 53.5898 229.753 53.2529 229.489 53.0186C229.229 52.7842 228.851 52.6654 228.356 52.6621H226.921V55.3574ZM236.667 52.6621H234.382V59H233.449V52.6621H231.169V51.8906H236.667V52.6621ZM239.968 55.46L241.823 51.8906H242.888L240.437 56.3486V59H239.499V56.3486L237.048 51.8906H238.122L239.968 55.46ZM245.822 55.8311C245.018 55.5999 244.432 55.3167 244.064 54.9814C243.7 54.6429 243.518 54.2262 243.518 53.7314C243.518 53.1715 243.741 52.7093 244.187 52.3447C244.636 51.9769 245.218 51.793 245.935 51.793C246.423 51.793 246.857 51.8874 247.238 52.0762C247.622 52.265 247.919 52.5254 248.127 52.8574C248.339 53.1895 248.444 53.5524 248.444 53.9463H247.502C247.502 53.5166 247.365 53.1797 247.092 52.9355C246.818 52.6882 246.433 52.5645 245.935 52.5645C245.472 52.5645 245.111 52.667 244.851 52.8721C244.593 53.0739 244.465 53.3555 244.465 53.7168C244.465 54.0065 244.587 54.2523 244.831 54.4541C245.078 54.6527 245.497 54.835 246.086 55.001C246.678 55.167 247.141 55.3509 247.473 55.5527C247.808 55.7513 248.055 55.984 248.215 56.251C248.378 56.5179 248.459 56.832 248.459 57.1934C248.459 57.7695 248.234 58.2318 247.785 58.5801C247.336 58.9251 246.735 59.0977 245.983 59.0977C245.495 59.0977 245.039 59.0049 244.616 58.8193C244.193 58.6305 243.866 58.3734 243.635 58.0479C243.407 57.7223 243.293 57.3529 243.293 56.9395H244.235C244.235 57.3691 244.393 57.7093 244.709 57.96C245.028 58.2074 245.453 58.3311 245.983 58.3311C246.478 58.3311 246.857 58.2301 247.121 58.0283C247.385 57.8265 247.517 57.5514 247.517 57.2031C247.517 56.8548 247.395 56.5863 247.15 56.3975C246.906 56.2054 246.464 56.0166 245.822 55.8311Z" fill="white" fill-opacity="0.8"/>
<path d="M5.50977 55.8311C4.70573 55.5999 4.11979 55.3167 3.75195 54.9814C3.38737 54.6429 3.20508 54.2262 3.20508 53.7314C3.20508 53.1715 3.42806 52.7093 3.87402 52.3447C4.32324 51.9769 4.90592 51.793 5.62207 51.793C6.11035 51.793 6.54492 51.8874 6.92578 52.0762C7.3099 52.265 7.60612 52.5254 7.81445 52.8574C8.02604 53.1895 8.13184 53.5524 8.13184 53.9463H7.18945C7.18945 53.5166 7.05273 53.1797 6.7793 52.9355C6.50586 52.6882 6.12012 52.5645 5.62207 52.5645C5.15983 52.5645 4.7985 52.667 4.53809 52.8721C4.28092 53.0739 4.15234 53.3555 4.15234 53.7168C4.15234 54.0065 4.27441 54.2523 4.51855 54.4541C4.76595 54.6527 5.18424 54.835 5.77344 55.001C6.36589 55.167 6.82812 55.3509 7.16016 55.5527C7.49544 55.7513 7.74284 55.984 7.90234 56.251C8.0651 56.5179 8.14648 56.832 8.14648 57.1934C8.14648 57.7695 7.92188 58.2318 7.47266 58.5801C7.02344 58.9251 6.42285 59.0977 5.6709 59.0977C5.18262 59.0977 4.72689 59.0049 4.30371 58.8193C3.88053 58.6305 3.55339 58.3734 3.32227 58.0479C3.0944 57.7223 2.98047 57.3529 2.98047 56.9395H3.92285C3.92285 57.3691 4.08073 57.7093 4.39648 57.96C4.71549 58.2074 5.1403 58.3311 5.6709 58.3311C6.16569 58.3311 6.54492 58.2301 6.80859 58.0283C7.07227 57.8265 7.2041 57.5514 7.2041 57.2031C7.2041 56.8548 7.08203 56.5863 6.83789 56.3975C6.59375 56.2054 6.15104 56.0166 5.50977 55.8311ZM13.3711 55.7139H10.29V58.2334H13.8691V59H9.35254V51.8906H13.8203V52.6621H10.29V54.9473H13.3711V55.7139ZM20.2656 56.7441C20.1777 57.4961 19.8994 58.0771 19.4307 58.4873C18.9652 58.8942 18.3451 59.0977 17.5703 59.0977C16.7305 59.0977 16.0566 58.7965 15.5488 58.1943C15.0443 57.5921 14.792 56.7865 14.792 55.7773V55.0938C14.792 54.4329 14.9092 53.8519 15.1436 53.3506C15.3812 52.8493 15.7165 52.4652 16.1494 52.1982C16.5824 51.9281 17.0837 51.793 17.6533 51.793C18.4085 51.793 19.014 52.0046 19.4697 52.4277C19.9255 52.8477 20.1908 53.4303 20.2656 54.1758H19.3232C19.2419 53.6094 19.0645 53.1992 18.791 52.9453C18.5208 52.6914 18.1416 52.5645 17.6533 52.5645C17.0544 52.5645 16.584 52.7858 16.2422 53.2285C15.9036 53.6712 15.7344 54.3011 15.7344 55.1182V55.8066C15.7344 56.5781 15.8955 57.1917 16.2178 57.6475C16.54 58.1032 16.9909 58.3311 17.5703 58.3311C18.0911 58.3311 18.4899 58.2139 18.7666 57.9795C19.0465 57.7419 19.2321 57.3301 19.3232 56.7441H20.2656ZM26.5547 51.8906V56.7246C26.5514 57.3952 26.3398 57.9437 25.9199 58.3701C25.5033 58.7965 24.9368 59.0358 24.2207 59.0879L23.9717 59.0977C23.1937 59.0977 22.5736 58.8877 22.1113 58.4678C21.6491 58.0479 21.4147 57.4701 21.4082 56.7344V51.8906H22.3359V56.7051C22.3359 57.2194 22.4775 57.6198 22.7607 57.9062C23.0439 58.1895 23.4476 58.3311 23.9717 58.3311C24.5023 58.3311 24.9076 58.1895 25.1875 57.9062C25.4707 57.623 25.6123 57.2243 25.6123 56.71V51.8906H26.5547ZM30.6416 56.124H28.9717V59H28.0293V51.8906H30.3828C31.1836 51.8906 31.7988 52.0729 32.2285 52.4375C32.6615 52.8021 32.8779 53.3327 32.8779 54.0293C32.8779 54.472 32.7575 54.8577 32.5166 55.1865C32.279 55.5153 31.9469 55.7611 31.5205 55.9238L33.1904 58.9414V59H32.1846L30.6416 56.124ZM28.9717 55.3574H30.4121C30.8776 55.3574 31.2471 55.237 31.5205 54.9961C31.7972 54.7552 31.9355 54.4329 31.9355 54.0293C31.9355 53.5898 31.8037 53.2529 31.54 53.0186C31.2796 52.7842 30.902 52.6654 30.4072 52.6621H28.9717V55.3574ZM35.2021 59H34.2646V51.8906H35.2021V59ZM41.6865 52.6621H39.4014V59H38.4688V52.6621H36.1885V51.8906H41.6865V52.6621ZM44.9873 55.46L46.8428 51.8906H47.9072L45.4561 56.3486V59H44.5186V56.3486L42.0674 51.8906H43.1416L44.9873 55.46Z" fill="white" fill-opacity="0.8"/>
<path d="M213.825 164V156.891H216.149C216.921 156.891 217.5 157.05 217.888 157.369C218.278 157.688 218.474 158.16 218.474 158.785C218.474 159.117 218.379 159.412 218.19 159.669C218.002 159.923 217.744 160.12 217.419 160.26C217.803 160.367 218.106 160.572 218.327 160.875C218.552 161.174 218.664 161.533 218.664 161.949C218.664 162.587 218.457 163.089 218.044 163.453C217.631 163.818 217.046 164 216.291 164H213.825ZM214.763 160.675V163.233H216.311C216.747 163.233 217.09 163.121 217.341 162.896C217.595 162.669 217.722 162.356 217.722 161.959C217.722 161.103 217.256 160.675 216.325 160.675H214.763ZM214.763 159.923H216.179C216.589 159.923 216.916 159.82 217.16 159.615C217.408 159.41 217.531 159.132 217.531 158.78C217.531 158.39 217.417 158.106 217.189 157.931C216.962 157.752 216.615 157.662 216.149 157.662H214.763V159.923ZM225.061 156.891V161.725C225.057 162.395 224.846 162.944 224.426 163.37C224.009 163.797 223.443 164.036 222.727 164.088L222.478 164.098C221.7 164.098 221.079 163.888 220.617 163.468C220.155 163.048 219.921 162.47 219.914 161.734V156.891H220.842V161.705C220.842 162.219 220.983 162.62 221.267 162.906C221.55 163.189 221.953 163.331 222.478 163.331C223.008 163.331 223.413 163.189 223.693 162.906C223.977 162.623 224.118 162.224 224.118 161.71V156.891H225.061ZM227.546 164H226.608V156.891H227.546V164ZM230.207 163.233H233.576V164H229.265V156.891H230.207V163.233ZM234.646 164V156.891H236.652C237.271 156.891 237.818 157.027 238.293 157.301C238.768 157.574 239.134 157.963 239.392 158.468C239.652 158.972 239.784 159.552 239.787 160.206V160.66C239.787 161.331 239.657 161.918 239.396 162.423C239.139 162.927 238.77 163.315 238.288 163.585C237.81 163.855 237.251 163.993 236.613 164H234.646ZM235.583 157.662V163.233H236.569C237.292 163.233 237.854 163.009 238.254 162.56C238.658 162.11 238.859 161.471 238.859 160.641V160.226C238.859 159.418 238.669 158.792 238.288 158.346C237.91 157.896 237.373 157.669 236.677 157.662H235.583ZM242.214 164H241.276V156.891H242.214V164ZM249.396 164H248.454L244.875 158.521V164H243.933V156.891H244.875L248.464 162.394V156.891H249.396V164ZM256.311 163.067C256.07 163.412 255.733 163.671 255.3 163.844C254.87 164.013 254.369 164.098 253.796 164.098C253.216 164.098 252.702 163.963 252.253 163.692C251.804 163.419 251.455 163.032 251.208 162.53C250.964 162.029 250.839 161.448 250.832 160.787V160.167C250.832 159.096 251.081 158.266 251.579 157.677C252.08 157.088 252.784 156.793 253.688 156.793C254.431 156.793 255.028 156.983 255.48 157.364C255.933 157.742 256.21 158.279 256.311 158.976H255.373C255.197 158.035 254.637 157.564 253.693 157.564C253.065 157.564 252.588 157.786 252.263 158.229C251.94 158.668 251.778 159.306 251.774 160.143V160.724C251.774 161.521 251.957 162.156 252.321 162.628C252.686 163.097 253.179 163.331 253.801 163.331C254.152 163.331 254.46 163.292 254.724 163.214C254.987 163.136 255.205 163.004 255.378 162.818V161.222H253.732V160.46H256.311V163.067ZM259.973 160.831C259.169 160.6 258.583 160.317 258.215 159.981C257.85 159.643 257.668 159.226 257.668 158.731C257.668 158.172 257.891 157.709 258.337 157.345C258.786 156.977 259.369 156.793 260.085 156.793C260.573 156.793 261.008 156.887 261.389 157.076C261.773 157.265 262.069 157.525 262.277 157.857C262.489 158.189 262.595 158.552 262.595 158.946H261.652C261.652 158.517 261.516 158.18 261.242 157.936C260.969 157.688 260.583 157.564 260.085 157.564C259.623 157.564 259.261 157.667 259.001 157.872C258.744 158.074 258.615 158.355 258.615 158.717C258.615 159.007 258.737 159.252 258.981 159.454C259.229 159.653 259.647 159.835 260.236 160.001C260.829 160.167 261.291 160.351 261.623 160.553C261.958 160.751 262.206 160.984 262.365 161.251C262.528 161.518 262.609 161.832 262.609 162.193C262.609 162.77 262.385 163.232 261.936 163.58C261.486 163.925 260.886 164.098 260.134 164.098C259.646 164.098 259.19 164.005 258.767 163.819C258.343 163.631 258.016 163.373 257.785 163.048C257.557 162.722 257.443 162.353 257.443 161.939H258.386C258.386 162.369 258.544 162.709 258.859 162.96C259.178 163.207 259.603 163.331 260.134 163.331C260.629 163.331 261.008 163.23 261.271 163.028C261.535 162.826 261.667 162.551 261.667 162.203C261.667 161.855 261.545 161.586 261.301 161.397C261.057 161.205 260.614 161.017 259.973 160.831Z" fill="white" fill-opacity="0.8"/>
<path d="M16.8867 164H15.9443L12.3652 158.521V164H11.4229V156.891H12.3652L15.9541 162.394V156.891H16.8867V164ZM22.5654 162.145H19.5869L18.918 164H17.9512L20.666 156.891H21.4863L24.2061 164H23.2441L22.5654 162.145ZM19.8701 161.373H22.2871L21.0762 158.048L19.8701 161.373ZM29.4404 157.662H27.1553V164H26.2227V157.662H23.9424V156.891H29.4404V157.662ZM35.5 156.891V161.725C35.4967 162.395 35.2852 162.944 34.8652 163.37C34.4486 163.797 33.8822 164.036 33.166 164.088L32.917 164.098C32.139 164.098 31.5189 163.888 31.0566 163.468C30.5944 163.048 30.36 162.47 30.3535 161.734V156.891H31.2812V161.705C31.2812 162.219 31.4229 162.62 31.7061 162.906C31.9893 163.189 32.3929 163.331 32.917 163.331C33.4476 163.331 33.8529 163.189 34.1328 162.906C34.416 162.623 34.5576 162.224 34.5576 161.71V156.891H35.5ZM39.5869 161.124H37.917V164H36.9746V156.891H39.3281C40.1289 156.891 40.7441 157.073 41.1738 157.438C41.6068 157.802 41.8232 158.333 41.8232 159.029C41.8232 159.472 41.7028 159.858 41.4619 160.187C41.2243 160.515 40.8923 160.761 40.4658 160.924L42.1357 163.941V164H41.1299L39.5869 161.124ZM37.917 160.357H39.3574C39.8229 160.357 40.1924 160.237 40.4658 159.996C40.7425 159.755 40.8809 159.433 40.8809 159.029C40.8809 158.59 40.749 158.253 40.4854 158.019C40.2249 157.784 39.8473 157.665 39.3525 157.662H37.917V160.357ZM47.1602 160.714H44.0791V163.233H47.6582V164H43.1416V156.891H47.6094V157.662H44.0791V159.947H47.1602V160.714Z" fill="white" fill-opacity="0.8"/>
<path d="M130 20H131V195H130V20Z" fill="#747D88" fill-opacity="0.8"/>
<path d="M54.4728 64.183L54.9728 63.317L206.527 150.817L206.027 151.683L54.4728 64.183Z" fill="#747D88" fill-opacity="0.8"/>
<path d="M206.027 63.317L206.527 64.183L54.9728 151.683L54.4728 150.817L206.027 63.317Z" fill="#747D88" fill-opacity="0.8"/>
<g filter="url(#filter0_d)">
<path d="M111 96.5L130.5 28.5L177.5 80.5L198.5 146L130.5 181L80 137L111 96.5Z" stroke="url(#paint0_linear)" stroke-width="4"/>
</g>
<defs>
<filter id="filter0_d" x="67.2709" y="24.4882" width="143.651" height="178.911" filterUnits="userSpaceOnUse" color-interpolation-filters="sRGB">
<feFlood flood-opacity="0" result="BackgroundImageFix"/>
<feColorMatrix in="SourceAlpha" type="matrix" values="0 0 0 0 0 0 0 0 0 0 0 0 0 0 0 0 0 0 127 0"/>
<feOffset dy="10"/>
<feGaussianBlur stdDeviation="5"/>
<feColorMatrix type="matrix" values="0 0 0 0 0 0 0 0 0 0 0 0 0 0 0 0 0 0 0.25 0"/>
<feBlend mode="normal" in2="BackgroundImageFix" result="effect1_dropShadow"/>
<feBlend mode="normal" in="SourceGraphic" in2="effect1_dropShadow" result="shape"/>
</filter>
<linearGradient id="paint0_linear" x1="79.9998" y1="57.5002" x2="192.795" y2="158.37" gradientUnits="userSpaceOnUse">
<stop/>
<stop offset="1" stop-color="#E43117"/>
</linearGradient>
</defs>
</svg>
