<svg width="410" height="410" viewBox="0 0 410 410" fill="none" xmlns="http://www.w3.org/2000/svg">
<g filter="url(#filter0_d)">
<path d="M40 16C40 12.6863 42.6863 10 46 10H364C367.314 10 370 12.6863 370 16V334C370 337.314 367.314 340 364 340H46C42.6863 340 40 337.314 40 334V16Z" fill="#3C444D" fill-opacity="0.8"/>
</g>
<g opacity="0.8">
<mask id="mask0" mask-type="alpha" maskUnits="userSpaceOnUse" x="40" y="10" width="330" height="330">
<path d="M40 16C40 12.6863 42.6863 10 46 10H364C367.314 10 370 12.6863 370 16V334C370 337.314 367.314 340 364 340H46C42.6863 340 40 337.314 40 334V16Z" fill="#3C444C"/>
</mask>
<g mask="url(#mask0)">
<path d="M36.6099 -4.69273H385.918V349.731H36.6099" fill="#3C444C"/>
<path d="M245.597 196.195L228.753 222.622L219.04 236.413L199.887 225.204L173.059 213.451L153.023 194.293L156.215 157.675L196.288 153.055L215.577 155.229L225.493 173.776L245.597 196.195Z" fill="#4C5761"/>
<path d="M223.115 -5.64387L212.656 22.4818L124.225 -4.35308C124.225 -4.35308 128.64 -9.17656 129.93 -9.17656C131.221 -9.17656 223.115 -5.64387 223.115 -5.64387Z" fill="#4C5761"/>
<path d="M120.761 1.21773L117.841 8.75866L127.961 12.0875L130.542 4.47867L120.761 1.21773Z" fill="#4C5761"/>
<path d="M149.288 9.8456C149.288 10.525 145.552 21.4627 145.552 21.4627L169.595 27.7129L173.603 17.1148L149.288 9.8456Z" fill="#4C5761"/>
<path d="M268.825 -6.32323C268.825 -6.32323 258.026 35.7973 258.433 35.9332C258.773 36.069 391.147 78.1895 391.147 78.1895L386.461 -3.80958L268.825 -6.32323Z" fill="#4C5761"/>
<path d="M390.672 274.933L304.075 233.084L295.381 207.54C295.381 207.54 296.264 202.309 296.128 201.086C295.993 199.795 296.4 189.741 296.4 189.741L306.384 176.969L306.86 131.112C306.86 131.112 335.114 96.0568 383.676 104.413L390.672 274.933Z" fill="#4C5761"/>
<path d="M244.782 142.593C250.446 142.593 255.038 138.031 255.038 132.403C255.038 126.775 250.446 122.212 244.782 122.212C239.118 122.212 234.526 126.775 234.526 132.403C234.526 138.031 239.118 142.593 244.782 142.593Z" fill="#4C5761"/>
<path d="M34.7759 -4.9645H62.1473C62.1473 -4.9645 42.4507 34.1668 34.7759 35.05V-4.9645Z" fill="#4C5761"/>
<path d="M65.3395 244.09V248.981L107.449 302.379L135.092 253.805L123.682 248.166L65.3395 244.09Z" fill="#4C5761"/>
<path d="M77.2932 155.637L78.4478 144.631L64.9999 103.326L100.25 112.022L112.339 141.778L109.691 160.8L77.2932 155.637Z" fill="#4C5761"/>
<path d="M57.7326 354.351L56.4422 318.616L78.2442 326.7L161.241 346.198L193.163 329.894L231.198 356.66C231.198 356.66 172.04 366.647 141.477 361.552C110.913 356.457 57.7326 354.351 57.7326 354.351Z" fill="#4C5761"/>
<path d="M127.214 27.7129L120.897 55.5667L173.942 65.1458L192.416 41.2322L127.214 27.7129Z" fill="#586570"/>
<path d="M40.6849 30.4303L63.302 43.7458L91.6921 20.3078L59.1589 1.82912L40.6849 30.4303Z" fill="#586570"/>
<path d="M285.262 156.656L275.21 212.432L296.876 202.785L292.461 154.55L285.262 156.656Z" fill="#586570"/>
<path d="M307.946 82.7412V125.745L344.147 105.975L373.488 103.326L384.152 104.277L389.314 79.7521L368.123 88.9914L307.946 82.7412Z" fill="#586570"/>
<path d="M18 148.572C28.6633 150.27 70.7052 154.618 70.7052 154.618L65 250L108.604 303.738L155.061 320.179L165.316 296.944L200.091 289.811L195.948 281.659L210.007 274.593L218.225 264.878L234.526 245.517L268.146 265.082L238.194 340.967L193.163 330.029C193.163 330.029 164.501 345.451 161.241 344.772C157.981 344.092 75.935 325.885 75.935 325.885L52.5708 315.967L56.4422 310.871L25.2673 266.713L18 148.572Z" fill="#586570"/>
<path d="M264.41 272.284L300.543 288.656L365.474 353.671L346.253 352.245L285.873 296.061L258.841 283.425L264.41 272.284Z" fill="#586570"/>
<path d="M391.351 278.534L394 273.167L310.052 231.182L298.574 207.676L299.864 203.056L298.642 189.333L309.78 176.969L310.052 155.161L356.033 131.791L374.915 171.67L375.119 172.145L389.789 181.453L391.623 178.599L377.767 169.768L359.022 130.229L361.195 129.074L387.616 136.139L388.499 132.81L360.856 125.405L310.052 151.221L310.256 131.112C338.782 100.201 383.133 106.111 383.676 106.179L386.597 106.587L387.48 100.676L384.559 100.269C384.084 100.201 372.198 98.5025 356.509 101.084C337.967 104.073 321.87 111.75 309.577 123.367L308.558 86.7495L308.762 86.1381L311.478 87.4289L377.564 92.0486L388.906 75.3362L387.412 74.3172L387.819 72.8905L324.179 54.0042L330.36 37.7675L387.548 53.5966L388.431 50.3357L331.515 34.5745L349.445 -11.894L346.253 -13.1168L320.987 53.0531L293.548 44.9008L319.629 -7.0705L316.572 -8.63303L290.22 43.8817L261.965 35.4576L273.783 -11.4184L268.01 -12.8451L263.256 6.10914L224.202 -3.06226L225.289 -5.98352L222.097 -7.20637L216.188 8.35104H216.052L215.577 9.91358L211.569 20.5116L202.129 17.7262L213.539 -12.7771L210.347 -14L198.869 16.7751L188.069 13.5821L194.861 -11.2146L191.601 -12.0978L184.809 12.631L125.312 -5.03241L126.331 -5.98352L122.392 -10.4673L118.52 -7.0705L113.426 -8.5651L111.728 -2.85845L113.223 -2.38289L90.8773 17.2507L61.4004 1.14979C62.7588 -1.43179 63.5738 -3.19813 63.7096 -3.46987L64.4568 -5.03241L61.4004 -6.45907L60.6533 -4.89654C60.5174 -4.62479 51.1446 15.0767 40.8888 27.0335C35.6591 23.7046 31.6518 21.0551 30.8368 20.3758L28.8672 18.2697L24.5203 22.3459L26.5579 24.5199C27.1692 25.1313 31.1085 27.8488 36.7458 31.3814C35.7949 32.2646 34.844 33.0119 33.9611 33.6233L32.5348 34.5745L34.5044 37.3598L35.9307 36.4087C37.2212 35.5256 38.5117 34.4386 39.7342 33.2157C43.8773 35.8652 48.5637 38.8544 53.318 41.8436L29.4105 44.2214L30.0218 50.1319L62.2154 46.8709L108.876 55.7026L129.863 118.136L124.022 125.813L113.562 139.536L104.937 119.019L104.529 117.457L104.325 117.525L101.541 110.595L62.4871 100.948L71.4524 128.462L71.9279 130.093H71.9958L76.818 144.903L76.2067 152.444L39.3267 146.601C29.6822 144.563 21.9394 142.865 20.3773 142.186L19.0189 145.311C20.2414 145.854 24.3166 146.873 29.5463 148.028L29.0709 151.085L68.7357 157.335L66.3585 198.641L66.0868 198.709L66.2906 200.203L63.7096 243.954L63.5738 245.653L63.3021 250.544L106.634 305.572L139.032 316.578L133.87 335.668L79.1273 323.847C74.1692 321.673 66.9018 318.548 59.4307 315.423V311.687L31.0406 272.759L26.2183 276.292L52.7067 312.638C41.2963 307.95 30.8368 303.874 28.6634 303.874H25.675V309.852H28.5955C30.6331 310.124 40.8888 314.2 53.4539 319.431V347.625H59.4307V321.945C65.2039 324.391 71.2487 326.972 77.0218 329.486L77.2935 329.622L161.581 347.761L192.824 333.358L226.376 356.525L229.772 351.633L206.883 335.872L234.798 341.647C233.779 345.315 232.896 348.78 232.217 351.769L231.538 354.69L237.379 355.981L238.058 353.06C241.59 337.502 250.827 309.716 260.267 287.977L275.481 294.77L250.963 337.163L256.396 345.859L256.26 345.994L257.279 347.285L258.162 348.644L258.298 348.576L258.434 348.712L259.724 347.693L261.082 346.81L261.015 346.674L275.481 335.328L289.744 342.801L290.899 343.753L291.103 343.481L312.158 354.486L313.72 351.497L306.996 347.965L321.327 333.019L344.283 354.351L346.117 355.166L365.338 356.66L367.647 351.565L361.399 345.247L366.357 336.144L383.405 347.829L385.306 345.043L367.987 333.154L368.055 333.019L366.629 332.271L348.698 319.975C356.373 315.695 362.825 312.706 368.123 310.736L383.473 322.556L385.578 319.839L371.994 309.377C375.594 308.222 378.582 307.542 380.892 307.135L382.114 307.475L382.25 306.931C385.714 306.456 387.412 306.659 387.548 306.659L389.246 306.931L389.789 303.534L388.091 303.263C387.819 303.195 385.51 302.855 380.96 303.602C371.791 301.224 365.814 296.944 363.233 290.762C359.293 281.387 364.116 269.974 366.153 265.898L391.351 278.534ZM351.347 258.492L342.789 283.221L325.402 276.903L345.098 255.299L351.347 258.492ZM323.5 279.892L341.634 286.482L335.454 304.214L323.5 279.892ZM333.892 308.765L331.582 315.491L302.717 286.55L301.834 285.939L299.049 284.716L310.46 261.21L333.892 308.765ZM341.838 253.805L321.87 275.68L321.327 275.477L310.052 252.65L315.35 240.489L341.838 253.805ZM312.293 238.995L306.317 252.786L308.558 257.405L295.925 283.357L268.418 270.925C278.538 251.087 288.182 234.647 291.714 228.736L312.293 238.995ZM128.776 227.785L108.672 217.323C117.502 201.222 120.762 185.869 121.916 175.135L153.499 174.048L152.208 186.14H152.004V187.771L151.257 194.904L160.766 203.94L128.572 248.574L124.158 246.4L120.286 246.128L128.776 227.785ZM116.619 245.924L105.819 245.177L107.789 220.788L124.293 229.348L116.619 245.924ZM122.324 162.227C128.844 161.412 134.889 160.732 140.526 160.121V171.194L122.188 171.806C122.46 167.39 122.392 164.061 122.324 162.227ZM156.963 173.708L158.593 158.286C168.577 157.403 176.795 156.792 183.587 156.452L194.59 174.251C190.447 176.561 187.458 180.705 186.915 185.665L155.672 186.208L156.963 174.048H157.03L156.963 173.708ZM163.279 113.856L162.056 112.973L161.921 113.177C156.08 110.323 151.393 106.927 148.608 104.685L176.727 67.7953C182.025 67.3197 195.744 66.5045 210.754 70.1051C213.607 70.7845 216.324 71.5997 218.905 72.4829L206.543 113.652C194.658 119.019 182.296 119.087 172.652 116.913L172.312 116.709L172.244 116.845C168.848 116.03 165.86 115.011 163.279 113.856ZM170.207 119.835L164.841 127.715L158.796 123.231L163.007 117.457C165.113 118.34 167.558 119.155 170.207 119.835ZM181.481 61.4772L194.318 44.629L225.289 51.083L220.603 66.7763C217.818 65.8251 214.898 65.0099 211.909 64.2626C199.752 61.4093 188.613 61.2055 181.481 61.4772ZM225.221 74.9965C231.606 77.8499 237.311 81.3826 242.201 85.7305L234.662 92.8638L238.465 110.935L246.48 115.351L256.668 104.549C258.23 107.606 259.588 110.799 260.743 114.196L260.947 114.807L286.62 142.865L283.767 158.151L255.038 137.838C255.921 136.207 256.396 134.373 256.396 132.403C256.396 126.017 251.166 120.854 244.782 120.854C238.398 120.854 233.168 126.017 233.168 132.403C233.168 138.789 238.398 143.952 244.782 143.952C247.974 143.952 250.895 142.661 253 140.555L283.088 161.819L273.24 214.062C262.916 209.103 243.084 195.04 219.516 155.841C219.448 155.297 219.244 154.754 218.905 154.278C218.158 153.123 216.595 150.746 202.74 150.202L225.221 74.9965ZM244.714 88.0403C248.721 91.9806 252.117 96.3965 254.97 101.424L245.801 111.139L241.454 108.761L238.398 94.0866L244.714 88.0403ZM292.529 187.771L293.752 201.086L280.371 208.491L286.96 173.708L291.103 171.466L292.529 187.295L292.325 187.499L292.529 187.771ZM292.054 208.831L288.726 220.516L281.458 216.915L280.915 216.848C280.847 216.848 280.032 216.712 278.606 216.304L292.054 208.831ZM287.707 169.36L289.812 158.219L290.695 167.73L287.707 169.36ZM282.749 129.821L287.299 130.433L287.707 135.256L282.749 129.821ZM250.691 138.993C249.129 140.419 247.023 141.302 244.714 141.302C239.824 141.302 235.817 137.362 235.817 132.471C235.817 127.579 239.824 123.639 244.714 123.639C249.604 123.639 253.611 127.579 253.611 132.471C253.611 133.829 253.272 135.12 252.728 136.343L252.525 136.207L250.555 138.993H250.691ZM203.215 202.105C206.679 201.766 209.804 200.203 212.181 197.893L232.692 212.364L219.72 234.783L200.499 223.573L203.215 202.105ZM200.227 198.573V198.641C194.59 197.893 190.175 193.07 190.175 187.295C190.175 180.977 195.337 175.814 201.721 175.814C206.068 175.814 209.871 178.26 211.841 181.792L211.909 181.86C212.792 183.491 213.267 185.325 213.267 187.295C213.267 189.469 212.656 191.575 211.569 193.274L210.687 194.564C208.581 197.146 205.389 198.776 201.857 198.776L200.227 198.573ZM214.354 195.244C215.848 192.934 216.663 190.216 216.663 187.295C216.663 185.325 216.256 183.355 215.509 181.657L225.629 176.358C231.334 184.442 236.767 191.1 241.793 196.603L234.39 209.442L214.354 195.244ZM213.471 157.539L213.879 158.219C217.207 163.789 220.467 168.885 223.727 173.572L213.879 178.735C211.162 174.931 206.747 172.485 201.721 172.485C200.363 172.485 199.004 172.689 197.782 173.029L187.458 156.384C206.068 155.569 211.773 156.86 213.471 157.539ZM186.847 189.062C187.662 195.855 193.028 201.222 199.752 202.105L197.239 221.807L187.798 216.304L187.594 216.236L173.874 212.024L154.721 193.749L155.129 189.673L186.847 189.062ZM153.838 170.651L143.922 170.991V159.713C147.861 159.305 151.597 158.898 155.129 158.558L153.838 170.651ZM163.211 206.385L172.176 214.945L174.961 215.828L141.613 255.571C139.643 254.212 137.741 253.126 135.772 252.31L131.561 250.204L163.211 206.385ZM178.493 216.915L186.236 219.293L217.954 237.772L202.808 263.995L177.814 272.148L171.633 259.172L150.442 263.112C148.405 261.006 146.367 259.172 144.398 257.541L178.493 216.915ZM169.663 262.976L174.554 273.235L161.921 277.379C159 273.099 156.08 269.362 153.159 266.101L169.663 262.976ZM159.679 280.028L163.483 296.741L161.445 301.428L154.11 318.073L143.379 314.268L159.408 279.689C159.543 279.824 159.611 279.96 159.679 280.028ZM163.279 280.504L189.088 272.08L194.25 282.338L195.065 283.969L197.442 288.656L166.539 295.042L163.279 280.504ZM196.627 279.349L192.416 270.993L203.283 267.46L207.494 273.914L196.627 279.349ZM206 265.354L220.942 239.538L231.877 245.924L210.075 271.74L206 265.354ZM222.64 236.549L244.306 199.184C263.188 218.818 276.704 222.147 279.692 222.69L286.416 226.019C283.088 231.59 275.142 245.245 266.38 261.957L235.545 244.022L234.39 243.003L234.187 243.207L222.64 236.549ZM301.291 226.766L294.159 223.234L296.129 216.304L301.291 226.766ZM303.871 174.659L297.895 181.249L293.344 131.18L304.279 132.607L303.871 174.659ZM306.181 126.832L292.801 125.066L288.386 76.627L305.569 84.7114L305.162 86.0702L305.094 86.3419L306.249 126.764C306.181 126.764 306.181 126.764 306.181 126.832ZM380.62 77.0346L374.575 85.9343L313.041 81.6543L310.528 80.4314L317.252 58.2163L380.62 77.0346ZM313.924 57.1972L307.335 78.9369L287.775 69.7655L285.873 48.909L313.924 57.1972ZM286.756 124.318L276.568 122.96L266.244 111.682C259.317 91.9127 245.869 77.4423 226.987 69.222L232.013 52.4417L241.25 54.3439L282.205 73.6378L286.756 124.318ZM279.76 47.0068L281.526 66.7763L243.424 48.8411L243.084 48.7052L233.643 46.7351L237.311 34.4386L254.698 39.6017V39.7376L257.551 40.417L279.76 47.0068ZM222.912 0.198686L262.373 9.50596L259.317 21.5986L219.448 9.37009L222.912 0.198686ZM218.226 12.5631L258.502 24.8596L256.26 33.7592L214.83 21.4627L218.226 12.5631ZM208.649 25.8786L230.858 32.4684L226.987 45.3084L198.325 39.33L208.649 25.8786ZM119.947 -0.480678L201.653 23.8405L190.922 37.9033L98.1446 18.6094L119.947 -0.480678ZM62.8946 40.9605C57.1894 37.3598 49.9221 32.8081 43.8094 28.8678C50.2617 21.2589 56.1706 11.0685 59.8383 4.13899L88.1605 19.4926L63.7776 40.8925L62.8946 40.9605ZM70.7732 42.6589L92.5073 23.5688L186.915 43.1344L172.652 61.8848L70.7732 42.6589ZM112.476 56.5858L168.577 67.1839L156.759 82.7413L120.15 79.4124L112.476 56.5858ZM121.305 82.8772L154.246 85.8664L132.104 115.011L121.305 82.8772ZM146.503 107.402C149.356 109.712 153.974 113.041 159.883 115.962L154.11 123.979L165.724 132.539L173.806 120.582C177.27 121.193 180.938 121.601 184.809 121.601C191.33 121.601 198.325 120.514 205.253 117.864L195.608 150.066C192.213 150.066 188.341 150.202 183.858 150.406L183.655 150.134L183.111 150.474C171.022 151.085 154.721 152.444 132.648 154.958L128.165 131.316L146.503 107.402ZM118.181 144.495L125.448 134.916L129.319 155.297C125.176 155.773 120.83 156.316 116.279 156.86C115.532 156.928 114.785 156.996 114.038 157.064L118.181 144.495ZM67.581 105.704L99.0276 113.516L101.065 118.476L74.2371 125.949L67.581 105.704ZM75.188 129.142L102.288 121.601L111.253 143.68L106.838 157.132C105.616 157.064 104.393 156.928 103.171 156.724L79.5348 152.987L80.1461 144.36L75.188 129.142ZM72.1995 157.879L94.1374 161.344L89.1793 195.583L69.8224 198.165L72.1995 157.879ZM69.5507 201.63L92.0998 198.573L97.4654 161.819L102.22 162.566C107.11 163.314 112.068 163.45 116.958 162.838C117.637 162.77 118.249 162.702 118.86 162.634C119.064 169.02 118.792 192.662 104.733 217.255L104.529 217.595L102.288 244.973L67.0377 242.527L69.5507 201.63ZM66.766 249.457L66.9698 245.924L123.207 249.865L132.715 254.62L107.789 301.632L66.766 249.457ZM110.981 302.787L135.772 256.047C139.643 257.949 143.65 261.074 147.793 265.286L127.418 308.629L110.981 302.787ZM130.678 309.784L150.306 268.004C152.548 270.517 154.789 273.371 157.098 276.496L140.119 313.113L130.678 309.784ZM236.564 335.872L192.824 326.836L160.902 341.511L137.062 336.347L142.156 317.665L154.45 321.809L155.944 322.353L164.23 303.602L166.471 298.439L202.536 291.034L198.189 282.406L210.754 276.088L211.298 275.68L234.934 247.623L264.818 265.014C263.46 267.596 262.101 270.245 260.743 272.963C251.845 290.626 242.405 316.102 236.564 335.872ZM281.051 334.377L275.006 331.184L259.113 343.685L254.97 337.027L278.673 296.129L284.175 298.575L291.85 305.708L282.341 319.635L281.051 334.377ZM290.22 339.201L284.311 336.076L285.669 320.79L294.363 308.086L306.928 319.771L290.22 339.201ZM303.871 346.266L304.075 346.47L293.344 340.831L309.441 322.081L318.746 330.777L303.871 346.266ZM347.543 349.323L287.91 293.887L287.095 293.344L278.945 289.743L278.606 289.539V289.607L262.78 282.542C263.799 280.368 264.818 278.262 265.769 276.224L298.845 291.17L357.731 350.071L347.543 349.323ZM363.504 334.241L358.818 342.801L340.752 324.73C342.382 323.711 343.876 322.828 345.438 321.877L363.504 334.241ZM374.371 305.097C366.289 307.339 354.335 312.094 338.306 322.217L334.299 318.141L337.491 308.901L337.763 308.765L337.627 308.494L344.895 287.569L360.72 293.276C363.165 298.507 367.783 302.447 374.371 305.097ZM359.973 272.284C358.139 278.466 357.867 284.172 359.09 289.132L345.981 284.376L354.403 260.055L363.097 264.403C362.282 266.101 360.991 268.887 359.973 272.284Z" fill="#444E57"/>
<g opacity="0.3">
<path d="M98.2303 234.008L72.975 232.027L72.444 238.799L97.6993 240.781L98.2303 234.008Z" fill="#586570"/>
<path d="M286.651 245.779L274.796 268.097L280.794 271.285L292.649 248.967L286.651 245.779Z" fill="#586570"/>
<path d="M347.149 292.68L340.886 310.784L347.304 313.006L353.568 294.901L347.149 292.68Z" fill="#586570"/>
<path d="M272.852 84.5545L256.131 65.6104L245.847 74.6924L262.568 93.6365L272.852 84.5545Z" fill="#586570"/>
<path d="M283.087 117.665L270.454 95.7793L264.572 99.1761L277.205 121.062L283.087 117.665Z" fill="#586570"/>
<path d="M349.255 73.9031L324.047 72.1752L323.582 78.9532L348.79 80.6811L349.255 73.9031Z" fill="#586570"/>
<path d="M362.652 74.8281L352.081 74.1034L351.617 80.8814L362.188 81.6061L362.652 74.8281Z" fill="#586570"/>
<path d="M245.531 237.244L231.65 229.228L228.051 235.464L241.932 243.481L245.531 237.244Z" fill="#586570"/>
<path d="M265.94 222.868L243.883 210.13L236.854 222.308L258.91 235.046L265.94 222.868Z" fill="#586570"/>
<path d="M244.406 174.092L231.488 154.538L225.481 158.508L238.399 178.062L244.406 174.092Z" fill="#586570"/>
<path d="M112.073 191.307L115.323 168.097L108.193 167.098L104.943 190.309L112.073 191.307Z" fill="#586570"/>
<path d="M38.4832 140.267L70.0691 147.168L71.6054 140.132L40.0195 133.232L38.4832 140.267Z" fill="#586570"/>
<path d="M136.659 149.667L159.934 146.958L158.741 136.701L135.466 139.41L136.659 149.667Z" fill="#586570"/>
<path d="M206.224 100.859L213.322 78.5225L197.852 73.6043L190.754 95.9408L206.224 100.859Z" fill="#586570"/>
<path d="M58.8046 76.581L89.1297 83.2064L94.1156 60.3738L63.7905 53.7484L58.8046 76.581Z" fill="#586570"/>
<path d="M69.7776 97.0171L100.103 103.643L102.9 90.8324L72.5749 84.207L69.7776 97.0171Z" fill="#586570"/>
<path d="M51.0014 92.9392L63.8083 95.7373L66.6056 82.9271L53.7987 80.1291L51.0014 92.9392Z" fill="#586570"/>
<path d="M171.126 146.315H189.124V135.989H171.126V146.315Z" fill="#586570"/>
<path d="M124.79 304.1L134.62 282.823L128.084 279.802L118.255 301.079L124.79 304.1Z" fill="#586570"/>
<path d="M135.416 281.083L142.681 265.356L136.145 262.335L128.88 278.062L135.416 281.083Z" fill="#586570"/>
<path d="M185.314 247.757L196.712 234.714L182.803 222.554L171.405 235.597L185.314 247.757Z" fill="#586570"/>
<path d="M145.568 217.893L156.966 204.849L150.114 198.858L138.716 211.902L145.568 217.893Z" fill="#586570"/>
<path d="M168.267 250.09L173.943 243.594L168.523 238.855L162.846 245.351L168.267 250.09Z" fill="#586570"/>
<path d="M168.64 290.825L182.335 287.649L180.709 280.634L167.014 283.811L168.64 290.825Z" fill="#586570"/>
<path d="M185.517 286.935L190.412 285.798L188.785 278.784L183.889 279.92L185.517 286.935Z" fill="#586570"/>
<path d="M125.055 118.707L117.756 96.4336L110.915 98.6768L118.214 120.95L125.055 118.707Z" fill="#586570"/>
<path d="M151.89 72.9581L128.512 71.3554L128.02 78.5401L151.398 80.1428L151.89 72.9581Z" fill="#586570"/>
<path d="M116.276 91.9916L112.998 81.9849L106.157 84.2273L109.435 94.2341L116.276 91.9916Z" fill="#586570"/>
<path d="M111.652 77.7529L106.872 63.1624L100.031 65.4049L104.811 79.9954L111.652 77.7529Z" fill="#586570"/>
<path d="M273.966 187.349L278.966 164.451L271.932 162.914L266.932 185.813L273.966 187.349Z" fill="#586570"/>
<path d="M261.486 164.116L253.777 150.761L241.366 157.928L249.075 171.283L261.486 164.116Z" fill="#586570"/>
<path d="M251.061 184.169L246.08 176.631L240.074 180.601L245.055 188.14L251.061 184.169Z" fill="#586570"/>
<path d="M219.131 55.123L210.198 53.7776L209.126 60.8989L218.059 62.2443L219.131 55.123Z" fill="#586570"/>
<path d="M205.068 53.0225L196.135 51.6771L195.063 58.7984L203.996 60.1438L205.068 53.0225Z" fill="#586570"/>
<path d="M264.863 247.638L250.982 239.622L247.382 245.858L261.263 253.875L264.863 247.638Z" fill="#586570"/>
<path d="M81.1647 206.725H73.9653V213.926H81.1647V206.725Z" fill="#586570"/>
<path d="M81.1647 219.769H73.9653V226.97H81.1647V219.769Z" fill="#586570"/>
<path d="M273.355 235.013L267.121 231.413L263.521 237.649L269.756 241.249L273.355 235.013Z" fill="#586570"/>
<path d="M299.691 239.472L293.398 235.837L289.764 242.132L296.058 245.767L299.691 239.472Z" fill="#586570"/>
<path d="M286.378 305.299L280.084 301.664L276.45 307.959L282.744 311.594L286.378 305.299Z" fill="#586570"/>
<path d="M279.446 317.326L273.152 313.691L269.518 319.986L275.812 323.621L279.446 317.326Z" fill="#586570"/>
</g>
<path opacity="0.3" d="M367.352 320.171L361.059 316.536L357.425 322.831L363.719 326.466L367.352 320.171Z" fill="#969696"/>
</g>
</g>
<g opacity="0.6" filter="url(#filter1_d)">
<path d="M199.062 130.938C200.729 132.5 202.708 133.281 205 133.281C207.292 133.281 209.219 132.5 210.781 130.938C212.448 129.271 213.281 127.292 213.281 125C213.281 122.708 212.448 120.781 210.781 119.219C209.219 117.552 207.292 116.719 205 116.719C202.708 116.719 200.729 117.552 199.062 119.219C197.5 120.781 196.719 122.708 196.719 125C196.719 127.292 197.5 129.271 199.062 130.938ZM188.438 108.594C193.021 104.01 198.542 101.719 205 101.719C211.458 101.719 216.927 104.01 221.406 108.594C225.99 113.073 228.281 118.542 228.281 125C228.281 128.229 227.448 131.927 225.781 136.094C224.219 140.26 222.292 144.167 220 147.812C217.708 151.458 215.417 154.896 213.125 158.125C210.938 161.25 209.062 163.75 207.5 165.625L205 168.281C204.375 167.552 203.542 166.615 202.5 165.469C201.458 164.219 199.583 161.823 196.875 158.281C194.167 154.635 191.771 151.146 189.688 147.812C187.708 144.375 185.885 140.521 184.219 136.25C182.552 131.979 181.719 128.229 181.719 125C181.719 118.542 183.958 113.073 188.438 108.594Z" fill="#8C0303" fill-opacity="0.8"/>
</g>
<path d="M132.811 44.104L129.379 47.584V52H127.603V35.2H129.379V45.352L139.243 35.2H141.283L134.011 42.808L141.787 52H139.675L132.811 44.104ZM144.071 39.376H145.775V52H144.071V39.376ZM144.935 36.616C144.583 36.616 144.287 36.496 144.047 36.256C143.807 36.016 143.687 35.728 143.687 35.392C143.687 35.072 143.807 34.792 144.047 34.552C144.287 34.312 144.583 34.192 144.935 34.192C145.287 34.192 145.583 34.312 145.823 34.552C146.063 34.776 146.183 35.048 146.183 35.368C146.183 35.72 146.063 36.016 145.823 36.256C145.583 36.496 145.287 36.616 144.935 36.616ZM156.949 39.28C158.533 39.28 159.789 39.744 160.717 40.672C161.661 41.584 162.133 42.92 162.133 44.68V52H160.429V44.848C160.429 43.536 160.101 42.536 159.445 41.848C158.789 41.16 157.853 40.816 156.637 40.816C155.277 40.816 154.197 41.224 153.397 42.04C152.613 42.84 152.221 43.952 152.221 45.376V52H150.517V39.376H152.149V41.704C152.613 40.936 153.253 40.344 154.069 39.928C154.901 39.496 155.861 39.28 156.949 39.28ZM178.326 34.192V52H176.694V49.504C176.182 50.352 175.502 51 174.654 51.448C173.822 51.896 172.878 52.12 171.822 52.12C170.638 52.12 169.566 51.848 168.606 51.304C167.646 50.76 166.894 50 166.35 49.024C165.806 48.048 165.534 46.936 165.534 45.688C165.534 44.44 165.806 43.328 166.35 42.352C166.894 41.376 167.646 40.624 168.606 40.096C169.566 39.552 170.638 39.28 171.822 39.28C172.846 39.28 173.766 39.496 174.582 39.928C175.414 40.344 176.094 40.96 176.622 41.776V34.192H178.326ZM171.966 50.608C172.846 50.608 173.638 50.408 174.342 50.008C175.062 49.592 175.622 49.008 176.022 48.256C176.438 47.504 176.646 46.648 176.646 45.688C176.646 44.728 176.438 43.872 176.022 43.12C175.622 42.368 175.062 41.792 174.342 41.392C173.638 40.976 172.846 40.768 171.966 40.768C171.07 40.768 170.262 40.976 169.542 41.392C168.838 41.792 168.278 42.368 167.862 43.12C167.462 43.872 167.262 44.728 167.262 45.688C167.262 46.648 167.462 47.504 167.862 48.256C168.278 49.008 168.838 49.592 169.542 50.008C170.262 50.408 171.07 50.608 171.966 50.608ZM194.063 46.216H183.503C183.599 47.528 184.103 48.592 185.015 49.408C185.927 50.208 187.079 50.608 188.471 50.608C189.255 50.608 189.975 50.472 190.631 50.2C191.287 49.912 191.855 49.496 192.335 48.952L193.295 50.056C192.735 50.728 192.031 51.24 191.183 51.592C190.351 51.944 189.431 52.12 188.423 52.12C187.127 52.12 185.975 51.848 184.967 51.304C183.975 50.744 183.199 49.976 182.639 49C182.079 48.024 181.799 46.92 181.799 45.688C181.799 44.456 182.063 43.352 182.591 42.376C183.135 41.4 183.871 40.64 184.799 40.096C185.743 39.552 186.799 39.28 187.967 39.28C189.135 39.28 190.183 39.552 191.111 40.096C192.039 40.64 192.767 41.4 193.295 42.376C193.823 43.336 194.087 44.44 194.087 45.688L194.063 46.216ZM187.967 40.744C186.751 40.744 185.727 41.136 184.895 41.92C184.079 42.688 183.615 43.696 183.503 44.944H192.455C192.343 43.696 191.871 42.688 191.039 41.92C190.223 41.136 189.199 40.744 187.967 40.744ZM199.188 41.848C199.588 41 200.18 40.36 200.964 39.928C201.764 39.496 202.748 39.28 203.916 39.28V40.936L203.508 40.912C202.18 40.912 201.14 41.32 200.388 42.136C199.636 42.952 199.26 44.096 199.26 45.568V52H197.556V39.376H199.188V41.848ZM218.572 39.376V50.464C218.572 52.608 218.044 54.192 216.988 55.216C215.948 56.256 214.372 56.776 212.26 56.776C211.092 56.776 209.98 56.6 208.924 56.248C207.884 55.912 207.036 55.44 206.38 54.832L207.244 53.536C207.852 54.08 208.588 54.504 209.452 54.808C210.332 55.112 211.252 55.264 212.212 55.264C213.812 55.264 214.988 54.888 215.74 54.136C216.492 53.4 216.868 52.248 216.868 50.68V49.072C216.34 49.872 215.644 50.48 214.78 50.896C213.932 51.312 212.988 51.52 211.948 51.52C210.764 51.52 209.684 51.264 208.708 50.752C207.748 50.224 206.988 49.496 206.428 48.568C205.884 47.624 205.612 46.56 205.612 45.376C205.612 44.192 205.884 43.136 206.428 42.208C206.988 41.28 207.748 40.56 208.708 40.048C209.668 39.536 210.748 39.28 211.948 39.28C213.02 39.28 213.988 39.496 214.852 39.928C215.716 40.36 216.412 40.984 216.94 41.8V39.376H218.572ZM212.116 50.008C213.028 50.008 213.852 49.816 214.588 49.432C215.324 49.032 215.892 48.48 216.292 47.776C216.708 47.072 216.916 46.272 216.916 45.376C216.916 44.48 216.708 43.688 216.292 43C215.892 42.296 215.324 41.752 214.588 41.368C213.868 40.968 213.044 40.768 212.116 40.768C211.204 40.768 210.38 40.96 209.644 41.344C208.924 41.728 208.356 42.272 207.94 42.976C207.54 43.68 207.34 44.48 207.34 45.376C207.34 46.272 207.54 47.072 207.94 47.776C208.356 48.48 208.924 49.032 209.644 49.432C210.38 49.816 211.204 50.008 212.116 50.008ZM227.753 39.28C229.401 39.28 230.665 39.696 231.545 40.528C232.425 41.344 232.865 42.56 232.865 44.176V52H231.233V50.032C230.849 50.688 230.281 51.2 229.529 51.568C228.793 51.936 227.913 52.12 226.889 52.12C225.481 52.12 224.361 51.784 223.529 51.112C222.697 50.44 222.281 49.552 222.281 48.448C222.281 47.376 222.665 46.512 223.433 45.856C224.217 45.2 225.457 44.872 227.153 44.872H231.161V44.104C231.161 43.016 230.857 42.192 230.249 41.632C229.641 41.056 228.753 40.768 227.585 40.768C226.785 40.768 226.017 40.904 225.281 41.176C224.545 41.432 223.913 41.792 223.385 42.256L222.617 40.984C223.257 40.44 224.025 40.024 224.921 39.736C225.817 39.432 226.761 39.28 227.753 39.28ZM227.153 50.776C228.113 50.776 228.937 50.56 229.625 50.128C230.313 49.68 230.825 49.04 231.161 48.208V46.144H227.201C225.041 46.144 223.961 46.896 223.961 48.4C223.961 49.136 224.241 49.72 224.801 50.152C225.361 50.568 226.145 50.776 227.153 50.776ZM239.125 41.848C239.525 41 240.117 40.36 240.901 39.928C241.701 39.496 242.685 39.28 243.853 39.28V40.936L243.445 40.912C242.117 40.912 241.077 41.32 240.325 42.136C239.573 42.952 239.197 44.096 239.197 45.568V52H237.493V39.376H239.125V41.848ZM254.126 51.232C253.806 51.52 253.406 51.744 252.926 51.904C252.462 52.048 251.974 52.12 251.462 52.12C250.278 52.12 249.366 51.8 248.726 51.16C248.086 50.52 247.766 49.616 247.766 48.448V40.816H245.51V39.376H247.766V36.616H249.47V39.376H253.31V40.816H249.47V48.352C249.47 49.104 249.654 49.68 250.022 50.08C250.406 50.464 250.95 50.656 251.654 50.656C252.006 50.656 252.342 50.6 252.662 50.488C252.998 50.376 253.286 50.216 253.526 50.008L254.126 51.232ZM267.774 46.216H257.214C257.31 47.528 257.814 48.592 258.726 49.408C259.638 50.208 260.79 50.608 262.182 50.608C262.966 50.608 263.686 50.472 264.342 50.2C264.998 49.912 265.566 49.496 266.046 48.952L267.006 50.056C266.446 50.728 265.742 51.24 264.894 51.592C264.062 51.944 263.142 52.12 262.134 52.12C260.838 52.12 259.686 51.848 258.678 51.304C257.686 50.744 256.91 49.976 256.35 49C255.79 48.024 255.51 46.92 255.51 45.688C255.51 44.456 255.774 43.352 256.302 42.376C256.846 41.4 257.582 40.64 258.51 40.096C259.454 39.552 260.51 39.28 261.678 39.28C262.846 39.28 263.894 39.552 264.822 40.096C265.75 40.64 266.478 41.4 267.006 42.376C267.534 43.336 267.798 44.44 267.798 45.688L267.774 46.216ZM261.678 40.744C260.462 40.744 259.438 41.136 258.606 41.92C257.79 42.688 257.326 43.696 257.214 44.944H266.166C266.054 43.696 265.582 42.688 264.75 41.92C263.934 41.136 262.91 40.744 261.678 40.744ZM277.699 39.28C279.283 39.28 280.539 39.744 281.467 40.672C282.411 41.584 282.883 42.92 282.883 44.68V52H281.179V44.848C281.179 43.536 280.851 42.536 280.195 41.848C279.539 41.16 278.603 40.816 277.387 40.816C276.027 40.816 274.947 41.224 274.147 42.04C273.363 42.84 272.971 43.952 272.971 45.376V52H271.267V39.376H272.899V41.704C273.363 40.936 274.003 40.344 274.819 39.928C275.651 39.496 276.611 39.28 277.699 39.28ZM149.728 80L145.888 74.6C145.456 74.648 145.008 74.672 144.544 74.672H140.032V80H138.256V63.2H144.544C146.688 63.2 148.368 63.712 149.584 64.736C150.8 65.76 151.408 67.168 151.408 68.96C151.408 70.272 151.072 71.384 150.4 72.296C149.744 73.192 148.8 73.84 147.568 74.24L151.672 80H149.728ZM144.496 73.16C146.16 73.16 147.432 72.792 148.312 72.056C149.192 71.32 149.632 70.288 149.632 68.96C149.632 67.6 149.192 66.56 148.312 65.84C147.432 65.104 146.16 64.736 144.496 64.736H140.032V73.16H144.496ZM160.399 80.12C159.183 80.12 158.087 79.848 157.111 79.304C156.135 78.744 155.367 77.976 154.807 77C154.247 76.024 153.967 74.92 153.967 73.688C153.967 72.456 154.247 71.352 154.807 70.376C155.367 69.4 156.135 68.64 157.111 68.096C158.087 67.552 159.183 67.28 160.399 67.28C161.615 67.28 162.711 67.552 163.687 68.096C164.663 68.64 165.423 69.4 165.967 70.376C166.527 71.352 166.807 72.456 166.807 73.688C166.807 74.92 166.527 76.024 165.967 77C165.423 77.976 164.663 78.744 163.687 79.304C162.711 79.848 161.615 80.12 160.399 80.12ZM160.399 78.608C161.295 78.608 162.095 78.408 162.799 78.008C163.519 77.592 164.079 77.008 164.479 76.256C164.879 75.504 165.079 74.648 165.079 73.688C165.079 72.728 164.879 71.872 164.479 71.12C164.079 70.368 163.519 69.792 162.799 69.392C162.095 68.976 161.295 68.768 160.399 68.768C159.503 68.768 158.695 68.976 157.975 69.392C157.271 69.792 156.711 70.368 156.295 71.12C155.895 71.872 155.695 72.728 155.695 73.688C155.695 74.648 155.895 75.504 156.295 76.256C156.711 77.008 157.271 77.592 157.975 78.008C158.695 78.408 159.503 78.608 160.399 78.608ZM176.934 79.232C176.614 79.52 176.214 79.744 175.734 79.904C175.27 80.048 174.782 80.12 174.27 80.12C173.086 80.12 172.174 79.8 171.534 79.16C170.894 78.52 170.574 77.616 170.574 76.448V68.816H168.318V67.376H170.574V64.616H172.278V67.376H176.118V68.816H172.278V76.352C172.278 77.104 172.462 77.68 172.83 78.08C173.214 78.464 173.758 78.656 174.462 78.656C174.814 78.656 175.15 78.6 175.47 78.488C175.806 78.376 176.094 78.216 176.334 78.008L176.934 79.232ZM195.78 67.28C197.364 67.28 198.604 67.736 199.5 68.648C200.412 69.56 200.868 70.904 200.868 72.68V80H199.164V72.848C199.164 71.536 198.844 70.536 198.204 69.848C197.58 69.16 196.692 68.816 195.54 68.816C194.228 68.816 193.196 69.224 192.444 70.04C191.692 70.84 191.316 71.952 191.316 73.376V80H189.612V72.848C189.612 71.536 189.292 70.536 188.652 69.848C188.028 69.16 187.132 68.816 185.964 68.816C184.668 68.816 183.636 69.224 182.868 70.04C182.116 70.84 181.74 71.952 181.74 73.376V80H180.036V67.376H181.668V69.68C182.116 68.912 182.74 68.32 183.54 67.904C184.34 67.488 185.26 67.28 186.3 67.28C187.356 67.28 188.268 67.504 189.036 67.952C189.82 68.4 190.404 69.064 190.788 69.944C191.252 69.112 191.916 68.464 192.78 68C193.66 67.52 194.66 67.28 195.78 67.28ZM210.696 80.12C209.48 80.12 208.384 79.848 207.408 79.304C206.432 78.744 205.664 77.976 205.104 77C204.544 76.024 204.264 74.92 204.264 73.688C204.264 72.456 204.544 71.352 205.104 70.376C205.664 69.4 206.432 68.64 207.408 68.096C208.384 67.552 209.48 67.28 210.696 67.28C211.912 67.28 213.008 67.552 213.984 68.096C214.96 68.64 215.72 69.4 216.264 70.376C216.824 71.352 217.104 72.456 217.104 73.688C217.104 74.92 216.824 76.024 216.264 77C215.72 77.976 214.96 78.744 213.984 79.304C213.008 79.848 211.912 80.12 210.696 80.12ZM210.696 78.608C211.592 78.608 212.392 78.408 213.096 78.008C213.816 77.592 214.376 77.008 214.776 76.256C215.176 75.504 215.376 74.648 215.376 73.688C215.376 72.728 215.176 71.872 214.776 71.12C214.376 70.368 213.816 69.792 213.096 69.392C212.392 68.976 211.592 68.768 210.696 68.768C209.8 68.768 208.992 68.976 208.272 69.392C207.568 69.792 207.008 70.368 206.592 71.12C206.192 71.872 205.992 72.728 205.992 73.688C205.992 74.648 206.192 75.504 206.592 76.256C207.008 77.008 207.568 77.592 208.272 78.008C208.992 78.408 209.8 78.608 210.696 78.608ZM227.015 67.28C228.599 67.28 229.855 67.744 230.783 68.672C231.727 69.584 232.199 70.92 232.199 72.68V80H230.495V72.848C230.495 71.536 230.167 70.536 229.511 69.848C228.855 69.16 227.919 68.816 226.703 68.816C225.343 68.816 224.263 69.224 223.463 70.04C222.679 70.84 222.287 71.952 222.287 73.376V80H220.583V67.376H222.215V69.704C222.679 68.936 223.319 68.344 224.135 67.928C224.967 67.496 225.927 67.28 227.015 67.28ZM243.473 79.232C243.153 79.52 242.753 79.744 242.273 79.904C241.809 80.048 241.321 80.12 240.809 80.12C239.625 80.12 238.713 79.8 238.073 79.16C237.433 78.52 237.113 77.616 237.113 76.448V68.816H234.857V67.376H237.113V64.616H238.817V67.376H242.657V68.816H238.817V76.352C238.817 77.104 239.001 77.68 239.369 78.08C239.753 78.464 240.297 78.656 241.001 78.656C241.353 78.656 241.689 78.6 242.009 78.488C242.345 78.376 242.633 78.216 242.873 78.008L243.473 79.232ZM257.122 74.216H246.562C246.658 75.528 247.162 76.592 248.074 77.408C248.986 78.208 250.138 78.608 251.53 78.608C252.314 78.608 253.034 78.472 253.69 78.2C254.346 77.912 254.914 77.496 255.394 76.952L256.354 78.056C255.794 78.728 255.09 79.24 254.242 79.592C253.41 79.944 252.49 80.12 251.482 80.12C250.186 80.12 249.034 79.848 248.026 79.304C247.034 78.744 246.258 77.976 245.698 77C245.138 76.024 244.858 74.92 244.858 73.688C244.858 72.456 245.122 71.352 245.65 70.376C246.194 69.4 246.93 68.64 247.858 68.096C248.802 67.552 249.858 67.28 251.026 67.28C252.194 67.28 253.242 67.552 254.17 68.096C255.098 68.64 255.826 69.4 256.354 70.376C256.882 71.336 257.146 72.44 257.146 73.688L257.122 74.216ZM251.026 68.744C249.81 68.744 248.786 69.136 247.954 69.92C247.138 70.688 246.674 71.696 246.562 72.944H255.514C255.402 71.696 254.93 70.688 254.098 69.92C253.282 69.136 252.258 68.744 251.026 68.744ZM267.046 67.28C268.63 67.28 269.886 67.744 270.814 68.672C271.758 69.584 272.23 70.92 272.23 72.68V80H270.526V72.848C270.526 71.536 270.198 70.536 269.542 69.848C268.886 69.16 267.95 68.816 266.734 68.816C265.374 68.816 264.294 69.224 263.494 70.04C262.71 70.84 262.318 71.952 262.318 73.376V80H260.614V67.376H262.246V69.704C262.71 68.936 263.35 68.344 264.166 67.928C264.998 67.496 265.958 67.28 267.046 67.28Z" fill="white"/>
<path d="M79.3253 234.46V236H72.1013V234.782L75.9933 231.086C76.432 230.666 76.726 230.302 76.8753 229.994C77.034 229.677 77.1133 229.364 77.1133 229.056C77.1133 228.599 76.9593 228.249 76.6513 228.006C76.3433 227.763 75.8907 227.642 75.2933 227.642C74.2947 227.642 73.5293 227.983 72.9973 228.664L71.7233 227.684C72.106 227.171 72.6193 226.774 73.2633 226.494C73.9167 226.205 74.6447 226.06 75.4473 226.06C76.5113 226.06 77.3607 226.312 77.9953 226.816C78.63 227.32 78.9473 228.006 78.9473 228.874C78.9473 229.406 78.8353 229.905 78.6113 230.372C78.3873 230.839 77.958 231.371 77.3233 231.968L74.7053 234.46H79.3253ZM93.9469 236L93.9329 229.504L90.7129 234.88H89.9009L86.6809 229.588V236H84.9449V226.2H86.4429L90.3349 232.696L94.1569 226.2H95.6549L95.6689 236H93.9469ZM98.148 228.524H99.898V236H98.148V228.524ZM99.03 227.292C98.7127 227.292 98.4467 227.194 98.232 226.998C98.0173 226.793 97.91 226.541 97.91 226.242C97.91 225.943 98.0173 225.696 98.232 225.5C98.4467 225.295 98.7127 225.192 99.03 225.192C99.3473 225.192 99.6133 225.29 99.828 225.486C100.043 225.673 100.15 225.911 100.15 226.2C100.15 226.508 100.043 226.769 99.828 226.984C99.6227 227.189 99.3567 227.292 99.03 227.292ZM102.195 225.612H103.945V236H102.195V225.612ZM106.242 225.612H107.992V236H106.242V225.612ZM110.289 228.524H112.039V236H110.289V228.524ZM111.171 227.292C110.853 227.292 110.587 227.194 110.373 226.998C110.158 226.793 110.051 226.541 110.051 226.242C110.051 225.943 110.158 225.696 110.373 225.5C110.587 225.295 110.853 225.192 111.171 225.192C111.488 225.192 111.754 225.29 111.969 225.486C112.183 225.673 112.291 225.911 112.291 226.2C112.291 226.508 112.183 226.769 111.969 226.984C111.763 227.189 111.497 227.292 111.171 227.292ZM117.696 236.098C116.94 236.098 116.258 235.935 115.652 235.608C115.045 235.281 114.569 234.829 114.224 234.25C113.888 233.662 113.72 232.999 113.72 232.262C113.72 231.525 113.888 230.867 114.224 230.288C114.569 229.709 115.045 229.257 115.652 228.93C116.258 228.603 116.94 228.44 117.696 228.44C118.461 228.44 119.147 228.603 119.754 228.93C120.36 229.257 120.832 229.709 121.168 230.288C121.513 230.867 121.686 231.525 121.686 232.262C121.686 232.999 121.513 233.662 121.168 234.25C120.832 234.829 120.36 235.281 119.754 235.608C119.147 235.935 118.461 236.098 117.696 236.098ZM117.696 234.6C118.34 234.6 118.872 234.385 119.292 233.956C119.712 233.527 119.922 232.962 119.922 232.262C119.922 231.562 119.712 230.997 119.292 230.568C118.872 230.139 118.34 229.924 117.696 229.924C117.052 229.924 116.52 230.139 116.1 230.568C115.689 230.997 115.484 231.562 115.484 232.262C115.484 232.962 115.689 233.527 116.1 233.956C116.52 234.385 117.052 234.6 117.696 234.6ZM127.601 228.44C128.544 228.44 129.3 228.715 129.869 229.266C130.438 229.817 130.723 230.633 130.723 231.716V236H128.973V231.94C128.973 231.287 128.819 230.797 128.511 230.47C128.203 230.134 127.764 229.966 127.195 229.966C126.551 229.966 126.042 230.162 125.669 230.554C125.296 230.937 125.109 231.492 125.109 232.22V236H123.359V228.524H125.025V229.49C125.314 229.145 125.678 228.883 126.117 228.706C126.556 228.529 127.05 228.44 127.601 228.44ZM135.253 236.098C134.646 236.098 134.054 236.019 133.475 235.86C132.896 235.701 132.434 235.501 132.089 235.258L132.761 233.928C133.097 234.152 133.498 234.334 133.965 234.474C134.441 234.605 134.908 234.67 135.365 234.67C136.41 234.67 136.933 234.395 136.933 233.844C136.933 233.583 136.798 233.401 136.527 233.298C136.266 233.195 135.841 233.097 135.253 233.004C134.637 232.911 134.133 232.803 133.741 232.682C133.358 232.561 133.022 232.351 132.733 232.052C132.453 231.744 132.313 231.319 132.313 230.778C132.313 230.069 132.607 229.504 133.195 229.084C133.792 228.655 134.595 228.44 135.603 228.44C136.116 228.44 136.63 228.501 137.143 228.622C137.656 228.734 138.076 228.888 138.403 229.084L137.731 230.414C137.096 230.041 136.382 229.854 135.589 229.854C135.076 229.854 134.684 229.933 134.413 230.092C134.152 230.241 134.021 230.442 134.021 230.694C134.021 230.974 134.161 231.175 134.441 231.296C134.73 231.408 135.174 231.515 135.771 231.618C136.368 231.711 136.858 231.819 137.241 231.94C137.624 232.061 137.95 232.267 138.221 232.556C138.501 232.845 138.641 233.256 138.641 233.788C138.641 234.488 138.338 235.048 137.731 235.468C137.124 235.888 136.298 236.098 135.253 236.098Z" fill="#CBCFD4" fill-opacity="0.8"/>
<path d="M324.553 233.774H322.817V236H321.053V233.774H315.677V232.514L320.507 226.2H322.453L317.903 232.234H321.109V230.26H322.817V232.234H324.553V233.774ZM326.288 225.514C326.615 225.514 326.886 225.621 327.1 225.836C327.315 226.051 327.422 226.326 327.422 226.662C327.422 226.83 327.399 226.993 327.352 227.152C327.315 227.311 327.236 227.549 327.114 227.866L326.386 229.854H325.252L325.812 227.698C325.607 227.623 325.444 227.497 325.322 227.32C325.21 227.133 325.154 226.914 325.154 226.662C325.154 226.326 325.262 226.051 325.476 225.836C325.691 225.621 325.962 225.514 326.288 225.514ZM331.666 229.994C333.048 229.994 334.07 230.265 334.732 230.806C335.395 231.338 335.726 232.066 335.726 232.99C335.726 233.578 335.582 234.11 335.292 234.586C335.003 235.062 334.569 235.44 333.99 235.72C333.412 236 332.698 236.14 331.848 236.14C331.148 236.14 330.472 236.042 329.818 235.846C329.165 235.641 328.614 235.361 328.166 235.006L328.936 233.592C329.3 233.891 329.734 234.129 330.238 234.306C330.752 234.474 331.279 234.558 331.82 234.558C332.464 234.558 332.968 234.427 333.332 234.166C333.706 233.895 333.892 233.527 333.892 233.06C333.892 232.556 333.692 232.178 333.29 231.926C332.898 231.665 332.222 231.534 331.26 231.534H328.894L329.398 226.2H335.152V227.726H330.938L330.728 229.994H331.666ZM340.864 236.14C340.08 236.14 339.38 235.944 338.764 235.552C338.148 235.151 337.663 234.572 337.308 233.816C336.953 233.051 336.776 232.145 336.776 231.1C336.776 230.055 336.953 229.154 337.308 228.398C337.663 227.633 338.148 227.054 338.764 226.662C339.38 226.261 340.08 226.06 340.864 226.06C341.648 226.06 342.348 226.261 342.964 226.662C343.589 227.054 344.079 227.633 344.434 228.398C344.789 229.154 344.966 230.055 344.966 231.1C344.966 232.145 344.789 233.051 344.434 233.816C344.079 234.572 343.589 235.151 342.964 235.552C342.348 235.944 341.648 236.14 340.864 236.14ZM340.864 234.558C341.564 234.558 342.115 234.269 342.516 233.69C342.927 233.111 343.132 232.248 343.132 231.1C343.132 229.952 342.927 229.089 342.516 228.51C342.115 227.931 341.564 227.642 340.864 227.642C340.173 227.642 339.623 227.931 339.212 228.51C338.811 229.089 338.61 229.952 338.61 231.1C338.61 232.248 338.811 233.111 339.212 233.69C339.623 234.269 340.173 234.558 340.864 234.558ZM350.284 236.14C349.5 236.14 348.8 235.944 348.184 235.552C347.568 235.151 347.083 234.572 346.728 233.816C346.373 233.051 346.196 232.145 346.196 231.1C346.196 230.055 346.373 229.154 346.728 228.398C347.083 227.633 347.568 227.054 348.184 226.662C348.8 226.261 349.5 226.06 350.284 226.06C351.068 226.06 351.768 226.261 352.384 226.662C353.009 227.054 353.499 227.633 353.854 228.398C354.209 229.154 354.386 230.055 354.386 231.1C354.386 232.145 354.209 233.051 353.854 233.816C353.499 234.572 353.009 235.151 352.384 235.552C351.768 235.944 351.068 236.14 350.284 236.14ZM350.284 234.558C350.984 234.558 351.535 234.269 351.936 233.69C352.347 233.111 352.552 232.248 352.552 231.1C352.552 229.952 352.347 229.089 351.936 228.51C351.535 227.931 350.984 227.642 350.284 227.642C349.593 227.642 349.043 227.931 348.632 228.51C348.231 229.089 348.03 229.952 348.03 231.1C348.03 232.248 348.231 233.111 348.632 233.69C349.043 234.269 349.593 234.558 350.284 234.558Z" fill="#CBCFD4" fill-opacity="0.8"/>
<path d="M186.04 230.246C186.945 230.358 187.636 230.666 188.112 231.17C188.588 231.674 188.826 232.304 188.826 233.06C188.826 233.629 188.681 234.147 188.392 234.614C188.103 235.081 187.664 235.454 187.076 235.734C186.497 236.005 185.788 236.14 184.948 236.14C184.248 236.14 183.571 236.042 182.918 235.846C182.274 235.641 181.723 235.361 181.266 235.006L182.05 233.592C182.405 233.891 182.834 234.129 183.338 234.306C183.851 234.474 184.379 234.558 184.92 234.558C185.564 234.558 186.068 234.427 186.432 234.166C186.805 233.895 186.992 233.531 186.992 233.074C186.992 232.617 186.815 232.262 186.46 232.01C186.115 231.749 185.583 231.618 184.864 231.618H183.968V230.372L186.194 227.726H181.742V226.2H188.42V227.418L186.04 230.246ZM194.104 236.14C193.32 236.14 192.62 235.944 192.004 235.552C191.388 235.151 190.903 234.572 190.548 233.816C190.194 233.051 190.016 232.145 190.016 231.1C190.016 230.055 190.194 229.154 190.548 228.398C190.903 227.633 191.388 227.054 192.004 226.662C192.62 226.261 193.32 226.06 194.104 226.06C194.888 226.06 195.588 226.261 196.204 226.662C196.83 227.054 197.32 227.633 197.674 228.398C198.029 229.154 198.206 230.055 198.206 231.1C198.206 232.145 198.029 233.051 197.674 233.816C197.32 234.572 196.83 235.151 196.204 235.552C195.588 235.944 194.888 236.14 194.104 236.14ZM194.104 234.558C194.804 234.558 195.355 234.269 195.756 233.69C196.167 233.111 196.372 232.248 196.372 231.1C196.372 229.952 196.167 229.089 195.756 228.51C195.355 227.931 194.804 227.642 194.104 227.642C193.414 227.642 192.863 227.931 192.452 228.51C192.051 229.089 191.85 229.952 191.85 231.1C191.85 232.248 192.051 233.111 192.452 233.69C192.863 234.269 193.414 234.558 194.104 234.558ZM200.364 236.098C200.047 236.098 199.776 235.991 199.552 235.776C199.328 235.552 199.216 235.272 199.216 234.936C199.216 234.591 199.324 234.311 199.538 234.096C199.762 233.881 200.038 233.774 200.364 233.774C200.691 233.774 200.962 233.881 201.176 234.096C201.4 234.311 201.512 234.591 201.512 234.936C201.512 235.272 201.4 235.552 201.176 235.776C200.952 235.991 200.682 236.098 200.364 236.098ZM206.614 236.14C205.83 236.14 205.13 235.944 204.514 235.552C203.898 235.151 203.413 234.572 203.058 233.816C202.703 233.051 202.526 232.145 202.526 231.1C202.526 230.055 202.703 229.154 203.058 228.398C203.413 227.633 203.898 227.054 204.514 226.662C205.13 226.261 205.83 226.06 206.614 226.06C207.398 226.06 208.098 226.261 208.714 226.662C209.339 227.054 209.829 227.633 210.184 228.398C210.539 229.154 210.716 230.055 210.716 231.1C210.716 232.145 210.539 233.051 210.184 233.816C209.829 234.572 209.339 235.151 208.714 235.552C208.098 235.944 207.398 236.14 206.614 236.14ZM206.614 234.558C207.314 234.558 207.865 234.269 208.266 233.69C208.677 233.111 208.882 232.248 208.882 231.1C208.882 229.952 208.677 229.089 208.266 228.51C207.865 227.931 207.314 227.642 206.614 227.642C205.923 227.642 205.373 227.931 204.962 228.51C204.561 229.089 204.36 229.952 204.36 231.1C204.36 232.248 204.561 233.111 204.962 233.69C205.373 234.269 205.923 234.558 206.614 234.558ZM215.012 229.994C216.393 229.994 217.415 230.265 218.078 230.806C218.741 231.338 219.072 232.066 219.072 232.99C219.072 233.578 218.927 234.11 218.638 234.586C218.349 235.062 217.915 235.44 217.336 235.72C216.757 236 216.043 236.14 215.194 236.14C214.494 236.14 213.817 236.042 213.164 235.846C212.511 235.641 211.96 235.361 211.512 235.006L212.282 233.592C212.646 233.891 213.08 234.129 213.584 234.306C214.097 234.474 214.625 234.558 215.166 234.558C215.81 234.558 216.314 234.427 216.678 234.166C217.051 233.895 217.238 233.527 217.238 233.06C217.238 232.556 217.037 232.178 216.636 231.926C216.244 231.665 215.567 231.534 214.606 231.534H212.24L212.744 226.2H218.498V227.726H214.284L214.074 229.994H215.012ZM221.214 236.098C220.897 236.098 220.626 235.991 220.402 235.776C220.178 235.552 220.066 235.272 220.066 234.936C220.066 234.591 220.173 234.311 220.388 234.096C220.612 233.881 220.887 233.774 221.214 233.774C221.541 233.774 221.811 233.881 222.026 234.096C222.25 234.311 222.362 234.591 222.362 234.936C222.362 235.272 222.25 235.552 222.026 235.776C221.802 235.991 221.531 236.098 221.214 236.098ZM230.775 234.46V236H223.551V234.782L227.443 231.086C227.881 230.666 228.175 230.302 228.325 229.994C228.483 229.677 228.563 229.364 228.563 229.056C228.563 228.599 228.409 228.249 228.101 228.006C227.793 227.763 227.34 227.642 226.743 227.642C225.744 227.642 224.979 227.983 224.447 228.664L223.173 227.684C223.555 227.171 224.069 226.774 224.713 226.494C225.366 226.205 226.094 226.06 226.897 226.06C227.961 226.06 228.81 226.312 229.445 226.816C230.079 227.32 230.397 228.006 230.397 228.874C230.397 229.406 230.285 229.905 230.061 230.372C229.837 230.839 229.407 231.371 228.773 231.968L226.155 234.46H230.775ZM235.872 236.14C235.088 236.14 234.388 235.944 233.772 235.552C233.156 235.151 232.671 234.572 232.316 233.816C231.961 233.051 231.784 232.145 231.784 231.1C231.784 230.055 231.961 229.154 232.316 228.398C232.671 227.633 233.156 227.054 233.772 226.662C234.388 226.261 235.088 226.06 235.872 226.06C236.656 226.06 237.356 226.261 237.972 226.662C238.597 227.054 239.087 227.633 239.442 228.398C239.797 229.154 239.974 230.055 239.974 231.1C239.974 232.145 239.797 233.051 239.442 233.816C239.087 234.572 238.597 235.151 237.972 235.552C237.356 235.944 236.656 236.14 235.872 236.14ZM235.872 234.558C236.572 234.558 237.123 234.269 237.524 233.69C237.935 233.111 238.14 232.248 238.14 231.1C238.14 229.952 237.935 229.089 237.524 228.51C237.123 227.931 236.572 227.642 235.872 227.642C235.181 227.642 234.631 227.931 234.22 228.51C233.819 229.089 233.618 229.952 233.618 231.1C233.618 232.248 233.819 233.111 234.22 233.69C234.631 234.269 235.181 234.558 235.872 234.558ZM248.234 234.46V236H241.01V234.782L244.902 231.086C245.34 230.666 245.634 230.302 245.784 229.994C245.942 229.677 246.022 229.364 246.022 229.056C246.022 228.599 245.868 228.249 245.56 228.006C245.252 227.763 244.799 227.642 244.202 227.642C243.203 227.642 242.438 227.983 241.906 228.664L240.632 227.684C241.014 227.171 241.528 226.774 242.172 226.494C242.825 226.205 243.553 226.06 244.356 226.06C245.42 226.06 246.269 226.312 246.904 226.816C247.538 227.32 247.856 228.006 247.856 228.874C247.856 229.406 247.744 229.905 247.52 230.372C247.296 230.839 246.866 231.371 246.232 231.968L243.614 234.46H248.234ZM252.672 226.2V236H250.852V227.726H248.78V226.2H252.672Z" fill="#CBCFD4" fill-opacity="0.8"/>
<g opacity="0.8">
<path d="M145 300C145 291.163 152.163 284 161 284H245C253.837 284 261 291.163 261 300V308C261 316.837 253.837 324 245 324H161C152.163 324 145 316.837 145 308V300Z" fill="url(#paint0_linear)"/>
<path d="M163.13 307.12C162.577 307.12 162.04 307.047 161.52 306.9C161.007 306.747 160.593 306.55 160.28 306.31L160.83 305.09C161.13 305.31 161.487 305.487 161.9 305.62C162.313 305.753 162.727 305.82 163.14 305.82C163.6 305.82 163.94 305.753 164.16 305.62C164.38 305.48 164.49 305.297 164.49 305.07C164.49 304.903 164.423 304.767 164.29 304.66C164.163 304.547 163.997 304.457 163.79 304.39C163.59 304.323 163.317 304.25 162.97 304.17C162.437 304.043 162 303.917 161.66 303.79C161.32 303.663 161.027 303.46 160.78 303.18C160.54 302.9 160.42 302.527 160.42 302.06C160.42 301.653 160.53 301.287 160.75 300.96C160.97 300.627 161.3 300.363 161.74 300.17C162.187 299.977 162.73 299.88 163.37 299.88C163.817 299.88 164.253 299.933 164.68 300.04C165.107 300.147 165.48 300.3 165.8 300.5L165.3 301.73C164.653 301.363 164.007 301.18 163.36 301.18C162.907 301.18 162.57 301.253 162.35 301.4C162.137 301.547 162.03 301.74 162.03 301.98C162.03 302.22 162.153 302.4 162.4 302.52C162.653 302.633 163.037 302.747 163.55 302.86C164.083 302.987 164.52 303.113 164.86 303.24C165.2 303.367 165.49 303.567 165.73 303.84C165.977 304.113 166.1 304.483 166.1 304.95C166.1 305.35 165.987 305.717 165.76 306.05C165.54 306.377 165.207 306.637 164.76 306.83C164.313 307.023 163.77 307.12 163.13 307.12ZM172.627 305.7V307H167.207V300H172.497V301.3H168.817V302.82H172.067V304.08H168.817V305.7H172.627ZM175.366 301.32H173.126V300H179.226V301.32H176.986V307H175.366V301.32ZM184.38 301.32H182.14V300H188.24V301.32H186V307H184.38V301.32ZM195.531 300V307H193.911V304.13H190.731V307H189.111V300H190.731V302.76H193.911V300H195.531ZM202.607 305.7V307H197.187V300H202.477V301.3H198.797V302.82H202.047V304.08H198.797V305.7H202.607ZM211.868 303.36C212.268 303.487 212.582 303.7 212.808 304C213.035 304.293 213.148 304.657 213.148 305.09C213.148 305.703 212.908 306.177 212.428 306.51C211.955 306.837 211.262 307 210.348 307H206.728V300H210.148C211.002 300 211.655 300.163 212.108 300.49C212.568 300.817 212.798 301.26 212.798 301.82C212.798 302.16 212.715 302.463 212.548 302.73C212.388 302.997 212.162 303.207 211.868 303.36ZM208.338 301.22V302.87H209.948C210.348 302.87 210.652 302.8 210.858 302.66C211.065 302.52 211.168 302.313 211.168 302.04C211.168 301.767 211.065 301.563 210.858 301.43C210.652 301.29 210.348 301.22 209.948 301.22H208.338ZM210.228 305.78C210.655 305.78 210.975 305.71 211.188 305.57C211.408 305.43 211.518 305.213 211.518 304.92C211.518 304.34 211.088 304.05 210.228 304.05H208.338V305.78H210.228ZM217.485 307.12C216.485 307.12 215.705 306.843 215.145 306.29C214.592 305.737 214.315 304.947 214.315 303.92V300H215.935V303.86C215.935 305.113 216.455 305.74 217.495 305.74C218.002 305.74 218.388 305.59 218.655 305.29C218.922 304.983 219.055 304.507 219.055 303.86V300H220.655V303.92C220.655 304.947 220.375 305.737 219.815 306.29C219.262 306.843 218.485 307.12 217.485 307.12ZM222.256 300H225.436C226.196 300 226.866 300.147 227.446 300.44C228.032 300.727 228.486 301.133 228.806 301.66C229.132 302.187 229.296 302.8 229.296 303.5C229.296 304.2 229.132 304.813 228.806 305.34C228.486 305.867 228.032 306.277 227.446 306.57C226.866 306.857 226.196 307 225.436 307H222.256V300ZM225.356 305.67C226.056 305.67 226.612 305.477 227.026 305.09C227.446 304.697 227.656 304.167 227.656 303.5C227.656 302.833 227.446 302.307 227.026 301.92C226.612 301.527 226.056 301.33 225.356 301.33H223.876V305.67H225.356ZM235.248 303.39H236.728V306.23C236.348 306.517 235.908 306.737 235.408 306.89C234.908 307.043 234.404 307.12 233.898 307.12C233.171 307.12 232.518 306.967 231.938 306.66C231.358 306.347 230.901 305.917 230.568 305.37C230.241 304.817 230.078 304.193 230.078 303.5C230.078 302.807 230.241 302.187 230.568 301.64C230.901 301.087 231.361 300.657 231.948 300.35C232.534 300.037 233.194 299.88 233.928 299.88C234.541 299.88 235.098 299.983 235.598 300.19C236.098 300.397 236.518 300.697 236.858 301.09L235.818 302.05C235.318 301.523 234.714 301.26 234.008 301.26C233.561 301.26 233.164 301.353 232.818 301.54C232.471 301.727 232.201 301.99 232.008 302.33C231.814 302.67 231.718 303.06 231.718 303.5C231.718 303.933 231.814 304.32 232.008 304.66C232.201 305 232.468 305.267 232.808 305.46C233.154 305.647 233.548 305.74 233.988 305.74C234.454 305.74 234.874 305.64 235.248 305.44V303.39ZM243.652 305.7V307H238.232V300H243.522V301.3H239.842V302.82H243.092V304.08H239.842V305.7H243.652ZM246.391 301.32H244.151V300H250.251V301.32H248.011V307H246.391V301.32Z" fill="white"/>
</g>
<defs>
<filter id="filter0_d" x="0" y="0" width="410" height="410" filterUnits="userSpaceOnUse" color-interpolation-filters="sRGB">
<feFlood flood-opacity="0" result="BackgroundImageFix"/>
<feColorMatrix in="SourceAlpha" type="matrix" values="0 0 0 0 0 0 0 0 0 0 0 0 0 0 0 0 0 0 127 0"/>
<feOffset dy="30"/>
<feGaussianBlur stdDeviation="20"/>
<feColorMatrix type="matrix" values="0 0 0 0 0 0 0 0 0 0 0 0 0 0 0 0 0 0 0.1 0"/>
<feBlend mode="normal" in2="BackgroundImageFix" result="effect1_dropShadow"/>
<feBlend mode="normal" in="SourceGraphic" in2="effect1_dropShadow" result="shape"/>
</filter>
<filter id="filter1_d" x="171.719" y="101.719" width="66.5625" height="86.5625" filterUnits="userSpaceOnUse" color-interpolation-filters="sRGB">
<feFlood flood-opacity="0" result="BackgroundImageFix"/>
<feColorMatrix in="SourceAlpha" type="matrix" values="0 0 0 0 0 0 0 0 0 0 0 0 0 0 0 0 0 0 127 0"/>
<feOffset dy="10"/>
<feGaussianBlur stdDeviation="5"/>
<feColorMatrix type="matrix" values="0 0 0 0 0 0 0 0 0 0 0 0 0 0 0 0 0 0 0.25 0"/>
<feBlend mode="normal" in2="BackgroundImageFix" result="effect1_dropShadow"/>
<feBlend mode="normal" in="SourceGraphic" in2="effect1_dropShadow" result="shape"/>
</filter>
<linearGradient id="paint0_linear" x1="203" y1="284" x2="203" y2="324" gradientUnits="userSpaceOnUse">
<stop stop-color="#E43117"/>
<stop offset="0.75" stop-color="#70180B"/>
<stop offset="1"/>
</linearGradient>
</defs>
</svg>
