<svg width="500" viewBox="0 0 410 370" fill="none" xmlns="http://www.w3.org/2000/svg">
<g filter="url(#filter0_d)">
<path d="M40 16C40 12.6863 42.6863 10 46 10H364C367.314 10 370 12.6863 370 16V403C370 406.314 367.314 409 364 409H46C42.6863 409 40 406.314 40 403V16Z" fill="#3C444D" fill-opacity="0"/>
</g>
<path d="M191.013 318.233H194.382V319H190.07V311.891H191.013V318.233ZM200.598 315.675C200.598 316.371 200.48 316.98 200.246 317.501C200.012 318.019 199.68 318.414 199.25 318.688C198.82 318.961 198.319 319.098 197.746 319.098C197.186 319.098 196.69 318.961 196.257 318.688C195.824 318.411 195.487 318.019 195.246 317.511C195.008 317 194.886 316.409 194.88 315.738V315.226C194.88 314.542 194.999 313.938 195.236 313.414C195.474 312.89 195.809 312.49 196.242 312.213C196.678 311.933 197.176 311.793 197.736 311.793C198.306 311.793 198.807 311.931 199.24 312.208C199.676 312.481 200.012 312.88 200.246 313.404C200.48 313.925 200.598 314.532 200.598 315.226V315.675ZM199.665 315.216C199.665 314.373 199.496 313.727 199.157 313.277C198.819 312.825 198.345 312.599 197.736 312.599C197.144 312.599 196.677 312.825 196.335 313.277C195.996 313.727 195.822 314.352 195.812 315.152V315.675C195.812 316.492 195.983 317.135 196.325 317.604C196.67 318.069 197.144 318.302 197.746 318.302C198.352 318.302 198.82 318.082 199.152 317.643C199.484 317.2 199.655 316.567 199.665 315.743V315.216ZM204.611 316.124H202.941V319H201.999V311.891H204.353C205.153 311.891 205.769 312.073 206.198 312.438C206.631 312.802 206.848 313.333 206.848 314.029C206.848 314.472 206.727 314.858 206.486 315.187C206.249 315.515 205.917 315.761 205.49 315.924L207.16 318.941V319H206.154L204.611 316.124ZM202.941 315.357H204.382C204.847 315.357 205.217 315.237 205.49 314.996C205.767 314.755 205.905 314.433 205.905 314.029C205.905 313.59 205.773 313.253 205.51 313.019C205.249 312.784 204.872 312.665 204.377 312.662H202.941V315.357ZM212.185 315.714H209.104V318.233H212.683V319H208.166V311.891H212.634V312.662H209.104V314.947H212.185V315.714ZM215.061 311.891L217.385 317.691L219.709 311.891H220.925V319H219.987V316.231L220.075 313.243L217.741 319H217.023L214.694 313.258L214.787 316.231V319H213.85V311.891H215.061Z" fill="white" fill-opacity="0.8"/>
<path d="M182.93 110.714H179.849V113.233H183.428V114H178.911V106.891H183.379V107.662H179.849V109.947H182.93V110.714ZM184.595 114V106.891H186.602C187.22 106.891 187.767 107.027 188.242 107.301C188.717 107.574 189.084 107.963 189.341 108.468C189.601 108.972 189.733 109.552 189.736 110.206V110.66C189.736 111.331 189.606 111.918 189.346 112.423C189.089 112.927 188.719 113.315 188.237 113.585C187.759 113.855 187.201 113.993 186.562 114H184.595ZM185.532 107.662V113.233H186.519C187.241 113.233 187.803 113.009 188.203 112.56C188.607 112.11 188.809 111.471 188.809 110.641V110.226C188.809 109.418 188.618 108.792 188.237 108.346C187.86 107.896 187.323 107.669 186.626 107.662H185.532ZM196.162 106.891V111.725C196.159 112.395 195.947 112.944 195.527 113.37C195.111 113.797 194.544 114.036 193.828 114.088L193.579 114.098C192.801 114.098 192.181 113.888 191.719 113.468C191.257 113.048 191.022 112.47 191.016 111.734V106.891H191.943V111.705C191.943 112.219 192.085 112.62 192.368 112.906C192.651 113.189 193.055 113.331 193.579 113.331C194.11 113.331 194.515 113.189 194.795 112.906C195.078 112.623 195.22 112.224 195.22 111.71V106.891H196.162ZM202.871 111.744C202.783 112.496 202.505 113.077 202.036 113.487C201.571 113.894 200.951 114.098 200.176 114.098C199.336 114.098 198.662 113.797 198.154 113.194C197.65 112.592 197.397 111.786 197.397 110.777V110.094C197.397 109.433 197.515 108.852 197.749 108.351C197.987 107.849 198.322 107.465 198.755 107.198C199.188 106.928 199.689 106.793 200.259 106.793C201.014 106.793 201.619 107.005 202.075 107.428C202.531 107.848 202.796 108.43 202.871 109.176H201.929C201.847 108.609 201.67 108.199 201.396 107.945C201.126 107.691 200.747 107.564 200.259 107.564C199.66 107.564 199.189 107.786 198.848 108.229C198.509 108.671 198.34 109.301 198.34 110.118V110.807C198.34 111.578 198.501 112.192 198.823 112.647C199.146 113.103 199.596 113.331 200.176 113.331C200.697 113.331 201.095 113.214 201.372 112.979C201.652 112.742 201.838 112.33 201.929 111.744H202.871ZM208.081 112.145H205.103L204.434 114H203.467L206.182 106.891H207.002L209.722 114H208.76L208.081 112.145ZM205.386 111.373H207.803L206.592 108.048L205.386 111.373ZM214.956 107.662H212.671V114H211.738V107.662H209.458V106.891H214.956V107.662ZM217.017 114H216.079V106.891H217.017V114ZM224.204 110.675C224.204 111.371 224.087 111.98 223.853 112.501C223.618 113.019 223.286 113.414 222.856 113.688C222.427 113.961 221.925 114.098 221.353 114.098C220.793 114.098 220.296 113.961 219.863 113.688C219.43 113.411 219.093 113.019 218.853 112.511C218.615 112 218.493 111.409 218.486 110.738V110.226C218.486 109.542 218.605 108.938 218.843 108.414C219.08 107.89 219.416 107.49 219.849 107.213C220.285 106.933 220.783 106.793 221.343 106.793C221.912 106.793 222.414 106.931 222.847 107.208C223.283 107.481 223.618 107.88 223.853 108.404C224.087 108.925 224.204 109.532 224.204 110.226V110.675ZM223.271 110.216C223.271 109.373 223.102 108.727 222.764 108.277C222.425 107.825 221.951 107.599 221.343 107.599C220.75 107.599 220.283 107.825 219.941 108.277C219.603 108.727 219.429 109.352 219.419 110.152V110.675C219.419 111.492 219.59 112.135 219.932 112.604C220.277 113.069 220.75 113.302 221.353 113.302C221.958 113.302 222.427 113.082 222.759 112.643C223.091 112.2 223.262 111.567 223.271 110.743V110.216ZM231.074 114H230.132L226.553 108.521V114H225.61V106.891H226.553L230.142 112.394V106.891H231.074V114Z" fill="white" fill-opacity="0.8"/>
<path d="M289.763 161.217V164H288.825V156.891H291.447C292.225 156.891 292.834 157.089 293.273 157.486C293.716 157.883 293.938 158.409 293.938 159.063C293.938 159.754 293.721 160.286 293.288 160.66C292.858 161.031 292.242 161.217 291.438 161.217H289.763ZM289.763 160.45H291.447C291.949 160.45 292.333 160.333 292.6 160.099C292.867 159.861 293 159.519 293 159.073C293 158.65 292.867 158.312 292.6 158.058C292.333 157.804 291.966 157.672 291.501 157.662H289.763V160.45ZM298.386 162.145H295.407L294.738 164H293.771L296.486 156.891H297.307L300.026 164H299.064L298.386 162.145ZM295.69 161.373H298.107L296.896 158.048L295.69 161.373ZM303.591 161.124H301.921V164H300.979V156.891H303.332C304.133 156.891 304.748 157.073 305.178 157.438C305.611 157.802 305.827 158.333 305.827 159.029C305.827 159.472 305.707 159.858 305.466 160.187C305.228 160.515 304.896 160.761 304.47 160.924L306.14 163.941V164H305.134L303.591 161.124ZM301.921 160.357H303.361C303.827 160.357 304.196 160.237 304.47 159.996C304.746 159.755 304.885 159.433 304.885 159.029C304.885 158.59 304.753 158.253 304.489 158.019C304.229 157.784 303.851 157.665 303.356 157.662H301.921V160.357ZM311.667 157.662H309.382V164H308.449V157.662H306.169V156.891H311.667V157.662ZM314.968 160.46L316.823 156.891H317.888L315.437 161.349V164H314.499V161.349L312.048 156.891H313.122L314.968 160.46ZM320.822 160.831C320.018 160.6 319.432 160.317 319.064 159.981C318.7 159.643 318.518 159.226 318.518 158.731C318.518 158.172 318.741 157.709 319.187 157.345C319.636 156.977 320.218 156.793 320.935 156.793C321.423 156.793 321.857 156.887 322.238 157.076C322.622 157.265 322.919 157.525 323.127 157.857C323.339 158.189 323.444 158.552 323.444 158.946H322.502C322.502 158.517 322.365 158.18 322.092 157.936C321.818 157.688 321.433 157.564 320.935 157.564C320.472 157.564 320.111 157.667 319.851 157.872C319.593 158.074 319.465 158.355 319.465 158.717C319.465 159.007 319.587 159.252 319.831 159.454C320.078 159.653 320.497 159.835 321.086 160.001C321.678 160.167 322.141 160.351 322.473 160.553C322.808 160.751 323.055 160.984 323.215 161.251C323.378 161.518 323.459 161.832 323.459 162.193C323.459 162.77 323.234 163.232 322.785 163.58C322.336 163.925 321.735 164.098 320.983 164.098C320.495 164.098 320.039 164.005 319.616 163.819C319.193 163.631 318.866 163.373 318.635 163.048C318.407 162.722 318.293 162.353 318.293 161.939H319.235C319.235 162.369 319.393 162.709 319.709 162.96C320.028 163.207 320.453 163.331 320.983 163.331C321.478 163.331 321.857 163.23 322.121 163.028C322.385 162.826 322.517 162.551 322.517 162.203C322.517 161.855 322.395 161.586 322.15 161.397C321.906 161.205 321.464 161.017 320.822 160.831Z" fill="white" fill-opacity="0.8"/>
<path d="M80.5098 160.831C79.7057 160.6 79.1198 160.317 78.752 159.981C78.3874 159.643 78.2051 159.226 78.2051 158.731C78.2051 158.172 78.4281 157.709 78.874 157.345C79.3232 156.977 79.9059 156.793 80.6221 156.793C81.1104 156.793 81.5449 156.887 81.9258 157.076C82.3099 157.265 82.6061 157.525 82.8145 157.857C83.026 158.189 83.1318 158.552 83.1318 158.946H82.1895C82.1895 158.517 82.0527 158.18 81.7793 157.936C81.5059 157.688 81.1201 157.564 80.6221 157.564C80.1598 157.564 79.7985 157.667 79.5381 157.872C79.2809 158.074 79.1523 158.355 79.1523 158.717C79.1523 159.007 79.2744 159.252 79.5186 159.454C79.766 159.653 80.1842 159.835 80.7734 160.001C81.3659 160.167 81.8281 160.351 82.1602 160.553C82.4954 160.751 82.7428 160.984 82.9023 161.251C83.0651 161.518 83.1465 161.832 83.1465 162.193C83.1465 162.77 82.9219 163.232 82.4727 163.58C82.0234 163.925 81.4229 164.098 80.6709 164.098C80.1826 164.098 79.7269 164.005 79.3037 163.819C78.8805 163.631 78.5534 163.373 78.3223 163.048C78.0944 162.722 77.9805 162.353 77.9805 161.939H78.9229C78.9229 162.369 79.0807 162.709 79.3965 162.96C79.7155 163.207 80.1403 163.331 80.6709 163.331C81.1657 163.331 81.5449 163.23 81.8086 163.028C82.0723 162.826 82.2041 162.551 82.2041 162.203C82.2041 161.855 82.082 161.586 81.8379 161.397C81.5938 161.205 81.151 161.017 80.5098 160.831ZM88.3711 160.714H85.29V163.233H88.8691V164H84.3525V156.891H88.8203V157.662H85.29V159.947H88.3711V160.714ZM95.2656 161.744C95.1777 162.496 94.8994 163.077 94.4307 163.487C93.9652 163.894 93.3451 164.098 92.5703 164.098C91.7305 164.098 91.0566 163.797 90.5488 163.194C90.0443 162.592 89.792 161.786 89.792 160.777V160.094C89.792 159.433 89.9092 158.852 90.1436 158.351C90.3812 157.849 90.7165 157.465 91.1494 157.198C91.5824 156.928 92.0837 156.793 92.6533 156.793C93.4085 156.793 94.014 157.005 94.4697 157.428C94.9255 157.848 95.1908 158.43 95.2656 159.176H94.3232C94.2419 158.609 94.0645 158.199 93.791 157.945C93.5208 157.691 93.1416 157.564 92.6533 157.564C92.0544 157.564 91.584 157.786 91.2422 158.229C90.9036 158.671 90.7344 159.301 90.7344 160.118V160.807C90.7344 161.578 90.8955 162.192 91.2178 162.647C91.54 163.103 91.9909 163.331 92.5703 163.331C93.0911 163.331 93.4899 163.214 93.7666 162.979C94.0465 162.742 94.2321 162.33 94.3232 161.744H95.2656ZM101.555 156.891V161.725C101.551 162.395 101.34 162.944 100.92 163.37C100.503 163.797 99.9368 164.036 99.2207 164.088L98.9717 164.098C98.1937 164.098 97.5736 163.888 97.1113 163.468C96.6491 163.048 96.4147 162.47 96.4082 161.734V156.891H97.3359V161.705C97.3359 162.219 97.4775 162.62 97.7607 162.906C98.0439 163.189 98.4476 163.331 98.9717 163.331C99.5023 163.331 99.9076 163.189 100.188 162.906C100.471 162.623 100.612 162.224 100.612 161.71V156.891H101.555ZM105.642 161.124H103.972V164H103.029V156.891H105.383C106.184 156.891 106.799 157.073 107.229 157.438C107.661 157.802 107.878 158.333 107.878 159.029C107.878 159.472 107.757 159.858 107.517 160.187C107.279 160.515 106.947 160.761 106.521 160.924L108.19 163.941V164H107.185L105.642 161.124ZM103.972 160.357H105.412C105.878 160.357 106.247 160.237 106.521 159.996C106.797 159.755 106.936 159.433 106.936 159.029C106.936 158.59 106.804 158.253 106.54 158.019C106.28 157.784 105.902 157.665 105.407 157.662H103.972V160.357ZM110.202 164H109.265V156.891H110.202V164ZM116.687 157.662H114.401V164H113.469V157.662H111.188V156.891H116.687V157.662ZM119.987 160.46L121.843 156.891H122.907L120.456 161.349V164H119.519V161.349L117.067 156.891H118.142L119.987 160.46Z" fill="white" fill-opacity="0.8"/>
<path d="M288.825 269V261.891H291.149C291.921 261.891 292.5 262.05 292.888 262.369C293.278 262.688 293.474 263.16 293.474 263.785C293.474 264.117 293.379 264.412 293.19 264.669C293.002 264.923 292.744 265.12 292.419 265.26C292.803 265.367 293.106 265.572 293.327 265.875C293.552 266.174 293.664 266.533 293.664 266.949C293.664 267.587 293.457 268.089 293.044 268.453C292.631 268.818 292.046 269 291.291 269H288.825ZM289.763 265.675V268.233H291.311C291.747 268.233 292.09 268.121 292.341 267.896C292.595 267.669 292.722 267.356 292.722 266.959C292.722 266.103 292.256 265.675 291.325 265.675H289.763ZM289.763 264.923H291.179C291.589 264.923 291.916 264.82 292.16 264.615C292.408 264.41 292.531 264.132 292.531 263.78C292.531 263.39 292.417 263.106 292.189 262.931C291.962 262.752 291.615 262.662 291.149 262.662H289.763V264.923ZM300.061 261.891V266.725C300.057 267.395 299.846 267.944 299.426 268.37C299.009 268.797 298.443 269.036 297.727 269.088L297.478 269.098C296.7 269.098 296.079 268.888 295.617 268.468C295.155 268.048 294.921 267.47 294.914 266.734V261.891H295.842V266.705C295.842 267.219 295.983 267.62 296.267 267.906C296.55 268.189 296.953 268.331 297.478 268.331C298.008 268.331 298.413 268.189 298.693 267.906C298.977 267.623 299.118 267.224 299.118 266.71V261.891H300.061ZM302.546 269H301.608V261.891H302.546V269ZM305.207 268.233H308.576V269H304.265V261.891H305.207V268.233ZM309.646 269V261.891H311.652C312.271 261.891 312.818 262.027 313.293 262.301C313.768 262.574 314.134 262.963 314.392 263.468C314.652 263.972 314.784 264.552 314.787 265.206V265.66C314.787 266.331 314.657 266.918 314.396 267.423C314.139 267.927 313.77 268.315 313.288 268.585C312.81 268.855 312.251 268.993 311.613 269H309.646ZM310.583 262.662V268.233H311.569C312.292 268.233 312.854 268.009 313.254 267.56C313.658 267.11 313.859 266.471 313.859 265.641V265.226C313.859 264.418 313.669 263.792 313.288 263.346C312.91 262.896 312.373 262.669 311.677 262.662H310.583ZM317.214 269H316.276V261.891H317.214V269ZM324.396 269H323.454L319.875 263.521V269H318.933V261.891H319.875L323.464 267.394V261.891H324.396V269ZM331.311 268.067C331.07 268.412 330.733 268.671 330.3 268.844C329.87 269.013 329.369 269.098 328.796 269.098C328.216 269.098 327.702 268.963 327.253 268.692C326.804 268.419 326.455 268.032 326.208 267.53C325.964 267.029 325.839 266.448 325.832 265.787V265.167C325.832 264.096 326.081 263.266 326.579 262.677C327.08 262.088 327.784 261.793 328.688 261.793C329.431 261.793 330.028 261.983 330.48 262.364C330.933 262.742 331.21 263.279 331.311 263.976H330.373C330.197 263.035 329.637 262.564 328.693 262.564C328.065 262.564 327.588 262.786 327.263 263.229C326.94 263.668 326.778 264.306 326.774 265.143V265.724C326.774 266.521 326.957 267.156 327.321 267.628C327.686 268.097 328.179 268.331 328.801 268.331C329.152 268.331 329.46 268.292 329.724 268.214C329.987 268.136 330.205 268.004 330.378 267.818V266.222H328.732V265.46H331.311V268.067ZM334.973 265.831C334.169 265.6 333.583 265.317 333.215 264.981C332.85 264.643 332.668 264.226 332.668 263.731C332.668 263.172 332.891 262.709 333.337 262.345C333.786 261.977 334.369 261.793 335.085 261.793C335.573 261.793 336.008 261.887 336.389 262.076C336.773 262.265 337.069 262.525 337.277 262.857C337.489 263.189 337.595 263.552 337.595 263.946H336.652C336.652 263.517 336.516 263.18 336.242 262.936C335.969 262.688 335.583 262.564 335.085 262.564C334.623 262.564 334.261 262.667 334.001 262.872C333.744 263.074 333.615 263.355 333.615 263.717C333.615 264.007 333.737 264.252 333.981 264.454C334.229 264.653 334.647 264.835 335.236 265.001C335.829 265.167 336.291 265.351 336.623 265.553C336.958 265.751 337.206 265.984 337.365 266.251C337.528 266.518 337.609 266.832 337.609 267.193C337.609 267.77 337.385 268.232 336.936 268.58C336.486 268.925 335.886 269.098 335.134 269.098C334.646 269.098 334.19 269.005 333.767 268.819C333.343 268.631 333.016 268.373 332.785 268.048C332.557 267.722 332.443 267.353 332.443 266.939H333.386C333.386 267.369 333.544 267.709 333.859 267.96C334.178 268.207 334.603 268.331 335.134 268.331C335.629 268.331 336.008 268.23 336.271 268.028C336.535 267.826 336.667 267.551 336.667 267.203C336.667 266.855 336.545 266.586 336.301 266.397C336.057 266.205 335.614 266.017 334.973 265.831Z" fill="white" fill-opacity="0.8"/>
<path d="M91.8867 269H90.9443L87.3652 263.521V269H86.4229V261.891H87.3652L90.9541 267.394V261.891H91.8867V269ZM97.5654 267.145H94.5869L93.918 269H92.9512L95.666 261.891H96.4863L99.2061 269H98.2441L97.5654 267.145ZM94.8701 266.373H97.2871L96.0762 263.048L94.8701 266.373ZM104.44 262.662H102.155V269H101.223V262.662H98.9424V261.891H104.44V262.662ZM110.5 261.891V266.725C110.497 267.395 110.285 267.944 109.865 268.37C109.449 268.797 108.882 269.036 108.166 269.088L107.917 269.098C107.139 269.098 106.519 268.888 106.057 268.468C105.594 268.048 105.36 267.47 105.354 266.734V261.891H106.281V266.705C106.281 267.219 106.423 267.62 106.706 267.906C106.989 268.189 107.393 268.331 107.917 268.331C108.448 268.331 108.853 268.189 109.133 267.906C109.416 267.623 109.558 267.224 109.558 266.71V261.891H110.5ZM114.587 266.124H112.917V269H111.975V261.891H114.328C115.129 261.891 115.744 262.073 116.174 262.438C116.607 262.802 116.823 263.333 116.823 264.029C116.823 264.472 116.703 264.858 116.462 265.187C116.224 265.515 115.892 265.761 115.466 265.924L117.136 268.941V269H116.13L114.587 266.124ZM112.917 265.357H114.357C114.823 265.357 115.192 265.237 115.466 264.996C115.743 264.755 115.881 264.433 115.881 264.029C115.881 263.59 115.749 263.253 115.485 263.019C115.225 262.784 114.847 262.665 114.353 262.662H112.917V265.357ZM122.16 265.714H119.079V268.233H122.658V269H118.142V261.891H122.609V262.662H119.079V264.947H122.16V265.714Z" fill="white" fill-opacity="0.8"/>
<path d="M109.645 47.1133H102.25V53.1602H110.84V55H100V37.9375H110.723V39.7891H102.25V45.2734H109.645V47.1133ZM117.555 46.9492L120.367 42.3203H122.898L118.75 48.5898L123.027 55H120.52L117.59 50.2539L114.66 55H112.141L116.418 48.5898L112.27 42.3203H114.777L117.555 46.9492ZM135.918 48.8008C135.918 50.7305 135.477 52.2852 134.594 53.4648C133.711 54.6445 132.516 55.2344 131.008 55.2344C129.469 55.2344 128.258 54.7461 127.375 53.7695V59.875H125.207V42.3203H127.188L127.293 43.7266C128.176 42.6328 129.402 42.0859 130.973 42.0859C132.496 42.0859 133.699 42.6602 134.582 43.8086C135.473 44.957 135.918 46.5547 135.918 48.6016V48.8008ZM133.75 48.5547C133.75 47.125 133.445 45.9961 132.836 45.168C132.227 44.3398 131.391 43.9258 130.328 43.9258C129.016 43.9258 128.031 44.5078 127.375 45.6719V51.7305C128.023 52.8867 129.016 53.4648 130.352 53.4648C131.391 53.4648 132.215 53.0547 132.824 52.2344C133.441 51.4062 133.75 50.1797 133.75 48.5547ZM143.945 55.2344C142.227 55.2344 140.828 54.6719 139.75 53.5469C138.672 52.4141 138.133 50.9023 138.133 49.0117V48.6133C138.133 47.3555 138.371 46.2344 138.848 45.25C139.332 44.2578 140.004 43.4844 140.863 42.9297C141.73 42.3672 142.668 42.0859 143.676 42.0859C145.324 42.0859 146.605 42.6289 147.52 43.7148C148.434 44.8008 148.891 46.3555 148.891 48.3789V49.2812H140.301C140.332 50.5312 140.695 51.543 141.391 52.3164C142.094 53.082 142.984 53.4648 144.062 53.4648C144.828 53.4648 145.477 53.3086 146.008 52.9961C146.539 52.6836 147.004 52.2695 147.402 51.7539L148.727 52.7852C147.664 54.418 146.07 55.2344 143.945 55.2344ZM143.676 43.8672C142.801 43.8672 142.066 44.1875 141.473 44.8281C140.879 45.4609 140.512 46.3516 140.371 47.5H146.723V47.3359C146.66 46.2344 146.363 45.3828 145.832 44.7812C145.301 44.1719 144.582 43.8672 143.676 43.8672ZM153.461 42.3203L153.531 43.9141C154.5 42.6953 155.766 42.0859 157.328 42.0859C160.008 42.0859 161.359 43.5977 161.383 46.6211V55H159.215V46.6094C159.207 45.6953 158.996 45.0195 158.582 44.582C158.176 44.1445 157.539 43.9258 156.672 43.9258C155.969 43.9258 155.352 44.1133 154.82 44.4883C154.289 44.8633 153.875 45.3555 153.578 45.9648V55H151.41V42.3203H153.461ZM169.738 53.4648C170.512 53.4648 171.188 53.2305 171.766 52.7617C172.344 52.293 172.664 51.707 172.727 51.0039H174.777C174.738 51.7305 174.488 52.4219 174.027 53.0781C173.566 53.7344 172.949 54.2578 172.176 54.6484C171.41 55.0391 170.598 55.2344 169.738 55.2344C168.012 55.2344 166.637 54.6602 165.613 53.5117C164.598 52.3555 164.09 50.7773 164.09 48.7773V48.4141C164.09 47.1797 164.316 46.082 164.77 45.1211C165.223 44.1602 165.871 43.4141 166.715 42.8828C167.566 42.3516 168.57 42.0859 169.727 42.0859C171.148 42.0859 172.328 42.5117 173.266 43.3633C174.211 44.2148 174.715 45.3203 174.777 46.6797H172.727C172.664 45.8594 172.352 45.1875 171.789 44.6641C171.234 44.1328 170.547 43.8672 169.727 43.8672C168.625 43.8672 167.77 44.2656 167.16 45.0625C166.559 45.8516 166.258 46.9961 166.258 48.4961V48.9062C166.258 50.3672 166.559 51.4922 167.16 52.2812C167.762 53.0703 168.621 53.4648 169.738 53.4648ZM182.477 55.2344C180.758 55.2344 179.359 54.6719 178.281 53.5469C177.203 52.4141 176.664 50.9023 176.664 49.0117V48.6133C176.664 47.3555 176.902 46.2344 177.379 45.25C177.863 44.2578 178.535 43.4844 179.395 42.9297C180.262 42.3672 181.199 42.0859 182.207 42.0859C183.855 42.0859 185.137 42.6289 186.051 43.7148C186.965 44.8008 187.422 46.3555 187.422 48.3789V49.2812H178.832C178.863 50.5312 179.227 51.543 179.922 52.3164C180.625 53.082 181.516 53.4648 182.594 53.4648C183.359 53.4648 184.008 53.3086 184.539 52.9961C185.07 52.6836 185.535 52.2695 185.934 51.7539L187.258 52.7852C186.195 54.418 184.602 55.2344 182.477 55.2344ZM182.207 43.8672C181.332 43.8672 180.598 44.1875 180.004 44.8281C179.41 45.4609 179.043 46.3516 178.902 47.5H185.254V47.3359C185.191 46.2344 184.895 45.3828 184.363 44.7812C183.832 44.1719 183.113 43.8672 182.207 43.8672ZM197.324 51.6367C197.324 51.0508 197.102 50.5977 196.656 50.2773C196.219 49.9492 195.449 49.668 194.348 49.4336C193.254 49.1992 192.383 48.918 191.734 48.5898C191.094 48.2617 190.617 47.8711 190.305 47.418C190 46.9648 189.848 46.4258 189.848 45.8008C189.848 44.7617 190.285 43.8828 191.16 43.1641C192.043 42.4453 193.168 42.0859 194.535 42.0859C195.973 42.0859 197.137 42.457 198.027 43.1992C198.926 43.9414 199.375 44.8906 199.375 46.0469H197.195C197.195 45.4531 196.941 44.9414 196.434 44.5117C195.934 44.082 195.301 43.8672 194.535 43.8672C193.746 43.8672 193.129 44.0391 192.684 44.3828C192.238 44.7266 192.016 45.1758 192.016 45.7305C192.016 46.2539 192.223 46.6484 192.637 46.9141C193.051 47.1797 193.797 47.4336 194.875 47.6758C195.961 47.918 196.84 48.207 197.512 48.543C198.184 48.8789 198.68 49.2852 199 49.7617C199.328 50.2305 199.492 50.8047 199.492 51.4844C199.492 52.6172 199.039 53.5273 198.133 54.2148C197.227 54.8945 196.051 55.2344 194.605 55.2344C193.59 55.2344 192.691 55.0547 191.91 54.6953C191.129 54.3359 190.516 53.8359 190.07 53.1953C189.633 52.5469 189.414 51.8477 189.414 51.0977H191.582C191.621 51.8242 191.91 52.4023 192.449 52.832C192.996 53.2539 193.715 53.4648 194.605 53.4648C195.426 53.4648 196.082 53.3008 196.574 52.9727C197.074 52.6367 197.324 52.1914 197.324 51.6367ZM207.695 48.543C207.695 47.3008 207.938 46.1836 208.422 45.1914C208.914 44.1992 209.594 43.4336 210.461 42.8945C211.336 42.3555 212.332 42.0859 213.449 42.0859C215.176 42.0859 216.57 42.6836 217.633 43.8789C218.703 45.0742 219.238 46.6641 219.238 48.6484V48.8008C219.238 50.0352 219 51.1445 218.523 52.1289C218.055 53.1055 217.379 53.8672 216.496 54.4141C215.621 54.9609 214.613 55.2344 213.473 55.2344C211.754 55.2344 210.359 54.6367 209.289 53.4414C208.227 52.2461 207.695 50.6641 207.695 48.6953V48.543ZM209.875 48.8008C209.875 50.207 210.199 51.3359 210.848 52.1875C211.504 53.0391 212.379 53.4648 213.473 53.4648C214.574 53.4648 215.449 53.0352 216.098 52.1758C216.746 51.3086 217.07 50.0977 217.07 48.543C217.07 47.1523 216.738 46.0273 216.074 45.168C215.418 44.3008 214.543 43.8672 213.449 43.8672C212.379 43.8672 211.516 44.293 210.859 45.1445C210.203 45.9961 209.875 47.2148 209.875 48.8008ZM223.023 55V43.9961H221.02V42.3203H223.023V41.0195C223.023 39.6602 223.387 38.6094 224.113 37.8672C224.84 37.125 225.867 36.7539 227.195 36.7539C227.695 36.7539 228.191 36.8203 228.684 36.9531L228.566 38.7109C228.199 38.6406 227.809 38.6055 227.395 38.6055C226.691 38.6055 226.148 38.8125 225.766 39.2266C225.383 39.6328 225.191 40.2188 225.191 40.9844V42.3203H227.898V43.9961H225.191V55H223.023ZM239.195 39.25V42.3203H241.562V43.9961H239.195V51.8594C239.195 52.3672 239.301 52.75 239.512 53.0078C239.723 53.2578 240.082 53.3828 240.59 53.3828C240.84 53.3828 241.184 53.3359 241.621 53.2422V55C241.051 55.1562 240.496 55.2344 239.957 55.2344C238.988 55.2344 238.258 54.9414 237.766 54.3555C237.273 53.7695 237.027 52.9375 237.027 51.8594V43.9961H234.719V42.3203H237.027V39.25H239.195ZM246.273 43.8555C247.234 42.6758 248.484 42.0859 250.023 42.0859C252.703 42.0859 254.055 43.5977 254.078 46.6211V55H251.91V46.6094C251.902 45.6953 251.691 45.0195 251.277 44.582C250.871 44.1445 250.234 43.9258 249.367 43.9258C248.664 43.9258 248.047 44.1133 247.516 44.4883C246.984 44.8633 246.57 45.3555 246.273 45.9648V55H244.105V37H246.273V43.8555ZM262.586 55.2344C260.867 55.2344 259.469 54.6719 258.391 53.5469C257.312 52.4141 256.773 50.9023 256.773 49.0117V48.6133C256.773 47.3555 257.012 46.2344 257.488 45.25C257.973 44.2578 258.645 43.4844 259.504 42.9297C260.371 42.3672 261.309 42.0859 262.316 42.0859C263.965 42.0859 265.246 42.6289 266.16 43.7148C267.074 44.8008 267.531 46.3555 267.531 48.3789V49.2812H258.941C258.973 50.5312 259.336 51.543 260.031 52.3164C260.734 53.082 261.625 53.4648 262.703 53.4648C263.469 53.4648 264.117 53.3086 264.648 52.9961C265.18 52.6836 265.645 52.2695 266.043 51.7539L267.367 52.7852C266.305 54.418 264.711 55.2344 262.586 55.2344ZM262.316 43.8672C261.441 43.8672 260.707 44.1875 260.113 44.8281C259.52 45.4609 259.152 46.3516 259.012 47.5H265.363V47.3359C265.301 46.2344 265.004 45.3828 264.473 44.7812C263.941 44.1719 263.223 43.8672 262.316 43.8672ZM281.09 53.4648C281.863 53.4648 282.539 53.2305 283.117 52.7617C283.695 52.293 284.016 51.707 284.078 51.0039H286.129C286.09 51.7305 285.84 52.4219 285.379 53.0781C284.918 53.7344 284.301 54.2578 283.527 54.6484C282.762 55.0391 281.949 55.2344 281.09 55.2344C279.363 55.2344 277.988 54.6602 276.965 53.5117C275.949 52.3555 275.441 50.7773 275.441 48.7773V48.4141C275.441 47.1797 275.668 46.082 276.121 45.1211C276.574 44.1602 277.223 43.4141 278.066 42.8828C278.918 42.3516 279.922 42.0859 281.078 42.0859C282.5 42.0859 283.68 42.5117 284.617 43.3633C285.562 44.2148 286.066 45.3203 286.129 46.6797H284.078C284.016 45.8594 283.703 45.1875 283.141 44.6641C282.586 44.1328 281.898 43.8672 281.078 43.8672C279.977 43.8672 279.121 44.2656 278.512 45.0625C277.91 45.8516 277.609 46.9961 277.609 48.4961V48.9062C277.609 50.3672 277.91 51.4922 278.512 52.2812C279.113 53.0703 279.973 53.4648 281.09 53.4648ZM290.922 55H288.754V42.3203H290.922V55ZM288.578 38.957C288.578 38.6055 288.684 38.3086 288.895 38.0664C289.113 37.8242 289.434 37.7031 289.855 37.7031C290.277 37.7031 290.598 37.8242 290.816 38.0664C291.035 38.3086 291.145 38.6055 291.145 38.957C291.145 39.3086 291.035 39.6016 290.816 39.8359C290.598 40.0703 290.277 40.1875 289.855 40.1875C289.434 40.1875 289.113 40.0703 288.895 39.8359C288.684 39.6016 288.578 39.3086 288.578 38.957ZM297.344 39.25V42.3203H299.711V43.9961H297.344V51.8594C297.344 52.3672 297.449 52.75 297.66 53.0078C297.871 53.2578 298.23 53.3828 298.738 53.3828C298.988 53.3828 299.332 53.3359 299.77 53.2422V55C299.199 55.1562 298.645 55.2344 298.105 55.2344C297.137 55.2344 296.406 54.9414 295.914 54.3555C295.422 53.7695 295.176 52.9375 295.176 51.8594V43.9961H292.867V42.3203H295.176V39.25H297.344ZM306.402 51.8242L309.355 42.3203H311.676L306.578 56.957C305.789 59.0664 304.535 60.1211 302.816 60.1211L302.406 60.0859L301.598 59.9336V58.1758L302.184 58.2227C302.918 58.2227 303.488 58.0742 303.895 57.7773C304.309 57.4805 304.648 56.9375 304.914 56.1484L305.395 54.8594L300.871 42.3203H303.238L306.402 51.8242ZM190.645 83H179.465V81.4414L185.371 74.8789C186.246 73.8867 186.848 73.082 187.176 72.4648C187.512 71.8398 187.68 71.1953 187.68 70.5312C187.68 69.6406 187.41 68.9102 186.871 68.3398C186.332 67.7695 185.613 67.4844 184.715 67.4844C183.637 67.4844 182.797 67.793 182.195 68.4102C181.602 69.0195 181.305 69.8711 181.305 70.9648H179.137C179.137 69.3945 179.641 68.125 180.648 67.1562C181.664 66.1875 183.02 65.7031 184.715 65.7031C186.301 65.7031 187.555 66.1211 188.477 66.957C189.398 67.7852 189.859 68.8906 189.859 70.2734C189.859 71.9531 188.789 73.9531 186.648 76.2734L182.078 81.2305H190.645V83ZM203.641 75.7227C203.641 78.2617 203.207 80.1484 202.34 81.3828C201.473 82.6172 200.117 83.2344 198.273 83.2344C196.453 83.2344 195.105 82.6328 194.23 81.4297C193.355 80.2188 192.902 78.4141 192.871 76.0156V73.1211C192.871 70.6133 193.305 68.75 194.172 67.5312C195.039 66.3125 196.398 65.7031 198.25 65.7031C200.086 65.7031 201.438 66.293 202.305 67.4727C203.172 68.6445 203.617 70.457 203.641 72.9102V75.7227ZM201.473 72.7578C201.473 70.9219 201.215 69.5859 200.699 68.75C200.184 67.9062 199.367 67.4844 198.25 67.4844C197.141 67.4844 196.332 67.9023 195.824 68.7383C195.316 69.5742 195.055 70.8594 195.039 72.5938V76.0625C195.039 77.9062 195.305 79.2695 195.836 80.1523C196.375 81.0273 197.188 81.4648 198.273 81.4648C199.344 81.4648 200.137 81.0508 200.652 80.2227C201.176 79.3945 201.449 78.0898 201.473 76.3086V72.7578ZM217.598 83H206.418V81.4414L212.324 74.8789C213.199 73.8867 213.801 73.082 214.129 72.4648C214.465 71.8398 214.633 71.1953 214.633 70.5312C214.633 69.6406 214.363 68.9102 213.824 68.3398C213.285 67.7695 212.566 67.4844 211.668 67.4844C210.59 67.4844 209.75 67.793 209.148 68.4102C208.555 69.0195 208.258 69.8711 208.258 70.9648H206.09C206.09 69.3945 206.594 68.125 207.602 67.1562C208.617 66.1875 209.973 65.7031 211.668 65.7031C213.254 65.7031 214.508 66.1211 215.43 66.957C216.352 67.7852 216.812 68.8906 216.812 70.2734C216.812 71.9531 215.742 73.9531 213.602 76.2734L209.031 81.2305H217.598V83ZM231.074 83H219.895V81.4414L225.801 74.8789C226.676 73.8867 227.277 73.082 227.605 72.4648C227.941 71.8398 228.109 71.1953 228.109 70.5312C228.109 69.6406 227.84 68.9102 227.301 68.3398C226.762 67.7695 226.043 67.4844 225.145 67.4844C224.066 67.4844 223.227 67.793 222.625 68.4102C222.031 69.0195 221.734 69.8711 221.734 70.9648H219.566C219.566 69.3945 220.07 68.125 221.078 67.1562C222.094 66.1875 223.449 65.7031 225.145 65.7031C226.73 65.7031 227.984 66.1211 228.906 66.957C229.828 67.7852 230.289 68.8906 230.289 70.2734C230.289 71.9531 229.219 73.9531 227.078 76.2734L222.508 81.2305H231.074V83Z" fill="white"/>
<path d="M205 125H206V300H205V125Z" fill="#747D88" fill-opacity="0.8"/>
<path d="M129.473 169.183L129.973 168.317L281.527 255.817L281.027 256.683L129.473 169.183Z" fill="#747D88" fill-opacity="0.8"/>
<path d="M281.027 168.317L281.527 169.183L129.973 256.683L129.473 255.817L281.027 168.317Z" fill="#747D88" fill-opacity="0.8"/>
<g filter="url(#filter1_d)">
<path d="M186 201.5L205.5 133.5L252.5 185.5L273.5 251L205.5 286L155 242L186 201.5Z" stroke="url(#paint0_linear)" stroke-width="4"/>
</g>
<defs>
<filter id="filter0_d" x="0" y="0" width="410" height="479" filterUnits="userSpaceOnUse" color-interpolation-filters="sRGB">
<feFlood flood-opacity="0" result="BackgroundImageFix"/>
<feColorMatrix in="SourceAlpha" type="matrix" values="0 0 0 0 0 0 0 0 0 0 0 0 0 0 0 0 0 0 127 0"/>
<feOffset dy="30"/>
<feGaussianBlur stdDeviation="20"/>
<feColorMatrix type="matrix" values="0 0 0 0 0 0 0 0 0 0 0 0 0 0 0 0 0 0 0.1 0"/>
<feBlend mode="normal" in2="BackgroundImageFix" result="effect1_dropShadow"/>
<feBlend mode="normal" in="SourceGraphic" in2="effect1_dropShadow" result="shape"/>
</filter>
<filter id="filter1_d" x="142.271" y="129.488" width="143.651" height="178.911" filterUnits="userSpaceOnUse" color-interpolation-filters="sRGB">
<feFlood flood-opacity="0" result="BackgroundImageFix"/>
<feColorMatrix in="SourceAlpha" type="matrix" values="0 0 0 0 0 0 0 0 0 0 0 0 0 0 0 0 0 0 127 0"/>
<feOffset dy="10"/>
<feGaussianBlur stdDeviation="5"/>
<feColorMatrix type="matrix" values="0 0 0 0 0 0 0 0 0 0 0 0 0 0 0 0 0 0 0.25 0"/>
<feBlend mode="normal" in2="BackgroundImageFix" result="effect1_dropShadow"/>
<feBlend mode="normal" in="SourceGraphic" in2="effect1_dropShadow" result="shape"/>
</filter>
<linearGradient id="paint0_linear" x1="155" y1="162.5" x2="267.795" y2="263.37" gradientUnits="userSpaceOnUse">
<stop/>
<stop offset="1" stop-color="#E43117"/>
</linearGradient>
</defs>
</svg>
