<svg width="116" height="40" viewBox="0 0 116 40" fill="none" xmlns="http://www.w3.org/2000/svg">
<g opacity="0.8">
<path d="M0 16C0 7.16344 7.16344 0 16 0H100C108.837 0 116 7.16344 116 16V24C116 32.8366 108.837 40 100 40H16C7.16345 40 0 32.8366 0 24V16Z" fill="url(#paint0_linear)"/>
<path d="M18.13 23.12C17.5767 23.12 17.04 23.0467 16.52 22.9C16.0067 22.7467 15.5933 22.55 15.28 22.31L15.83 21.09C16.13 21.31 16.4867 21.4867 16.9 21.62C17.3133 21.7533 17.7267 21.82 18.14 21.82C18.6 21.82 18.94 21.7533 19.16 21.62C19.38 21.48 19.49 21.2967 19.49 21.07C19.49 20.9033 19.4233 20.7667 19.29 20.66C19.1633 20.5467 18.9967 20.4567 18.79 20.39C18.59 20.3233 18.3167 20.25 17.97 20.17C17.4367 20.0433 17 19.9167 16.66 19.79C16.32 19.6633 16.0267 19.46 15.78 19.18C15.54 18.9 15.42 18.5267 15.42 18.06C15.42 17.6533 15.53 17.2867 15.75 16.96C15.97 16.6267 16.3 16.3633 16.74 16.17C17.1867 15.9767 17.73 15.88 18.37 15.88C18.8167 15.88 19.2533 15.9333 19.68 16.04C20.1067 16.1467 20.48 16.3 20.8 16.5L20.3 17.73C19.6533 17.3633 19.0067 17.18 18.36 17.18C17.9067 17.18 17.57 17.2533 17.35 17.4C17.1367 17.5467 17.03 17.74 17.03 17.98C17.03 18.22 17.1533 18.4 17.4 18.52C17.6533 18.6333 18.0367 18.7467 18.55 18.86C19.0833 18.9867 19.52 19.1133 19.86 19.24C20.2 19.3667 20.49 19.5667 20.73 19.84C20.9767 20.1133 21.1 20.4833 21.1 20.95C21.1 21.35 20.9867 21.7167 20.76 22.05C20.54 22.3767 20.2067 22.6367 19.76 22.83C19.3133 23.0233 18.77 23.12 18.13 23.12ZM27.627 21.7V23H22.207V16H27.497V17.3H23.817V18.82H27.067V20.08H23.817V21.7H27.627ZM30.3659 17.32H28.1259V16H34.2259V17.32H31.9859V23H30.3659V17.32ZM39.3796 17.32H37.1396V16H43.2396V17.32H40.9996V23H39.3796V17.32ZM50.5313 16V23H48.9113V20.13H45.7313V23H44.1113V16H45.7313V18.76H48.9113V16H50.5313ZM57.6074 21.7V23H52.1874V16H57.4774V17.3H53.7974V18.82H57.0474V20.08H53.7974V21.7H57.6074ZM66.8684 19.36C67.2684 19.4867 67.5818 19.7 67.8084 20C68.0351 20.2933 68.1484 20.6567 68.1484 21.09C68.1484 21.7033 67.9084 22.1767 67.4284 22.51C66.9551 22.8367 66.2618 23 65.3484 23H61.7284V16H65.1484C66.0018 16 66.6551 16.1633 67.1084 16.49C67.5684 16.8167 67.7984 17.26 67.7984 17.82C67.7984 18.16 67.7151 18.4633 67.5484 18.73C67.3884 18.9967 67.1618 19.2067 66.8684 19.36ZM63.3384 17.22V18.87H64.9484C65.3484 18.87 65.6518 18.8 65.8584 18.66C66.0651 18.52 66.1684 18.3133 66.1684 18.04C66.1684 17.7667 66.0651 17.5633 65.8584 17.43C65.6518 17.29 65.3484 17.22 64.9484 17.22H63.3384ZM65.2284 21.78C65.6551 21.78 65.9751 21.71 66.1884 21.57C66.4084 21.43 66.5184 21.2133 66.5184 20.92C66.5184 20.34 66.0884 20.05 65.2284 20.05H63.3384V21.78H65.2284ZM72.4849 23.12C71.4849 23.12 70.7049 22.8433 70.1449 22.29C69.5916 21.7367 69.3149 20.9467 69.3149 19.92V16H70.9349V19.86C70.9349 21.1133 71.4549 21.74 72.4949 21.74C73.0016 21.74 73.3883 21.59 73.6549 21.29C73.9216 20.9833 74.0549 20.5067 74.0549 19.86V16H75.6549V19.92C75.6549 20.9467 75.3749 21.7367 74.8149 22.29C74.2616 22.8433 73.4849 23.12 72.4849 23.12ZM77.2558 16H80.4358C81.1958 16 81.8658 16.1467 82.4458 16.44C83.0324 16.7267 83.4858 17.1333 83.8058 17.66C84.1324 18.1867 84.2958 18.8 84.2958 19.5C84.2958 20.2 84.1324 20.8133 83.8058 21.34C83.4858 21.8667 83.0324 22.2767 82.4458 22.57C81.8658 22.8567 81.1958 23 80.4358 23H77.2558V16ZM80.3558 21.67C81.0558 21.67 81.6124 21.4767 82.0258 21.09C82.4458 20.6967 82.6558 20.1667 82.6558 19.5C82.6558 18.8333 82.4458 18.3067 82.0258 17.92C81.6124 17.5267 81.0558 17.33 80.3558 17.33H78.8758V21.67H80.3558ZM90.2475 19.39H91.7275V22.23C91.3475 22.5167 90.9075 22.7367 90.4075 22.89C89.9075 23.0433 89.4042 23.12 88.8975 23.12C88.1708 23.12 87.5175 22.9667 86.9375 22.66C86.3575 22.3467 85.9008 21.9167 85.5675 21.37C85.2408 20.8167 85.0775 20.1933 85.0775 19.5C85.0775 18.8067 85.2408 18.1867 85.5675 17.64C85.9008 17.0867 86.3608 16.6567 86.9475 16.35C87.5342 16.0367 88.1942 15.88 88.9275 15.88C89.5408 15.88 90.0975 15.9833 90.5975 16.19C91.0975 16.3967 91.5175 16.6967 91.8575 17.09L90.8175 18.05C90.3175 17.5233 89.7142 17.26 89.0075 17.26C88.5608 17.26 88.1642 17.3533 87.8175 17.54C87.4708 17.7267 87.2008 17.99 87.0075 18.33C86.8142 18.67 86.7175 19.06 86.7175 19.5C86.7175 19.9333 86.8142 20.32 87.0075 20.66C87.2008 21 87.4675 21.2667 87.8075 21.46C88.1542 21.6467 88.5475 21.74 88.9875 21.74C89.4542 21.74 89.8742 21.64 90.2475 21.44V19.39ZM98.6523 21.7V23H93.2323V16H98.5223V17.3H94.8423V18.82H98.0923V20.08H94.8423V21.7H98.6523ZM101.391 17.32H99.1513V16H105.251V17.32H103.011V23H101.391V17.32Z" fill="white"/>
</g>
<defs>
<linearGradient id="paint0_linear" x1="58" y1="0" x2="58" y2="40" gradientUnits="userSpaceOnUse">
<stop stop-color="#E43117"/>
<stop offset="0.75" stop-color="#70180B"/>
<stop offset="1"/>
</linearGradient>
</defs>
</svg>
